<svg width="25" height="19" viewBox="0 0 25 19" fill="none" xmlns="http://www.w3.org/2000/svg">
<path fill-rule="evenodd" clip-rule="evenodd" d="M18.3906 1.77122V7.43397H23.2153C23.5019 7.42742 23.7682 7.58132 23.906 7.83304C24.0438 8.08476 24.03 8.39239 23.8703 8.63084L17.7368 17.6318C17.5434 17.9151 17.1898 18.0411 16.8613 17.9437C16.5327 17.8464 16.3045 17.548 16.296 17.205V11.5386H11.4737C11.1871 11.5452 10.9208 11.3913 10.783 11.1396C10.6453 10.8879 10.6591 10.5802 10.8187 10.3418L16.9498 1.34439C17.1431 1.06119 17.4969 0.935213 17.8254 1.03253C18.1538 1.12984 18.3822 1.42824 18.3906 1.77122Z" stroke="white" stroke-width="1.5" stroke-linecap="round" stroke-linejoin="round"/>
<path d="M9.47542 16.7642H3.11911" stroke="white" stroke-width="1.5" stroke-linecap="round" stroke-linejoin="round"/>
<path d="M6.29692 10.0947H1" stroke="white" stroke-width="1.5" stroke-linecap="round" stroke-linejoin="round"/>
<path d="M9.47542 3.42529H3.11911" stroke="white" stroke-width="1.5" stroke-linecap="round" stroke-linejoin="round"/>
</svg>
