<svg width="141" height="141" viewBox="0 0 141 141" fill="none" xmlns="http://www.w3.org/2000/svg">
<g clip-path="url(#clip0_19_830)">
<path fill-rule="evenodd" clip-rule="evenodd" d="M65.9735 62.6863C66.2598 63.0219 66.4933 63.4223 66.7262 63.8221C68.077 65.8633 69.6782 68.2115 70.3071 70.6374C71.1111 73.8442 70.4984 76.2392 69.0739 77.9856C67.067 80.442 63.2073 81.5241 59.4523 81.0875C55.72 80.6691 52.0912 78.8379 50.3697 75.8594C49.1752 73.8364 48.8578 71.2321 50.0398 68.1166C51.3598 64.5771 54.2494 62.5056 57.7482 61.4552C59.0867 61.0291 60.4448 60.8325 61.8773 60.6951C60.9715 59.6507 60.0554 58.5976 59.1241 57.5329C55.9802 54.1656 52.3419 51.044 48.5961 48.3711C43.6917 44.7721 38.3677 42.1207 32.5205 40.4395C32.0107 40.2458 31.7029 39.679 31.8486 39.1544C31.995 38.6303 32.5526 38.3284 33.1145 38.4569C39.1866 40.211 44.7414 42.9399 49.8323 46.6878C53.6303 49.5094 57.4287 52.6526 60.6242 56.1679C61.9337 57.6418 63.2152 59.0932 64.4276 60.5963C67.5587 60.6412 70.6439 61.1833 73.0428 61.9251C88.9036 67.1213 100.608 86.1978 106.985 100.91C107.216 101.416 106.999 101.99 106.481 102.218C105.963 102.445 105.378 102.191 105.147 101.686C98.9693 87.4531 87.7692 68.8857 72.4052 63.8728C70.5982 63.2834 68.3251 62.8561 65.9735 62.6863ZM63.4027 62.6623C63.9961 63.3503 64.5332 64.0994 65.016 64.9126C66.2149 66.8323 67.7581 68.9202 68.3595 71.1104C68.9727 73.5237 68.5933 75.3582 67.5381 76.6518C65.8491 78.7212 62.7146 79.4212 59.6987 79.041C56.6085 78.7084 53.5353 77.321 52.1464 74.8221C51.2331 73.2374 51.0218 71.2517 51.9142 68.8663C53.0317 65.913 55.476 64.2342 58.3245 63.4121C59.9543 62.8982 61.684 62.6778 63.4027 62.6623Z" fill="#F19C1C"/>
<path fill-rule="evenodd" clip-rule="evenodd" d="M106.481 101.789C106.512 101.279 106.428 100.677 106.344 100.076C106.202 98.8938 105.968 97.7451 106.014 96.9275C106.235 91.975 106.561 86.0386 108.335 81.3664C108.513 80.8673 109.106 80.5938 109.628 80.7969C110.149 80.9994 110.441 81.5529 110.211 82.1172C108.544 86.5553 108.29 92.2288 108.029 97.0426C108.013 97.8842 108.288 99.2784 108.446 100.473C108.553 101.521 108.544 102.475 108.242 103.195C108.099 103.615 107.499 104.098 106.453 103.902C104.995 103.592 101.74 101.74 101.408 101.581C98.0535 99.9688 95.0391 98.628 91.2698 99.6759C90.7517 99.7961 90.2022 99.4636 90.0045 98.985C89.8589 98.4413 90.1976 97.857 90.7163 97.7373C94.9966 96.5635 98.5186 97.8826 102.322 99.7468C102.528 99.9115 104.464 101.031 105.977 101.599C106.159 101.638 106.302 101.752 106.481 101.789Z" fill="#F19C1C"/>
</g>
<defs>
<clipPath id="clip0_19_830">
<rect width="100" height="100" fill="white" transform="matrix(0.624299 -0.781185 -0.781185 -0.624299 78.1157 140.98)"/>
</clipPath>
</defs>
</svg>
