<svg width="17" height="16" viewBox="0 0 17 16" fill="none" xmlns="http://www.w3.org/2000/svg">
<path d="M6.625 8.875V15.4062H0.59375V10.25C0.59375 7.45833 0.927083 5.4375 1.59375 4.1875C2.46875 2.52083 3.85417 1.26042 5.75 0.40625L7.125 2.59375C5.97917 3.07292 5.13542 3.79167 4.59375 4.75C4.05208 5.6875 3.75 7.0625 3.6875 8.875H6.625ZM16.3125 8.875V15.4062H10.2812V10.25C10.2812 7.45833 10.6146 5.4375 11.2812 4.1875C12.1562 2.52083 13.5417 1.26042 15.4375 0.40625L16.8125 2.59375C15.6667 3.07292 14.8229 3.79167 14.2812 4.75C13.7396 5.6875 13.4375 7.0625 13.375 8.875H16.3125Z" fill="#F19C1C"/>
</svg>
