<svg width="686" height="741" viewBox="0 0 686 741" fill="none" xmlns="http://www.w3.org/2000/svg">
<path d="M297.865 417.223L209.34 768.284L333.119 771.214L383.829 411.788L297.865 417.223Z" fill="#CE7C00"/>
<path d="M451.603 740.396L350.367 752.702L356.694 804.835L327.721 841.8L461.904 825.495C461.904 825.495 452.556 741.143 451.603 740.396Z" fill="#1B1147"/>
<path d="M293.926 399.62C296.992 399.999 380.051 390.082 400.514 387.623L405.038 387.072L400.135 379.511L373.93 339.099L367.741 329.573L346.807 297.296L330.546 299.824C330.546 299.824 327.825 306.58 323.84 316.589C322.933 318.887 321.957 321.334 320.935 323.943C316.835 334.284 311.966 346.763 307.476 358.541C305.834 362.896 304.215 367.17 302.722 371.18C296.843 387.141 292.709 399.459 293.926 399.62Z" fill="#F19C1C"/>
<path d="M392.878 410.88L467.496 750.68L338.654 763.86L298.313 417.671L392.878 410.88Z" fill="#F19C1C"/>
<path d="M318.363 256.344C319.473 253.174 321.499 250.405 324.182 248.388C326.865 246.37 330.086 245.193 333.438 245.007C336.789 244.821 340.12 245.633 343.01 247.341C345.9 249.05 348.219 251.577 349.674 254.604C351.129 257.631 351.654 261.021 351.183 264.347C350.712 267.672 349.266 270.783 347.028 273.287C344.791 275.79 341.861 277.573 338.611 278.411C335.36 279.248 331.934 279.102 328.766 277.992C327.41 277.513 326.118 276.869 324.92 276.073C321.801 273.972 319.466 270.896 318.28 267.327C317.094 263.757 317.123 259.895 318.363 256.344ZM325.632 275.016C328.676 277.043 332.328 277.952 335.967 277.59L336.885 259.538L323.966 250.242C321.97 252.004 320.463 254.252 319.591 256.769C318.435 260.05 318.4 263.623 319.494 266.926C320.587 270.229 322.746 273.074 325.632 275.016Z" fill="#FBFBFB"/>
<path d="M113.34 171.692L14.1016 137.152L97.6195 30.1514L156.012 115.676L159.09 111.631L223.821 161.041L217.034 169.957C220.787 174.577 223.04 180.234 223.491 186.171C223.942 192.107 222.571 198.04 219.56 203.175C216.549 208.31 212.042 212.402 206.642 214.904C201.243 217.405 195.209 218.197 189.348 217.172C187.027 216.757 184.764 216.067 182.607 215.115L174.098 226.284L150.557 208.324L149.823 209.313L149.478 209.772L149.134 210.243L148.422 209.703L147.273 208.842C143.667 206.003 139.844 203.027 135.79 200.189L136.134 199.729L136.467 199.27L137.237 198.236L109.367 176.955L113.34 171.692ZM155.277 116.641L97.5621 32.1048L16.0308 136.589L114.121 170.727L155.335 116.653L155.277 116.641Z" fill="#FBFBFB"/>
<path d="M440.579 133.9L441.475 133.003C441.785 133.314 447.377 138.99 449.192 149.745C449.812 146.602 451.284 143.689 453.447 141.326C455.61 138.963 458.381 137.241 461.456 136.347L461.72 137.588C461.284 137.68 450.96 140.059 449.892 153.491H449.628C449.837 156.387 449.764 159.296 449.41 162.178L448.158 162.029C450.34 143.862 440.683 134.003 440.579 133.9Z" fill="#FBFBFB"/>
<path d="M380.487 284.967C369.923 293.481 356.602 300.709 339.802 305.65L339.446 304.432C391.523 289.253 409.85 251.575 416.051 222.527C416.131 222.193 416.2 221.86 416.269 221.527C420.071 202.164 420.359 182.275 417.119 162.81C410.918 158.674 366.214 128.488 371.392 119.973C371.837 119.244 372.434 118.62 373.141 118.142C373.848 117.664 374.65 117.344 375.492 117.204C385.919 115.032 409.437 130.372 415.959 134.808C412.193 124.466 395.599 76.9525 405.693 65.2091C406.119 64.5663 406.731 64.0696 407.448 63.786C408.164 63.5025 408.951 63.4457 409.701 63.6234C414.96 65.1171 420.036 81.2499 423.641 96.7852C421.907 81.3993 421.195 64.6805 425.272 58.9237C425.638 58.3529 426.119 57.8649 426.685 57.4909C427.251 57.117 427.888 56.8653 428.556 56.752C429.137 56.6885 429.725 56.7445 430.284 56.9164C430.843 57.0883 431.361 57.3725 431.806 57.7517C437.272 61.9572 441.693 79.308 444.667 94.9008C443.519 76.4354 444.3 55.0169 453.716 53.2359C454.325 53.1276 454.951 53.1571 455.547 53.3221C456.143 53.4871 456.694 53.7835 457.161 54.1896C462.696 58.533 466.13 77.0674 468.116 93.1772C466.784 52.2822 469.322 51.926 477.108 50.8343C477.411 50.7935 477.72 50.8208 478.012 50.9142C478.304 51.0076 478.572 51.1648 478.796 51.3744C485.686 57.1197 487.902 115.825 487.982 118.319C488.063 118.813 496.388 175.392 486.076 235.316C485.502 238.671 484.928 241.969 484.204 245.221C477.831 276.096 467.255 302.214 452.717 322.954C432.598 351.681 404.809 370.066 370.106 377.696L369.831 376.455C393.521 371.238 412.549 361.207 427.844 348.234C419.197 292.344 383.668 285.461 380.487 284.967ZM428.981 347.246C463.19 317.542 478.359 272.959 484.836 235.074C495.171 175.323 486.822 119.02 486.731 118.422C486.099 101.496 483.286 56.798 477.98 52.3281C477.894 52.2337 477.786 52.1607 477.667 52.1148C477.547 52.0689 477.419 52.0515 477.291 52.0638C469.253 53.2129 467.381 53.4542 470.401 118.709L469.127 118.778C469.127 118.215 465.911 62.7271 456.346 55.2238C456.021 54.9315 455.634 54.7166 455.215 54.5952C454.795 54.4739 454.353 54.4491 453.923 54.5228C442.29 56.7175 445.379 94.3722 447.55 112.366C448.319 117.629 448.767 121.249 448.824 121.812L447.573 121.984C447.469 121.387 446.895 117.698 446.241 112.332C443.863 96.0039 438.306 64.3473 431.071 58.7284C430.76 58.4533 430.395 58.246 430 58.1194C429.605 57.9928 429.187 57.9497 428.774 57.993C428.277 58.0787 427.804 58.2696 427.386 58.5529C426.968 58.8363 426.615 59.2056 426.351 59.6361C420.782 67.4957 424.847 98.4628 427.58 115.251C428.729 121.318 429.418 125.592 429.509 126.224L428.258 126.454C428.143 125.81 427.236 121.168 426.156 114.561C422.436 95.0272 415.684 66.5994 409.402 64.8184C408.495 64.5656 407.611 64.9563 406.692 65.9675C396.082 78.3083 417.67 135.6 417.888 136.186L418.635 138.128L416.935 136.979C416.637 136.772 387.17 116.066 375.802 118.433C375.132 118.536 374.491 118.782 373.925 119.155C373.358 119.528 372.878 120.019 372.518 120.594C369.073 126.339 397.861 148.412 418.084 161.856L418.302 162.006V162.259C421.686 182.316 421.339 202.825 417.28 222.757C413.088 242.348 403.408 265.881 381.75 283.921C388.744 285.403 420.598 295.055 428.981 347.246Z" fill="#FBFBFB"/>
<path d="M102.856 200.028C103.407 199.488 104.004 198.879 104.647 198.213C109.045 193.616 115.706 186.791 122.297 190.365C125.949 192.341 129.6 194.559 133.16 196.926C134.309 197.696 135.457 198.477 136.548 199.224C140.567 202.074 144.402 205.05 148.031 207.899L149.179 208.738L149.88 209.267C153.325 211.932 159.296 216.644 160.996 220.941C164.461 224.58 167.54 228.57 170.182 232.845C180.525 244.115 191.969 254.32 204.345 263.307C206.711 265.069 209.187 266.827 211.775 268.581C235.247 284.541 272.096 303.283 314.826 302.478H316.33V303.053V303.627C314.941 303.627 313.551 303.685 312.173 303.685C302.168 303.667 292.189 302.651 282.385 300.651L282.638 301.088C282.34 301.272 253.149 319.094 258.351 366.446C271.675 369.723 285.4 371.062 299.105 370.422L299.163 371.571C296.866 371.686 294.569 371.744 292.273 371.744C243.044 371.744 200.246 345.166 172.536 322.277C153.642 306.67 136.61 288.934 121.78 269.42C120.832 269.671 119.855 269.794 118.875 269.788C114.408 269.788 109.424 267.489 105.095 265.191C98.5037 261.664 88.5362 256.332 84.5744 247.438C77.8452 232.328 90.2127 212.438 102.856 200.028ZM126.971 237.062L128.395 238.211C134.423 242.865 138.81 244.979 141.681 244.623C144.058 244.336 145.195 242.325 146.274 240.464C146.573 239.935 146.86 239.429 147.181 238.958C148.33 237.2 146.377 233.638 142.703 229.283C139.306 231.501 135.593 233.19 131.69 234.293L131.162 234.454C130.014 234.799 129.038 235.143 128.073 235.465L126.087 236.109L126.971 237.062ZM124.674 266.651C124.861 266.486 125.007 266.28 125.099 266.048C125.19 265.816 125.226 265.566 125.202 265.318C125.202 262.79 121.757 258.423 117.061 253.517C116.142 252.563 115.166 251.586 114.155 250.598C110.71 248.128 107.369 245.393 104.291 242.785C97.539 237.039 92.2912 231.869 91.7515 231.294L92.5094 230.432C93.072 230.869 98.8596 235.362 105.497 241.119C108.529 243.738 111.732 246.623 114.684 249.507C115.832 250.368 116.98 251.184 118.129 251.954C124.915 256.55 131.013 259.308 133.918 257.366C134.457 257.029 134.902 256.562 135.213 256.008C135.524 255.454 135.691 254.83 135.698 254.195C135.882 250.426 132.253 244.922 127.464 239.36L126.098 237.809C125.577 237.396 125.049 236.959 124.513 236.499C120.299 237.648 117.118 237.384 113.926 232.098C113.599 231.578 113.424 230.978 113.42 230.363C113.471 229.29 113.875 228.264 114.569 227.445C111.836 224.79 108.827 221.757 105.497 218.31L106.278 217.471C106.737 217.839 110.871 221.217 115.947 225.916C116.58 225.332 117.251 224.791 117.956 224.296C122.116 221.534 126.622 219.331 131.357 217.747C129.681 216.218 127.912 214.702 126.224 213.219C122.986 210.45 119.725 207.796 116.728 205.475L116.785 205.394L116.578 205.222L116.934 204.785L117.29 204.349C120.827 207.229 124.062 209.841 126.994 212.185C129.237 213.978 131.323 215.613 133.252 217.092C137.446 215.641 141.792 214.674 146.205 214.208C148.107 213.963 150.039 214.096 151.889 214.598C154.101 215.43 156.144 216.656 157.918 218.218C155.287 215.252 152.342 212.582 149.133 210.255L148.421 209.715L147.273 208.853C143.667 206.015 139.843 203.039 135.79 200.201C134.642 199.419 133.574 198.649 132.437 197.902C128.911 195.547 125.294 193.306 121.665 191.399C115.843 188.239 109.803 194.478 105.382 199.04C104.751 199.695 104.142 200.327 103.579 200.867C91.2003 213.024 79.0625 232.42 85.585 247.059C89.1103 254.942 97.0683 259.699 105.6 264.295C111.928 267.581 119.725 270.879 124.686 266.651H124.674ZM173.271 321.415C193.941 338.536 223.178 357.714 257.157 366.228C252.472 322.093 277.379 303.306 281.478 300.536C252.77 294.584 228.322 281.347 211.063 269.615C207.377 267.11 203.897 264.594 200.636 262.112C189.294 253.615 178.786 244.057 169.252 233.569C166.951 229.886 164.338 226.407 161.444 223.17L160.823 222.492L160.043 221.688C157.401 218.999 154.45 216.644 151.568 215.667C149.536 215.158 147.422 215.072 145.355 215.414C141.635 215.904 137.97 216.751 134.412 217.942L133.746 218.149L132.942 218.425L132.368 218.62C126.041 220.838 119.977 223.86 116.865 226.732L116.441 227.157C116.222 227.376 116.016 227.606 115.832 227.824L115.775 227.893C115.671 228.031 115.568 228.157 115.487 228.284C114.603 229.536 114.442 230.582 115.017 231.558C117.623 235.867 120.081 236.43 123.56 235.638L124.215 235.477L123.974 235.258L124.226 235.477L124.686 235.339L125.317 235.155C126.086 234.925 126.913 234.649 127.798 234.351C128.946 233.971 130.094 233.569 131.449 233.202L132.402 232.903C135.809 231.866 139.05 230.345 142.025 228.387L142.496 228.077L142.967 227.732C143.17 227.594 143.362 227.441 143.541 227.272L143.989 226.87L160.444 247.312L159.997 247.668L159.549 248.036L143.84 228.502L143.702 228.605C147.537 233.202 149.742 237.327 148.226 239.59C147.928 240.038 147.641 240.521 147.354 241.027C146.205 243.072 144.85 245.393 141.899 245.749C139.855 246.014 136.663 245.462 130.416 241.061C134.343 246.014 137.11 250.794 136.938 254.298C136.923 255.115 136.706 255.916 136.305 256.628C135.904 257.34 135.332 257.941 134.642 258.377C131.484 260.503 125.524 258.067 119.036 253.919C123.285 258.515 126.339 262.663 126.397 265.306C126.425 265.725 126.356 266.144 126.194 266.531C126.033 266.918 125.784 267.262 125.466 267.535C124.715 268.175 123.866 268.691 122.952 269.064C137.683 288.37 154.565 305.934 173.271 321.415Z" fill="#FBFBFB"/>
<path d="M345.635 241.751C322.728 241.751 304.158 223.169 304.158 200.247C304.158 177.325 322.728 158.743 345.635 158.743C368.543 158.743 387.113 177.325 387.113 200.247C387.113 223.169 368.543 241.751 345.635 241.751Z" fill="#FBFBFB"/>
</svg>
