<svg width="86" height="41" viewBox="0 0 86 41" fill="none" xmlns="http://www.w3.org/2000/svg">
<g opacity="0.16" clip-path="url(#clip0_93_179)">
<mask id="mask0_93_179" style="mask-type:luminance" maskUnits="userSpaceOnUse" x="0" y="0" width="86" height="41">
<path d="M85.0705 0.205322H0V40.2053H85.0705V0.205322Z" fill="white"/>
</mask>
<g mask="url(#mask0_93_179)">
<path fill-rule="evenodd" clip-rule="evenodd" d="M46.0984 9.11871C45.7708 9.11871 45.5035 9.38421 45.5035 9.71352V12.4875C45.5035 12.8151 45.769 13.0823 46.0984 13.0823H56.7995C57.1271 13.0823 57.3944 12.8168 57.3944 12.4875V9.71352C57.3944 9.38594 57.1289 9.11871 56.7995 9.11871H46.0984ZM45.5035 22.3957C45.5035 22.7233 45.769 22.9905 46.0984 22.9905H48.8723C49.1999 22.9905 49.4671 22.725 49.4671 22.3957V19.6217C49.4671 19.2941 49.7326 19.0269 50.062 19.0269H54.8186C55.1462 19.0269 55.4134 18.7614 55.4134 18.4321V15.6581C55.4134 15.3305 55.148 15.0633 54.8186 15.0633H46.1C45.7725 15.0633 45.5053 15.3288 45.5053 15.6581V22.3957H45.5035Z" fill="white"/>
<path fill-rule="evenodd" clip-rule="evenodd" d="M73.8401 9.11871C73.5125 9.11871 73.2453 9.38421 73.2453 9.71352V12.4875C73.2453 12.8151 73.5108 13.0823 73.8401 13.0823H80.3156C80.6432 13.0823 80.9104 13.3478 80.9104 13.6771V16.0546C80.9104 17.6959 79.5796 19.0269 77.9382 19.0269C76.864 19.0269 75.9245 18.458 75.4021 17.6046C75.2296 17.3235 74.8969 17.1614 74.5866 17.2753L71.792 18.2925C71.4833 18.4045 71.323 18.7493 71.4609 19.0458C72.5919 21.4923 75.0676 23.1887 77.9399 23.1887C81.8794 23.1887 85.074 19.9941 85.074 16.0546V9.71352C85.074 9.38594 84.8085 9.11871 84.4793 9.11871H73.8435H73.8401Z" fill="white"/>
<path fill-rule="evenodd" clip-rule="evenodd" d="M67.8801 17.2735C67.5697 17.1615 67.237 17.3219 67.0647 17.6029C66.5422 18.4563 65.6009 19.0252 64.5285 19.0252C62.8872 19.0252 61.5563 17.6943 61.5563 16.053C61.5563 14.4117 62.8872 13.0807 64.5285 13.0807C65.6026 13.0807 66.5422 13.6496 67.0647 14.5029C67.237 14.7841 67.5697 14.9461 67.8801 14.8323L70.6748 13.8151C70.9835 13.703 71.1437 13.3582 71.0059 13.0617C69.8748 10.6152 67.399 8.91876 64.5268 8.91876C60.5873 8.91876 57.3926 12.1135 57.3926 16.053C57.3926 19.9924 60.5873 23.1872 64.5268 23.1872C67.399 23.1872 69.8748 21.4906 71.0059 19.0442C71.1437 18.7477 70.9817 18.4028 70.6748 18.2907L67.8801 17.2735Z" fill="white"/>
<path fill-rule="evenodd" clip-rule="evenodd" d="M4.00342 30.5867L10.117 37.0158L3.17932 29.0333L4.00342 30.5867Z" fill="white"/>
<path fill-rule="evenodd" clip-rule="evenodd" d="M36.0142 30.5867L29.9006 37.0158L36.8383 29.0333L36.0142 30.5867Z" fill="white"/>
<path fill-rule="evenodd" clip-rule="evenodd" d="M20.0615 0.581136C20.0615 0.581136 19.9028 0.615618 19.6287 0.68458C19.3546 0.755267 18.9615 0.846642 18.4943 0.972499C18.0254 1.09491 17.4805 1.24318 16.8978 1.40696C16.315 1.56902 15.6962 1.75177 15.0772 1.93452C14.46 2.12245 13.8427 2.30865 13.2652 2.4914C12.6877 2.67415 12.1515 2.84828 11.6929 3.00344C11.2325 3.15516 10.8532 3.29309 10.586 3.38446C10.3188 3.47928 10.1688 3.53619 10.1688 3.53619C10.0722 3.57239 9.96363 3.52411 9.92743 3.42757C9.89122 3.33102 9.93949 3.2224 10.036 3.18619C10.0447 3.18275 10.0533 3.18102 10.0619 3.17929C10.0619 3.17929 10.2205 3.14482 10.4946 3.07586C10.7688 3.00517 11.1619 2.91207 11.6291 2.78794C12.098 2.66552 12.6428 2.51726 13.2256 2.35348C13.8083 2.19141 14.4273 2.00866 15.0461 1.8259C15.6634 1.63799 16.2806 1.45179 16.8581 1.26904C17.4357 1.08801 17.9719 0.912156 18.4305 0.756991C18.8908 0.605273 19.2701 0.465624 19.5373 0.374248C19.8045 0.279425 19.9546 0.222531 19.9546 0.222531C20.0511 0.186326 20.1597 0.234599 20.196 0.331147C20.2322 0.427694 20.1839 0.53631 20.0873 0.572515C20.0787 0.575964 20.0702 0.577688 20.0615 0.579413V0.581136Z" fill="white"/>
<path fill-rule="evenodd" clip-rule="evenodd" d="M3.01378 11.2514C3.01378 11.2514 3.10343 11.1755 3.2086 11.0445C3.3155 10.9135 3.4379 10.7307 3.53962 10.5359C3.64306 10.3428 3.72582 10.1359 3.77409 9.97559C3.82408 9.81526 3.83788 9.69802 3.83788 9.69802C3.84995 9.58769 3.94995 9.50837 4.05857 9.52044C4.1689 9.53251 4.24821 9.6325 4.23613 9.74112C4.23096 9.79284 4.2051 9.83939 4.16717 9.87215C4.16717 9.87215 4.07752 9.94974 3.97236 10.0808C3.86547 10.2118 3.74306 10.3945 3.63961 10.5894C3.53617 10.7825 3.45342 10.9876 3.40514 11.1497C3.35514 11.31 3.34307 11.4273 3.34307 11.4273C3.33101 11.5376 3.23273 11.6169 3.1224 11.6048C3.01205 11.5928 2.93275 11.4945 2.94482 11.3842C2.94999 11.3307 2.97758 11.2842 3.01378 11.2531V11.2514Z" fill="white"/>
<path fill-rule="evenodd" clip-rule="evenodd" d="M3.86727 9.6566C3.86727 9.6566 3.9707 9.56351 4.14829 9.398C4.32414 9.23076 4.57931 8.99457 4.87757 8.70321C5.17583 8.41356 5.52065 8.0722 5.88614 7.70152C6.25165 7.33257 6.63611 6.93259 7.01885 6.5326C7.39987 6.12918 7.77916 5.72574 8.12915 5.34127C8.48086 4.95854 8.80499 4.59648 9.0791 4.28443C9.35496 3.97237 9.57736 3.70514 9.73598 3.52239C9.89286 3.33792 9.9808 3.2293 9.9808 3.2293C10.0463 3.14827 10.1636 3.13619 10.2446 3.20171C10.3256 3.26723 10.3377 3.38447 10.2722 3.4655C10.2653 3.47411 10.2584 3.48101 10.2515 3.48791C10.2515 3.48791 10.148 3.58101 9.97045 3.74651C9.7946 3.91375 9.53943 4.14995 9.2429 4.44131C8.94463 4.73096 8.59982 5.07232 8.23431 5.443C7.86882 5.81194 7.48434 6.21192 7.09988 6.61192C6.71887 7.01534 6.33957 7.41878 5.98786 7.80324C5.63615 8.18598 5.31204 8.54804 5.03791 8.86009C4.76205 9.17215 4.53965 9.43938 4.38104 9.62213C4.22415 9.8066 4.13621 9.91522 4.13621 9.91522C4.07071 9.99625 3.95347 10.0083 3.87244 9.94453C3.79141 9.87901 3.77934 9.76178 3.84313 9.68075C3.85003 9.67213 3.85693 9.66523 3.86381 9.65833L3.86727 9.6566Z" fill="white"/>
<path fill-rule="evenodd" clip-rule="evenodd" d="M10.1171 3.17069C10.1171 3.17069 10.3533 3.21379 10.7067 3.24482C10.8843 3.26206 11.0912 3.27585 11.3118 3.28446C11.5325 3.29482 11.7687 3.29654 12.0049 3.29999C12.2411 3.29654 12.4773 3.29482 12.698 3.28446C12.9187 3.27585 13.1256 3.26206 13.3031 3.24482C13.6565 3.21379 13.8928 3.17069 13.8928 3.17069C13.9963 3.15171 14.0944 3.22068 14.1135 3.3224C14.1324 3.42584 14.0635 3.52412 13.9617 3.54308C13.9393 3.54652 13.9152 3.54652 13.8928 3.54308C13.8928 3.54308 13.6565 3.49998 13.3031 3.46895C13.1256 3.4517 12.9187 3.43792 12.698 3.42929C12.4773 3.41894 12.2411 3.4155 12.0049 3.41377C11.7687 3.4155 11.5325 3.41723 11.3118 3.42929C11.0912 3.43792 10.8843 3.4517 10.7067 3.46895C10.3533 3.49998 10.1171 3.54308 10.1171 3.54308C10.0136 3.56205 9.91535 3.4948 9.89639 3.39136C9.87742 3.28792 9.94466 3.18965 10.0481 3.17069C10.0722 3.16551 10.0947 3.16723 10.1171 3.17069Z" fill="white"/>
<path fill-rule="evenodd" clip-rule="evenodd" d="M13.9961 3.51208C13.9961 3.51208 13.8357 3.60518 13.5565 3.76725C13.2806 3.93449 12.8789 4.16379 12.41 4.45515C11.9393 4.74652 11.3876 5.07927 10.8031 5.44993C10.2169 5.81717 9.598 6.21715 8.97906 6.61713C8.36184 7.02056 7.74464 7.42399 7.17225 7.81018C6.5964 8.19464 6.06711 8.56359 5.61024 8.87392C5.15336 9.18598 4.78097 9.45838 4.51547 9.64285C4.25341 9.83251 4.10342 9.9394 4.10342 9.9394C4.02065 9.99974 3.90342 9.98077 3.84307 9.89802C3.78274 9.81526 3.8017 9.69803 3.88446 9.63768C3.88963 9.63424 3.8948 9.63079 3.89998 9.62734C3.89998 9.62734 4.06031 9.53425 4.3396 9.37218C4.61546 9.20494 5.01544 8.97564 5.48611 8.68428C5.95678 8.39291 6.50848 8.05845 7.09294 7.6895C7.67912 7.32226 8.29805 6.92229 8.917 6.52231C9.53421 6.11887 10.1514 5.71545 10.7255 5.32925C11.3014 4.9465 11.8289 4.57584 12.2875 4.26551C12.7444 3.95518 13.1168 3.68105 13.3823 3.49656C13.6444 3.30693 13.7926 3.19831 13.7926 3.19831C13.8754 3.13796 13.9926 3.15693 14.053 3.23968C14.1133 3.32244 14.0943 3.43968 14.0117 3.50002C14.0064 3.50346 14.0013 3.50691 13.9961 3.51037V3.51208Z" fill="white"/>
<path fill-rule="evenodd" clip-rule="evenodd" d="M4.05175 9.60489C4.05175 9.60489 4.38967 9.74454 4.90689 9.92039C5.1655 10.01 5.46722 10.1083 5.79306 10.2083C6.11891 10.31 6.46889 10.4083 6.81715 10.5083C7.16887 10.6031 7.51885 10.6979 7.84987 10.779C8.18088 10.8617 8.49122 10.9324 8.75845 10.9893C9.2929 11.1048 9.65324 11.16 9.65324 11.16C9.75496 11.1755 9.82565 11.2721 9.81013 11.3738C9.79462 11.4755 9.69807 11.5462 9.59635 11.5307C9.58083 11.5289 9.56703 11.5238 9.55325 11.5186C9.55325 11.5186 9.21533 11.3789 8.69811 11.2048C8.4395 11.1152 8.13778 11.0169 7.81194 10.9169C7.48609 10.8152 7.13611 10.7169 6.78785 10.6169C6.43614 10.5221 6.08615 10.4273 5.75513 10.3462C5.42412 10.2635 5.11378 10.1928 4.84655 10.1359C4.3121 10.0204 3.95003 9.96522 3.95003 9.96522C3.84831 9.94969 3.77764 9.85314 3.79315 9.75142C3.80867 9.6497 3.90522 9.57903 4.00694 9.59454C4.02245 9.59626 4.03624 9.60144 4.05004 9.60662L4.05175 9.60489Z" fill="white"/>
<path fill-rule="evenodd" clip-rule="evenodd" d="M9.44284 11.2497C9.44284 11.2497 9.52043 11.1307 9.64972 10.9186C9.77732 10.7048 9.96523 10.4049 10.179 10.0376C10.3945 9.67213 10.6411 9.24111 10.9014 8.77734C11.1617 8.3153 11.4324 7.81704 11.7014 7.31879C11.9669 6.8188 12.2324 6.31883 12.4755 5.84643C12.7186 5.37404 12.941 4.93096 13.1272 4.54993C13.3151 4.16893 13.4616 3.84652 13.5702 3.6224C13.6754 3.39827 13.7323 3.26723 13.7323 3.26723C13.7737 3.17241 13.8841 3.12931 13.9789 3.17069C14.0736 3.21207 14.1167 3.32241 14.0754 3.41723C14.0719 3.42586 14.0668 3.4362 14.0616 3.44309C14.0616 3.44309 13.984 3.56205 13.8548 3.7741C13.7272 3.98789 13.5392 4.28788 13.3254 4.65511C13.1099 5.0206 12.8634 5.45163 12.603 5.91367C12.3427 6.37572 12.072 6.87398 11.8014 7.37223C11.5359 7.87221 11.2686 8.37219 11.0273 8.84459C10.7842 9.31697 10.5618 9.76005 10.3756 10.1411C10.1876 10.5221 10.0411 10.8445 9.9342 11.0686C9.82904 11.2928 9.77213 11.4238 9.77213 11.4238C9.73076 11.5186 9.62042 11.5617 9.5256 11.5203C9.43077 11.479 9.38767 11.3686 9.42905 11.2738C9.4325 11.2652 9.43767 11.2548 9.44284 11.2462V11.2497Z" fill="white"/>
<path fill-rule="evenodd" clip-rule="evenodd" d="M20.089 0.569122C20.089 0.569122 19.9889 0.605328 19.8149 0.672566C19.6424 0.743253 19.3942 0.838077 19.1011 0.962208C18.8079 1.08634 18.4666 1.23461 18.1045 1.40012C17.7408 1.56391 17.3581 1.74665 16.9753 1.9294C16.5943 2.11733 16.2133 2.30352 15.8599 2.48628C15.5064 2.6673 15.1772 2.84144 14.8978 2.99488C14.6168 3.1466 14.3892 3.28279 14.2272 3.37417C14.0668 3.46728 13.9754 3.52416 13.9754 3.52416C13.8875 3.57934 13.772 3.55175 13.7168 3.46382C13.6617 3.3759 13.6892 3.26039 13.7771 3.20522C13.7893 3.19832 13.8013 3.19142 13.8133 3.18797C13.8133 3.18797 13.9134 3.15177 14.0875 3.08453C14.2599 3.01385 14.5082 2.91902 14.8012 2.79489C15.0944 2.67076 15.4358 2.52248 15.7978 2.35697C16.1616 2.19319 16.5442 2.01044 16.927 1.82941C17.3081 1.64322 17.689 1.45701 18.0426 1.27254C18.3977 1.09151 18.7253 0.917383 19.0045 0.763941C19.2855 0.612224 19.5132 0.476022 19.6752 0.384647C19.8355 0.291548 19.9269 0.234654 19.9269 0.234654C20.0148 0.179484 20.1303 0.207069 20.1855 0.294996C20.2407 0.382923 20.2131 0.498435 20.1252 0.553605C20.1131 0.560501 20.101 0.567399 20.089 0.570846V0.569122Z" fill="white"/>
<path fill-rule="evenodd" clip-rule="evenodd" d="M9.57907 11.1531C9.57907 11.1531 9.74286 11.1411 10.0291 11.1117C10.3152 11.0807 10.7256 11.0428 11.2152 10.9842C11.7048 10.9273 12.2755 10.8566 12.8875 10.7756C13.4979 10.6962 14.1496 10.5997 14.7995 10.5049C15.4495 10.4049 16.0995 10.3066 16.7063 10.2049C17.3149 10.1049 17.8804 10.0066 18.3667 9.91698C18.8528 9.82904 19.2545 9.7463 19.5372 9.69285C19.82 9.63595 19.9803 9.60147 19.9803 9.60147C20.0803 9.57906 20.1803 9.64285 20.2027 9.74284C20.2251 9.84284 20.1614 9.94284 20.0614 9.96525C20.0528 9.96697 20.0442 9.96869 20.0355 9.96869C20.0355 9.96869 19.8717 9.98249 19.5856 10.0101C19.2993 10.0411 18.889 10.079 18.3993 10.1377C17.9097 10.1945 17.3391 10.2652 16.7271 10.3463C16.1167 10.4256 15.4651 10.5221 14.815 10.6152C14.1651 10.7152 13.5151 10.8135 12.9082 10.9152C12.2996 11.0152 11.7342 11.1135 11.248 11.2031C10.7618 11.2911 10.3601 11.3738 10.0773 11.4272C9.79457 11.4842 9.63424 11.5186 9.63424 11.5186C9.53424 11.541 9.43425 11.4773 9.41184 11.3773C9.38942 11.2773 9.45321 11.1773 9.55322 11.1548C9.56183 11.1531 9.57045 11.1514 9.57907 11.1514V11.1531Z" fill="white"/>
<path fill-rule="evenodd" clip-rule="evenodd" d="M19.8735 9.91348C19.8735 9.91348 19.7856 9.80488 19.6287 9.62039C19.47 9.43764 19.2476 9.1687 18.9717 8.85837C18.6976 8.54458 18.3735 8.18426 18.0218 7.80151C17.6719 7.41704 17.2909 7.01362 16.9098 6.61018C16.5254 6.2102 16.1427 5.81022 15.7754 5.44127C15.4098 5.0706 15.0667 4.72923 14.7668 4.43959C14.4703 4.14822 14.2133 3.91375 14.0393 3.74479C13.8617 3.57928 13.7583 3.48618 13.7583 3.48618C13.6806 3.41722 13.6737 3.29998 13.7427 3.22239C13.8117 3.14482 13.9289 3.13792 14.0065 3.20688C14.0133 3.21378 14.022 3.22239 14.0271 3.22929C14.0271 3.22929 14.1152 3.33791 14.2721 3.52238C14.4306 3.70513 14.653 3.97236 14.9289 4.28442C15.203 4.59647 15.5271 4.95853 15.8788 5.34127C16.2288 5.72573 16.6099 6.12917 16.9892 6.53261C17.3736 6.93259 17.7563 7.33257 18.1218 7.70152C18.4874 8.07219 18.8305 8.41355 19.1304 8.7032C19.4269 8.99456 19.6839 9.22903 19.858 9.398C20.0355 9.5635 20.139 9.65661 20.139 9.65661C20.2166 9.72557 20.2235 9.84281 20.1545 9.92038C20.0855 9.99797 19.9683 10.0049 19.8908 9.9359C19.8839 9.92901 19.8752 9.92038 19.87 9.91348H19.8735Z" fill="white"/>
<path fill-rule="evenodd" clip-rule="evenodd" d="M26.2576 3.4845C26.2576 3.4845 26.1542 3.57759 25.9766 3.74312C25.8007 3.91034 25.5456 4.14654 25.2491 4.43791C24.9508 4.72754 24.6059 5.06892 24.2405 5.43958C23.875 5.80853 23.4905 6.20853 23.1077 6.6085C22.7268 7.01193 22.3475 7.41536 21.9975 7.79983C21.6457 8.18258 21.3216 8.54463 21.0475 8.85667C20.7716 9.16874 20.5492 9.43596 20.3906 9.61872C20.2337 9.8032 20.1458 9.9118 20.1458 9.9118C20.0803 9.99284 19.9631 10.0049 19.8821 9.93939C19.801 9.87387 19.7889 9.75664 19.8544 9.67561C19.8614 9.66699 19.8683 9.66009 19.8752 9.6532C19.8752 9.6532 19.9786 9.5601 20.1562 9.39459C20.332 9.22564 20.5872 8.99115 20.8837 8.69979C21.182 8.41015 21.5267 8.06879 21.8923 7.69811C22.2578 7.32916 22.6422 6.92918 23.0267 6.5292C23.4077 6.12576 23.7871 5.72233 24.1387 5.33786C24.4904 4.95513 24.8145 4.59308 25.0886 4.28102C25.3645 3.96896 25.5869 3.70173 25.7456 3.51898C25.9025 3.33451 25.9904 3.22589 25.9904 3.22589C26.0559 3.14485 26.1731 3.1328 26.2541 3.19658C26.3351 3.26209 26.3473 3.37932 26.2834 3.46036C26.2765 3.46899 26.2696 3.47587 26.2627 3.48277L26.2576 3.4845Z" fill="white"/>
<path fill-rule="evenodd" clip-rule="evenodd" d="M20.0356 9.59974C20.0356 9.59974 20.196 9.63594 20.4786 9.69112C20.7614 9.74456 21.1649 9.82904 21.6494 9.91524C22.1337 10.0049 22.701 10.1032 23.3096 10.2032C23.9182 10.3049 24.5665 10.4032 25.2164 10.5031C25.8664 10.598 26.5181 10.6928 27.1284 10.7721C27.7388 10.8531 28.3094 10.9255 28.8007 10.9807C29.2904 11.0393 29.7007 11.0773 29.9869 11.1083C30.2731 11.1376 30.4369 11.1497 30.4369 11.1497C30.5403 11.1583 30.6162 11.2479 30.6093 11.3514C30.6007 11.4548 30.511 11.5307 30.4076 11.5221C30.3989 11.5221 30.3903 11.5203 30.3818 11.5186C30.3818 11.5186 30.2214 11.4824 29.9386 11.4272C29.6558 11.3738 29.2525 11.2893 28.768 11.2031C28.2835 11.1135 27.7164 11.0152 27.1078 10.9152C26.499 10.8135 25.8509 10.7135 25.2008 10.6152C24.5509 10.5204 23.9009 10.4256 23.2889 10.3445C22.6786 10.2618 22.1079 10.1911 21.6165 10.1359C21.1269 10.0773 20.7166 10.0411 20.4304 10.0083C20.1441 9.97903 19.9805 9.96696 19.9805 9.96696C19.8769 9.95835 19.8012 9.8687 19.8081 9.76525C19.8167 9.6618 19.9064 9.58595 20.0098 9.59284C20.0183 9.59284 20.0269 9.59457 20.0356 9.5963V9.59974Z" fill="white"/>
<path fill-rule="evenodd" clip-rule="evenodd" d="M30.2454 11.4255C30.2454 11.4255 30.1886 11.2945 30.0834 11.0704C29.9764 10.8462 29.8299 10.5239 29.642 10.1428C29.4558 9.76008 29.2334 9.317 28.9903 8.84633C28.7489 8.37393 28.4816 7.87396 28.2162 7.37398C27.9456 6.87573 27.6766 6.37919 27.4145 5.91542C27.1559 5.45165 26.9076 5.02236 26.692 4.65685C26.4783 4.28963 26.2905 3.98964 26.1629 3.77586C26.0335 3.5638 25.956 3.44484 25.956 3.44484C25.9008 3.35864 25.9249 3.24313 26.0111 3.18623C26.0974 3.13107 26.2128 3.1552 26.2697 3.2414C26.2749 3.25002 26.2801 3.25864 26.2834 3.26726C26.2834 3.26726 26.3404 3.39657 26.4456 3.62242C26.5524 3.84655 26.7007 4.16895 26.8887 4.54996C27.0749 4.93271 27.2973 5.37579 27.5403 5.84646C27.7818 6.31886 28.0472 6.81883 28.3145 7.31881C28.5851 7.81707 28.854 8.31531 29.1144 8.77737C29.373 9.24114 29.6195 9.67043 29.8368 10.0377C30.0506 10.4049 30.2385 10.7049 30.3661 10.9187C30.4954 11.1307 30.573 11.2497 30.573 11.2497C30.6299 11.3359 30.6041 11.4514 30.5178 11.5083C30.4316 11.5652 30.316 11.5393 30.2592 11.4531C30.2541 11.4445 30.2488 11.4359 30.2454 11.4255Z" fill="white"/>
<path fill-rule="evenodd" clip-rule="evenodd" d="M20.089 0.234623C20.089 0.234623 20.1786 0.291517 20.3407 0.384617C20.5027 0.475992 20.732 0.612193 21.0114 0.763911C21.2906 0.917353 21.6182 1.09148 21.9734 1.27251C22.3269 1.45526 22.7078 1.64145 23.0889 1.82938C23.4715 2.01213 23.8544 2.19489 24.2181 2.35695C24.5802 2.52246 24.9215 2.67073 25.2147 2.79486C25.5077 2.92071 25.756 3.01382 25.9283 3.08451C26.1008 3.15347 26.2024 3.18794 26.2024 3.18794C26.3007 3.22243 26.3507 3.32932 26.3163 3.42758C26.2818 3.52586 26.1749 3.57586 26.0766 3.54138C26.0646 3.5362 26.0508 3.53103 26.0404 3.52413C26.0404 3.52413 25.9491 3.46724 25.7887 3.37414C25.6267 3.28276 25.3974 3.14657 25.1181 2.99484C24.8388 2.84141 24.5112 2.66727 24.156 2.48625C23.8026 2.30351 23.4216 2.1173 23.0405 1.92937C22.6578 1.74663 22.275 1.56388 21.9112 1.40009C21.5492 1.23458 21.2079 1.08631 20.9148 0.962178C20.6217 0.836321 20.3735 0.743222 20.2011 0.672535C20.0286 0.603572 19.9269 0.569092 19.9269 0.569092C19.8286 0.53461 19.7787 0.427718 19.8131 0.329447C19.8475 0.231175 19.9545 0.181177 20.0528 0.215658C20.0648 0.22083 20.0786 0.226003 20.089 0.232899V0.234623Z" fill="white"/>
<path fill-rule="evenodd" clip-rule="evenodd" d="M29.8471 3.53451C29.8471 3.53451 29.6954 3.47762 29.43 3.38278C29.1627 3.29141 28.7834 3.15349 28.3231 3.00005C27.8645 2.84488 27.3266 2.67075 26.7508 2.48801C26.1749 2.30352 25.556 2.11733 24.9388 1.93113C24.3198 1.74838 23.7008 1.56563 23.1181 1.40356C22.5353 1.23978 21.9906 1.09151 21.5216 0.969099C21.0544 0.844967 20.6614 0.751867 20.3872 0.68118C20.1131 0.613942 19.9545 0.577737 19.9545 0.577737C19.8545 0.555325 19.7907 0.455329 19.8131 0.355333C19.8355 0.255337 19.9356 0.191547 20.0355 0.21396C20.0441 0.215684 20.0528 0.219132 20.0614 0.220856C20.0614 0.220856 20.213 0.27775 20.4785 0.372573C20.7457 0.46395 21.1251 0.601874 21.5854 0.753592C22.0441 0.908757 22.5819 1.08289 23.1578 1.26564C23.7336 1.45011 24.3526 1.63632 24.9697 1.82251C25.5887 2.00526 26.2077 2.18802 26.7903 2.35007C27.3731 2.51386 27.9179 2.66213 28.3868 2.78454C28.854 2.90867 29.2471 3.00176 29.5212 3.07245C29.7954 3.1397 29.954 3.1759 29.954 3.1759C30.0541 3.19832 30.1178 3.29831 30.0954 3.3983C30.073 3.49831 29.9731 3.56209 29.873 3.53968C29.8644 3.53795 29.8557 3.53451 29.8471 3.53278V3.53451Z" fill="white"/>
<path fill-rule="evenodd" clip-rule="evenodd" d="M13.8944 20.3718C13.8944 20.3718 13.7392 20.3597 13.4685 20.3458C13.1979 20.3356 12.8117 20.3114 12.3479 20.2959C11.8841 20.2786 11.3428 20.2648 10.7635 20.2562C10.1842 20.2459 9.56525 20.2441 8.94803 20.2408C8.3291 20.2441 7.71188 20.2459 7.1326 20.2562C6.55331 20.2648 6.01196 20.2786 5.54819 20.2959C5.08442 20.3114 4.69822 20.3338 4.42754 20.3458C4.15687 20.3597 4.0017 20.3718 4.0017 20.3718C3.89825 20.3786 3.8086 20.3028 3.8017 20.1993C3.79482 20.0959 3.87066 20.0062 3.97411 19.9993C3.98274 19.9993 3.99309 19.9993 4.0017 19.9993C4.0017 19.9993 4.15687 20.0114 4.42754 20.0253C4.69822 20.0355 5.08442 20.0597 5.54819 20.0752C6.01196 20.0925 6.55331 20.1063 7.1326 20.1148C7.71188 20.1252 8.33083 20.1287 8.94803 20.1303C9.56698 20.1287 10.1842 20.1269 10.7635 20.1148C11.3428 20.1063 11.8841 20.0925 12.3479 20.0752C12.8117 20.0614 13.1979 20.0373 13.4685 20.0253C13.7392 20.0114 13.8944 19.9993 13.8944 19.9993C13.9978 19.9924 14.0875 20.0683 14.0943 20.1718C14.1012 20.2752 14.0255 20.3649 13.9219 20.3718C13.9134 20.3718 13.903 20.3718 13.8944 20.3718Z" fill="white"/>
<path fill-rule="evenodd" clip-rule="evenodd" d="M36.0142 20.3718C36.0142 20.3718 35.859 20.3597 35.5883 20.3458C35.3177 20.3356 34.9315 20.3114 34.4677 20.2959C34.0038 20.2786 33.4625 20.2648 32.8832 20.2562C32.3039 20.2459 31.685 20.2441 31.0678 20.2408C30.4488 20.2441 29.8316 20.2459 29.2524 20.2562C28.6731 20.2648 28.1317 20.2786 27.668 20.2959C27.2041 20.3114 26.8179 20.3338 26.5473 20.3458C26.2766 20.3597 26.1214 20.3718 26.1214 20.3718C26.018 20.3786 25.9283 20.3028 25.9215 20.1993C25.9146 20.0959 25.9905 20.0062 26.0939 19.9993C26.1025 19.9993 26.1128 19.9993 26.1214 19.9993C26.1214 19.9993 26.2766 20.0114 26.5473 20.0253C26.8179 20.0355 27.2041 20.0597 27.668 20.0752C28.1317 20.0925 28.6731 20.1063 29.2524 20.1148C29.8316 20.1252 30.4506 20.1287 31.0678 20.1303C31.6868 20.1287 32.3039 20.1269 32.8832 20.1148C33.4625 20.1063 34.0038 20.0925 34.4677 20.0752C34.9315 20.0614 35.3177 20.0373 35.5883 20.0253C35.859 20.0114 36.0142 19.9993 36.0142 19.9993C36.1176 19.9924 36.2073 20.0683 36.2142 20.1718C36.2211 20.2752 36.1452 20.3649 36.0417 20.3718C36.0331 20.3718 36.0228 20.3718 36.0142 20.3718Z" fill="white"/>
<path fill-rule="evenodd" clip-rule="evenodd" d="M36.2005 9.78422C36.2005 9.78422 36.1883 9.94629 36.1745 10.2308C36.1643 10.5152 36.1401 10.9221 36.1246 11.4083C36.1073 11.8962 36.0935 12.4651 36.0849 13.0737C36.0746 13.6824 36.0728 14.334 36.0693 14.9841C36.0728 15.634 36.0746 16.2839 36.0849 16.8942C36.0935 17.5046 36.1073 18.0719 36.1246 18.5597C36.1401 19.0476 36.1625 19.4528 36.1728 19.7372C36.1865 20.0217 36.1987 20.1838 36.1987 20.1838C36.2056 20.2872 36.1279 20.3769 36.0245 20.3837C35.9211 20.3906 35.8314 20.3131 35.8245 20.2097C35.8245 20.201 35.8245 20.1924 35.8245 20.1838C35.8245 20.1838 35.8367 20.0217 35.8505 19.7372C35.8607 19.4528 35.8849 19.0458 35.9004 18.5597C35.9177 18.0719 35.9315 17.5028 35.9401 16.8942C35.9504 16.2856 35.9539 15.634 35.9556 14.9841C35.9539 14.334 35.9521 13.6841 35.9401 13.0737C35.9315 12.4634 35.9177 11.8962 35.9004 11.4083C35.8866 10.9204 35.8625 10.5152 35.8505 10.2308C35.8367 9.94629 35.8245 9.78422 35.8245 9.78422C35.8176 9.68078 35.8953 9.59113 35.997 9.58423C36.0986 9.57734 36.1901 9.65492 36.1969 9.75664C36.1969 9.76526 36.1969 9.77561 36.1969 9.78249L36.2005 9.78422Z" fill="white"/>
<path fill-rule="evenodd" clip-rule="evenodd" d="M35.8573 20.2854C35.8573 20.2854 35.7797 20.1407 35.6383 19.8923C35.4953 19.6441 35.2953 19.2855 35.0452 18.8631C34.797 18.439 34.5021 17.9476 34.1815 17.4253C33.8626 16.9011 33.5144 16.3477 33.166 15.7926C32.8143 15.2409 32.4608 14.6891 32.123 14.1771C31.7867 13.6634 31.4678 13.1875 31.1919 12.7806C30.9161 12.3738 30.6783 12.041 30.5161 11.8048C30.3507 11.5703 30.2541 11.4376 30.2541 11.4376C30.1938 11.3548 30.2109 11.2376 30.2937 11.1755C30.3765 11.1152 30.4937 11.1324 30.5558 11.2152C30.5609 11.2221 30.5662 11.2307 30.5696 11.2376C30.5696 11.2376 30.6472 11.3824 30.7886 11.6307C30.9316 11.879 31.1316 12.2375 31.3817 12.66C31.6298 13.0841 31.9248 13.5754 32.2453 14.0978C32.5643 14.6219 32.9126 15.1754 33.2609 15.7305C33.6125 16.2822 33.9643 16.8339 34.3021 17.3459C34.6384 17.8597 34.9573 18.3355 35.2332 18.7424C35.5073 19.1494 35.747 19.4821 35.9108 19.7183C36.0762 19.9527 36.1727 20.0854 36.1727 20.0854C36.2349 20.1682 36.2159 20.2854 36.1332 20.3475C36.0504 20.4096 35.9332 20.3906 35.8711 20.3078C35.8659 20.3009 35.8607 20.2924 35.8573 20.2854Z" fill="white"/>
<path fill-rule="evenodd" clip-rule="evenodd" d="M30.3592 11.1583C30.3592 11.1583 30.7213 11.1031 31.2557 10.9876C31.5229 10.9307 31.8333 10.86 32.1642 10.7772C32.4953 10.6962 32.8469 10.6014 33.1969 10.5066C33.547 10.4066 33.897 10.3083 34.221 10.2066C34.547 10.1066 34.8504 10.0083 35.1073 9.91866C35.6244 9.7428 35.9624 9.60488 35.9624 9.60488C36.059 9.56522 36.1675 9.61178 36.2072 9.7066C36.2469 9.80315 36.2003 9.91176 36.1055 9.95141C36.0916 9.95659 36.0762 9.96176 36.0623 9.96349C36.0623 9.96349 35.7003 10.0186 35.1676 10.1342C34.9004 10.1911 34.5901 10.2617 34.259 10.3445C33.928 10.4255 33.5763 10.5204 33.2262 10.6152C32.8764 10.7152 32.5264 10.8134 32.2022 10.9152C31.8763 11.0152 31.5729 11.1134 31.3161 11.2031C30.7988 11.3789 30.4609 11.5186 30.4609 11.5186C30.3644 11.5582 30.2558 11.5117 30.2161 11.4169C30.1764 11.3203 30.223 11.2117 30.3178 11.1721C30.3316 11.1669 30.3471 11.1617 30.3609 11.16L30.3592 11.1583Z" fill="white"/>
<path fill-rule="evenodd" clip-rule="evenodd" d="M36.0141 19.9992C36.0141 19.9992 36.2503 20.0423 36.6037 20.0734C36.7813 20.0907 36.9883 20.1044 37.2089 20.1131C37.4296 20.1233 37.6657 20.1251 37.902 20.1286C38.1382 20.1251 38.3744 20.1233 38.595 20.1131C38.8157 20.1044 39.0227 20.0907 39.2002 20.0734C39.5536 20.0423 39.7898 19.9992 39.7898 19.9992C39.8932 19.9803 39.9915 20.0476 40.0106 20.151C40.0295 20.2545 39.9605 20.3526 39.8588 20.3717C39.8364 20.375 39.8122 20.375 39.7898 20.3717C39.7898 20.3717 39.5536 20.3286 39.2002 20.2975C39.0227 20.2802 38.8157 20.2665 38.595 20.2578C38.3744 20.2476 38.1382 20.2441 37.902 20.2423C37.6657 20.2458 37.4296 20.2458 37.2089 20.2578C36.9883 20.2665 36.7813 20.2802 36.6037 20.2975C36.2503 20.3286 36.0141 20.3717 36.0141 20.3717C35.9107 20.3906 35.8124 20.3233 35.7935 20.2199C35.7745 20.1164 35.8417 20.0181 35.9451 19.9992C35.9693 19.9941 35.9917 19.9957 36.0141 19.9992Z" fill="white"/>
<path fill-rule="evenodd" clip-rule="evenodd" d="M39.6174 20.2493C39.6174 20.2493 39.5674 20.0837 39.4795 19.7941C39.3865 19.5062 39.2622 19.0907 39.0984 18.5993C38.9364 18.1063 38.7433 17.5321 38.5313 16.9202C38.3209 16.3063 38.0865 15.6564 37.852 15.0047C37.614 14.3547 37.3745 13.7065 37.1434 13.1013C36.9142 12.4945 36.6934 11.9307 36.5003 11.4497C36.3089 10.9669 36.14 10.5687 36.0262 10.2876C35.9072 10.0083 35.84 9.84974 35.84 9.84974C35.8004 9.75492 35.8435 9.64457 35.9383 9.60492C36.0331 9.56526 36.1434 9.60837 36.1831 9.70319C36.1849 9.70836 36.1882 9.71526 36.19 9.72216C36.19 9.72216 36.2399 9.88767 36.328 10.1773C36.421 10.4652 36.5469 10.879 36.7089 11.3721C36.871 11.8652 37.0641 12.4393 37.2762 13.0513C37.4866 13.6651 37.721 14.3151 37.9554 14.9668C38.1933 15.6167 38.4313 16.265 38.664 16.8718C38.8933 17.4787 39.114 18.0424 39.3071 18.5235C39.4986 19.0063 39.6675 19.4045 39.7812 19.6855C39.9001 19.9648 39.9674 20.1234 39.9674 20.1234C40.0071 20.2182 39.964 20.3285 39.8692 20.3682C39.7743 20.4079 39.664 20.3649 39.6244 20.2699C39.6226 20.263 39.6191 20.2579 39.6174 20.251V20.2493Z" fill="white"/>
<path fill-rule="evenodd" clip-rule="evenodd" d="M39.6158 20.2441C39.6158 20.2441 39.5812 20.1027 39.5123 19.8561C39.4416 19.6113 39.3485 19.258 39.2243 18.8389C39.102 18.4183 38.9537 17.9304 38.7882 17.4098C38.6261 16.8873 38.4417 16.334 38.2606 15.7805C38.0726 15.2289 37.8865 14.6754 37.7037 14.1616C37.521 13.6461 37.3468 13.1668 37.1934 12.7565C37.0416 12.3462 36.9038 12.0082 36.8124 11.7703C36.7193 11.5324 36.6623 11.3979 36.6623 11.3979C36.6228 11.3031 36.6658 11.1928 36.7624 11.1531C36.8572 11.1135 36.9675 11.1566 37.0072 11.2531C37.0107 11.2617 37.0141 11.2721 37.0159 11.2807C37.0159 11.2807 37.052 11.4221 37.1193 11.6686C37.1899 11.9134 37.2831 12.2669 37.4072 12.6858C37.5297 13.1065 37.6779 13.5944 37.8417 14.1151C38.0037 14.6374 38.1864 15.1909 38.3693 15.7443C38.5571 16.296 38.7433 16.8494 38.9262 17.3632C39.1071 17.8787 39.2829 18.358 39.4364 18.7683C39.5881 19.1787 39.7261 19.5165 39.8174 19.7545C39.9105 19.9924 39.9691 20.1269 39.9691 20.1269C40.0088 20.2217 39.9656 20.332 39.8708 20.3717C39.7761 20.4114 39.6657 20.3682 39.626 20.2734C39.6227 20.2648 39.6191 20.2545 39.6174 20.2458L39.6158 20.2441Z" fill="white"/>
<path fill-rule="evenodd" clip-rule="evenodd" d="M36.6727 11.4255C36.6727 11.4255 36.6607 11.3083 36.6106 11.1479C36.5624 10.9876 36.4796 10.7824 36.3762 10.5876C36.2745 10.3928 36.1503 10.21 36.0435 10.079C35.9383 9.94798 35.8486 9.87039 35.8486 9.87039C35.7641 9.79799 35.7538 9.67212 35.8262 9.58765C35.8986 9.50317 36.0244 9.49283 36.109 9.56523C36.1487 9.59972 36.1727 9.64626 36.178 9.69627C36.178 9.69627 36.1918 9.8135 36.2417 9.97384C36.2901 10.1342 36.3727 10.3393 36.4761 10.5342C36.578 10.729 36.702 10.9117 36.809 11.0428C36.914 11.1738 37.0037 11.2496 37.0037 11.2496C37.0882 11.3221 37.0986 11.4479 37.0279 11.5324C36.9555 11.6169 36.8296 11.6272 36.7451 11.5565C36.7038 11.522 36.6814 11.4738 36.6761 11.4255H36.6727Z" fill="white"/>
<path fill-rule="evenodd" clip-rule="evenodd" d="M36.2004 20.1682C36.2004 20.1682 36.2004 20.3078 36.2107 20.551C36.2228 20.7941 36.2313 21.1423 36.2555 21.5578C36.2779 21.9733 36.309 22.4596 36.3469 22.9785C36.3849 23.4974 36.4331 24.0508 36.4832 24.6043C36.5365 25.1576 36.59 25.7094 36.6503 26.2266C36.7072 26.7439 36.7658 27.2266 36.8228 27.6404C36.8763 28.0541 36.9314 28.3972 36.9642 28.6385C37.0004 28.8799 37.0245 29.0161 37.0245 29.0161C37.0417 29.1179 36.9744 29.2144 36.8727 29.2333C36.7711 29.2506 36.6745 29.1834 36.6555 29.0817C36.6539 29.0713 36.6521 29.0609 36.6521 29.0506C36.6521 29.0506 36.6521 28.911 36.6417 28.6678C36.6297 28.4248 36.621 28.0765 36.5969 27.661C36.5745 27.2455 36.5434 26.7593 36.5056 26.2403C36.4677 25.7214 36.4193 25.168 36.3693 24.6145C36.3159 24.0612 36.2624 23.5094 36.202 22.9923C36.1452 22.4751 36.0866 21.9923 36.0297 21.5785C35.9763 21.1647 35.921 20.8216 35.8866 20.5803C35.8504 20.3389 35.8262 20.2028 35.8262 20.2028C35.8073 20.1009 35.8762 20.0044 35.978 19.9855C36.0797 19.9682 36.1762 20.0355 36.1952 20.1371C36.1969 20.1475 36.1987 20.1579 36.1987 20.1682H36.2004Z" fill="white"/>
<path fill-rule="evenodd" clip-rule="evenodd" d="M36.6608 28.9747C36.6608 28.9747 36.7176 28.8403 36.8124 28.6023C36.9038 28.3644 37.0417 28.0265 37.1935 27.6162C37.3486 27.2076 37.5227 26.7266 37.7038 26.211C37.8882 25.6956 38.0744 25.1439 38.2606 24.5921C38.4433 24.0388 38.6262 23.4853 38.7882 22.963C38.952 22.4423 39.1003 21.9527 39.2226 21.5336C39.3468 21.1148 39.4399 20.7613 39.5106 20.5164C39.5779 20.2699 39.6141 20.1285 39.6141 20.1285C39.6382 20.0286 39.7399 19.9682 39.8398 19.9924C39.9399 20.0164 40.0003 20.1182 39.9761 20.2182C39.9743 20.2268 39.971 20.2372 39.9675 20.2458C39.9675 20.2458 39.9106 20.3803 39.8174 20.6181C39.7262 20.8561 39.5881 21.194 39.4365 21.6044C39.2814 22.013 39.1072 22.494 38.9261 23.0094C38.7434 23.525 38.5554 24.0767 38.3692 24.6283C38.1865 25.1818 38.0038 25.7352 37.8418 26.2576C37.678 26.7783 37.5297 27.2679 37.4055 27.6868C37.2814 28.1058 37.1884 28.4592 37.1176 28.704C37.0504 28.9506 37.0142 29.092 37.0142 29.092C36.99 29.192 36.8883 29.254 36.7882 29.2282C36.6883 29.204 36.6262 29.1024 36.6521 29.0023C36.6539 28.9936 36.6573 28.9834 36.6608 28.9747Z" fill="white"/>
<path fill-rule="evenodd" clip-rule="evenodd" d="M20.1701 9.87903C20.1701 9.87903 20.0666 10.0377 19.8855 10.3135C19.7097 10.5928 19.4476 10.9859 19.1511 11.4669C18.8546 11.9479 18.5012 12.5065 18.1357 13.1117C17.7685 13.715 17.3839 14.3651 16.9995 15.0132C16.6202 15.665 16.2393 16.3167 15.8909 16.9304C15.5392 17.5443 15.2237 18.1234 14.9478 18.6166C14.6721 19.1097 14.4548 19.5286 14.2961 19.8182C14.1427 20.1114 14.0548 20.2786 14.0548 20.2786C14.0065 20.37 13.8944 20.4044 13.8031 20.358C13.7117 20.3096 13.6773 20.1975 13.7237 20.1061C13.7272 20.101 13.729 20.0959 13.7324 20.0907C13.7324 20.0907 13.8358 19.9321 14.0169 19.6562C14.1927 19.377 14.453 18.9839 14.7513 18.5027C15.0479 18.0218 15.4012 17.4631 15.7668 16.8581C16.1341 16.2546 16.5185 15.6047 16.9029 14.9564C17.2822 14.3047 17.6633 13.6547 18.0116 13.0393C18.3632 12.4255 18.6788 11.8462 18.9546 11.3531C19.2305 10.86 19.4476 10.4411 19.6063 10.1497C19.7597 9.85662 19.8476 9.68939 19.8476 9.68939C19.8959 9.59802 20.008 9.56353 20.0994 9.61009C20.1907 9.65836 20.2253 9.77043 20.1787 9.86179C20.1752 9.86698 20.1736 9.87215 20.1701 9.87732V9.87903Z" fill="white"/>
<path fill-rule="evenodd" clip-rule="evenodd" d="M13.7272 20.2665C13.7272 20.2665 13.6703 20.1234 13.5651 19.8752C13.4582 19.6286 13.3116 19.2718 13.1237 18.851C12.9375 18.4286 12.7168 17.939 12.4738 17.4167C12.2324 16.8942 11.9669 16.3391 11.6996 15.7856C11.429 15.234 11.16 14.6823 10.898 14.1685C10.6376 13.6547 10.3911 13.1772 10.1756 12.7686C9.96179 12.36 9.77215 12.0255 9.64629 11.7876C9.51698 11.5514 9.4394 11.4186 9.4394 11.4186C9.38769 11.329 9.41872 11.2152 9.50664 11.1635C9.5963 11.1117 9.71008 11.1428 9.76181 11.2307C9.76698 11.2376 9.77042 11.2479 9.77387 11.2548C9.77387 11.2548 9.83077 11.3979 9.93593 11.6462C10.0428 11.8927 10.1894 12.2496 10.3773 12.6703C10.5635 13.0927 10.7859 13.5823 11.0273 14.1047C11.2686 14.627 11.5341 15.1823 11.7996 15.7357C12.0703 16.2874 12.3393 16.8391 12.6013 17.3528C12.8599 17.8666 13.1082 18.346 13.3237 18.7528C13.5374 19.1614 13.7272 19.4959 13.8548 19.7338C13.984 19.97 14.0616 20.1027 14.0616 20.1027C14.1134 20.1924 14.0841 20.3061 13.9944 20.358C13.9047 20.4097 13.7909 20.3804 13.7392 20.2907C13.7341 20.2821 13.7305 20.2734 13.7272 20.2648V20.2665Z" fill="white"/>
<path fill-rule="evenodd" clip-rule="evenodd" d="M13.8944 19.9993C13.8944 19.9993 14.0858 20.0079 14.4202 20.025C14.7547 20.0354 15.2323 20.0612 15.8047 20.0734C16.3771 20.0854 17.0461 20.1078 17.7632 20.1147C18.4804 20.1251 19.2443 20.1269 20.008 20.1302C20.7718 20.1269 21.5355 20.1251 22.2527 20.1147C22.97 20.1061 23.6372 20.0854 24.2113 20.0734C24.7836 20.0612 25.2612 20.0354 25.5957 20.025C25.9301 20.0095 26.1215 19.9993 26.1215 19.9993C26.2249 19.9941 26.3112 20.0734 26.3163 20.1768C26.3215 20.2803 26.2422 20.3664 26.1388 20.3717C26.1336 20.3717 26.1267 20.3717 26.1215 20.3717C26.1215 20.3717 25.9301 20.363 25.5957 20.3458C25.2612 20.3355 24.7836 20.3096 24.2113 20.2975C23.6389 20.2854 22.97 20.2647 22.2527 20.2561C21.5355 20.2458 20.7718 20.2423 20.008 20.2406C19.2443 20.2441 18.4788 20.2441 17.7632 20.2561C17.0461 20.263 16.3789 20.2854 15.8047 20.2975C15.2323 20.3096 14.7547 20.3355 14.4202 20.3458C14.0858 20.3613 13.8944 20.3717 13.8944 20.3717C13.791 20.3768 13.7048 20.2975 13.6996 20.1941C13.6944 20.0907 13.7737 20.0044 13.8773 19.9993C13.8824 19.9993 13.8893 19.9993 13.8944 19.9993Z" fill="white"/>
<path fill-rule="evenodd" clip-rule="evenodd" d="M25.9612 20.2803C25.9612 20.2803 25.8733 20.1131 25.7197 19.82C25.5612 19.5303 25.3457 19.1115 25.0681 18.6166C24.7906 18.1236 24.4768 17.5425 24.125 16.9304C23.7768 16.3149 23.3957 15.665 23.0164 15.0134C22.6319 14.3651 22.2475 13.715 21.8804 13.1117C21.5148 12.5065 21.1613 11.9479 20.8648 11.4669C20.5682 10.9859 20.3079 10.5911 20.1303 10.3135C19.9494 10.0377 19.846 9.87905 19.846 9.87905C19.789 9.79284 19.8131 9.67734 19.8993 9.62043C19.9856 9.56354 20.101 9.58767 20.158 9.67388C20.1614 9.67905 20.1649 9.68422 20.1665 9.68939C20.1665 9.68939 20.2546 9.85663 20.408 10.1497C20.5666 10.4394 20.7838 10.8583 21.0596 11.3514C21.3355 11.8445 21.6527 12.4238 22.0027 13.0375C22.3509 13.653 22.732 14.303 23.1113 14.9546C23.4957 15.6029 23.8784 16.253 24.2475 16.8563C24.6129 17.4615 24.9664 18.0201 25.2629 18.5011C25.5595 18.9821 25.8198 19.3752 25.9974 19.6544C26.1784 19.9303 26.2819 20.089 26.2819 20.089C26.3387 20.1751 26.3146 20.2907 26.2284 20.3476C26.1421 20.4044 26.0267 20.3804 25.9698 20.2941C25.9663 20.2889 25.9629 20.2838 25.9612 20.2785V20.2803Z" fill="white"/>
<path fill-rule="evenodd" clip-rule="evenodd" d="M25.9542 20.1044C25.9542 20.1044 26.0318 19.9717 26.1611 19.7355C26.2887 19.4992 26.4767 19.1631 26.6921 18.7545C26.9076 18.3477 27.1559 17.8701 27.4145 17.3545C27.6748 16.8407 27.9456 16.2891 28.2162 15.7374C28.4817 15.184 28.7473 14.6287 28.9886 14.1064C29.2316 13.584 29.454 13.0944 29.6386 12.672C29.8264 12.2513 29.9731 11.8944 30.0799 11.6479C30.1851 11.3996 30.2419 11.2565 30.2419 11.2565C30.2799 11.16 30.3886 11.1134 30.4851 11.1514C30.5817 11.1893 30.6281 11.2979 30.5902 11.3945C30.5868 11.4031 30.5833 11.4117 30.5782 11.4186C30.5782 11.4186 30.5005 11.5514 30.3713 11.7876C30.2437 12.0255 30.0557 12.3599 29.842 12.7685C29.6265 13.1754 29.3783 13.653 29.1195 14.1684C28.8593 14.6822 28.5886 15.234 28.3179 15.7857C28.0524 16.3391 27.7852 16.8942 27.5438 17.4166C27.3007 17.9391 27.0783 18.4287 26.8938 18.8511C26.706 19.2717 26.5593 19.6286 26.4525 19.8752C26.3473 20.1234 26.2905 20.2665 26.2905 20.2665C26.2525 20.363 26.1438 20.4096 26.0473 20.3717C25.9507 20.3337 25.9043 20.2252 25.9421 20.1286C25.9456 20.12 25.9507 20.1113 25.9542 20.1027V20.1044Z" fill="white"/>
<path fill-rule="evenodd" clip-rule="evenodd" d="M14.0479 20.0803C14.0479 20.0803 14.1358 20.2234 14.2892 20.4751C14.4479 20.7233 14.6667 21.082 14.9409 21.5061C15.2134 21.9302 15.5357 22.4216 15.8874 22.9457C16.2357 23.4697 16.6167 24.025 16.9977 24.5784C17.3821 25.1301 17.7667 25.6817 18.1338 26.1939C18.4994 26.7076 18.8459 27.1834 19.1459 27.5886C19.4442 27.9955 19.7028 28.3265 19.8786 28.5626C20.0597 28.7954 20.1614 28.9282 20.1614 28.9282C20.2251 29.0092 20.2097 29.1264 20.1285 29.1903C20.0475 29.254 19.9303 29.2385 19.8666 29.1575C19.8631 29.1523 19.8579 29.1472 19.8544 29.1403C19.8544 29.1403 19.7665 28.9972 19.6131 28.7455C19.4545 28.4971 19.2356 28.1386 18.9615 27.7145C18.689 27.2904 18.3649 26.799 18.0149 26.2749C17.6649 25.7507 17.2856 25.1956 16.9064 24.6422C16.5218 24.0905 16.1391 23.5387 15.7719 23.0267C15.4065 22.5129 15.0598 22.0371 14.7599 21.632C14.4616 21.2251 14.203 20.894 14.0271 20.6578C13.8462 20.4252 13.7443 20.2923 13.7443 20.2923C13.6806 20.2113 13.6961 20.0941 13.7772 20.0303C13.8582 19.9665 13.9754 19.982 14.0392 20.063C14.0426 20.0683 14.0479 20.0734 14.0513 20.0803H14.0479Z" fill="white"/>
<path fill-rule="evenodd" clip-rule="evenodd" d="M19.8545 28.9281C19.8545 28.9281 19.9579 28.7954 20.1372 28.5626C20.3132 28.3264 20.5718 27.9954 20.87 27.5886C21.1699 27.1834 21.5166 26.7075 21.882 26.1938C22.2493 25.6818 22.6319 25.1301 23.0164 24.5783C23.3957 24.0232 23.7768 23.4697 24.125 22.9456C24.475 22.4216 24.7991 21.9302 25.0716 21.5061C25.3457 21.0837 25.5663 20.7233 25.7232 20.4751C25.8766 20.2234 25.9645 20.0802 25.9645 20.0802C26.018 19.9923 26.1336 19.9648 26.2215 20.0181C26.3094 20.0716 26.337 20.1872 26.2835 20.2751C26.2801 20.2802 26.2766 20.2871 26.2715 20.2922C26.2715 20.2922 26.168 20.4251 25.9887 20.6578C25.8129 20.894 25.5543 21.2251 25.256 21.6319C24.956 22.037 24.6095 22.5129 24.244 23.0267C23.8768 23.5387 23.4922 24.0904 23.1078 24.6422C22.7285 25.1973 22.3476 25.7507 21.9976 26.2749C21.6476 26.7989 21.3235 27.2903 21.051 27.7144C20.7769 28.1368 20.558 28.4971 20.3993 28.7454C20.2459 28.9971 20.158 29.1403 20.158 29.1403C20.1045 29.2282 19.989 29.2557 19.901 29.2022C19.8131 29.1488 19.7856 29.0333 19.8389 28.9454C19.8424 28.9403 19.846 28.9334 19.8511 28.9281H19.8545Z" fill="white"/>
<path fill-rule="evenodd" clip-rule="evenodd" d="M4.17756 9.84799C4.17756 9.84799 4.11032 10.0066 3.99136 10.2859C3.87757 10.5669 3.70689 10.9652 3.51725 11.4479C3.32415 11.9289 3.1052 12.4944 2.87417 13.0996C2.64314 13.7048 2.40523 14.3547 2.16559 15.0047C1.93283 15.6564 1.69836 16.3063 1.48631 16.9201C1.27424 17.5321 1.07942 18.1063 0.919082 18.5994C0.755296 19.0924 0.629439 19.5062 0.538064 19.7942C0.450136 20.0838 0.400139 20.2492 0.400139 20.2492C0.37083 20.3475 0.265662 20.4028 0.16739 20.3735C0.0691188 20.3442 0.0139487 20.239 0.0432578 20.1407C0.0449819 20.1338 0.046706 20.1287 0.050154 20.1216C0.050154 20.1216 0.117392 19.9631 0.236353 19.6837C0.350141 19.4027 0.5191 19.0045 0.710471 18.5218C0.903566 18.0408 1.12252 17.4753 1.35354 16.87C1.58457 16.265 1.82421 15.6151 2.06214 14.9668C2.29661 14.3151 2.53108 13.6651 2.74142 13.0513C2.9552 12.4393 3.1483 11.8652 3.30864 11.3721C3.47242 10.879 3.59655 10.4652 3.68966 10.1773C3.77758 9.88765 3.82758 9.72214 3.82758 9.72214C3.85688 9.62387 3.96206 9.56869 4.06032 9.59801C4.1586 9.62732 4.21377 9.73249 4.18446 9.83076C4.18273 9.83765 4.18101 9.84282 4.17756 9.84972V9.84799Z" fill="white"/>
<path fill-rule="evenodd" clip-rule="evenodd" d="M0.0485524 20.1269C0.0485524 20.1269 0.105447 19.9924 0.20027 19.7545C0.291646 19.5166 0.42957 19.1786 0.581288 18.7683C0.736453 18.3597 0.910584 17.8787 1.09161 17.3632C1.27436 16.8476 1.46228 16.296 1.64848 15.7443C1.83123 15.1909 2.01399 14.6374 2.17605 14.115C2.33983 13.5944 2.4881 13.1048 2.61223 12.6858C2.73637 12.2668 2.82947 11.9134 2.90015 11.6686C2.9674 11.4221 3.0036 11.2807 3.0036 11.2807C3.02773 11.1807 3.12945 11.1186 3.22945 11.1445C3.32944 11.1686 3.39151 11.2703 3.36565 11.3703C3.36393 11.379 3.36048 11.3893 3.35703 11.3979C3.35703 11.3979 3.30014 11.5324 3.20531 11.7703C3.11393 12.0082 2.97601 12.3462 2.82429 12.7565C2.66912 13.1651 2.495 13.6461 2.31397 14.1616C2.13122 14.6771 1.9433 15.2287 1.7571 15.7805C1.57435 16.334 1.39159 16.8873 1.22954 17.4098C1.06575 17.9305 0.917481 18.4201 0.793348 18.839C0.669215 19.258 0.576116 19.6113 0.505429 19.8562C0.438191 20.1027 0.401986 20.2441 0.401986 20.2441C0.377849 20.344 0.276129 20.4061 0.176133 20.3804C0.0761375 20.3562 0.0140712 20.2544 0.0399322 20.1544C0.0416561 20.1458 0.0451043 20.1355 0.0485524 20.1269Z" fill="white"/>
<path fill-rule="evenodd" clip-rule="evenodd" d="M0.224367 19.9992C0.224367 19.9992 0.460564 20.0423 0.813997 20.0734C0.991575 20.0907 1.19846 20.1044 1.41914 20.1131C1.63982 20.1233 1.87602 20.1251 2.11222 20.1286C2.34842 20.1251 2.58462 20.1233 2.80529 20.1131C3.02597 20.1044 3.23285 20.0907 3.41043 20.0734C3.76387 20.0423 4.00007 19.9992 4.00007 19.9992C4.10352 19.9803 4.20178 20.0476 4.22075 20.151C4.23971 20.2545 4.17075 20.3526 4.06903 20.3717C4.04661 20.375 4.02248 20.375 4.00007 20.3717C4.00007 20.3717 3.76387 20.3286 3.41043 20.2975C3.23285 20.2802 3.02597 20.2665 2.80529 20.2578C2.58462 20.2476 2.34842 20.2441 2.11222 20.2423C1.87602 20.2458 1.63982 20.2458 1.41914 20.2578C1.19846 20.2665 0.991575 20.2802 0.813997 20.2975C0.460564 20.3286 0.224367 20.3717 0.224367 20.3717C0.120924 20.3906 0.0226521 20.3233 0.00368741 20.2199C-0.0152773 20.1164 0.0519612 20.0181 0.155404 19.9992C0.179541 19.9941 0.201954 19.9957 0.224367 19.9992Z" fill="white"/>
<path fill-rule="evenodd" clip-rule="evenodd" d="M3.81555 20.1855C3.81555 20.1855 3.82762 20.0235 3.84141 19.739C3.85175 19.4544 3.8759 19.0476 3.89141 18.5615C3.90864 18.0735 3.92244 17.5046 3.93106 16.896C3.9414 16.2874 3.94313 15.6357 3.94657 14.9857C3.94313 14.3358 3.9414 13.6857 3.93106 13.0754C3.92244 12.4651 3.90864 11.8979 3.89141 11.41C3.87761 10.9221 3.85348 10.5169 3.84314 10.2325C3.82934 9.948 3.81728 9.78593 3.81728 9.78593C3.81038 9.68248 3.88796 9.59284 3.9914 9.58594C4.09485 9.57905 4.1845 9.65663 4.1914 9.76007C4.1914 9.76869 4.1914 9.77732 4.1914 9.78593C4.1914 9.78593 4.17933 9.948 4.16553 10.2325C4.15519 10.5169 4.13106 10.9238 4.11554 11.41C4.0983 11.8979 4.08451 12.4669 4.07588 13.0754C4.06554 13.6841 4.06209 14.3358 4.06037 14.9857C4.06209 15.6357 4.06381 16.2856 4.07588 16.896C4.08451 17.5063 4.0983 18.0735 4.11554 18.5615C4.12933 19.0493 4.15347 19.4544 4.16553 19.739C4.17933 20.0235 4.1914 20.1855 4.1914 20.1855C4.19829 20.2889 4.12071 20.3786 4.01899 20.3855C3.91554 20.3924 3.8259 20.3147 3.81899 20.2131C3.81899 20.2044 3.81899 20.1942 3.81899 20.1873L3.81555 20.1855Z" fill="white"/>
<path fill-rule="evenodd" clip-rule="evenodd" d="M3.84484 20.0854C3.84484 20.0854 3.94139 19.9527 4.1069 19.7183C4.26896 19.4821 4.50861 19.1493 4.78445 18.7424C5.06202 18.3373 5.37925 17.8597 5.71544 17.3459C6.05336 16.8339 6.40507 16.2823 6.75677 15.7305C7.10504 15.1754 7.4533 14.6219 7.77226 14.0978C8.09293 13.5737 8.38775 13.0823 8.63601 12.6599C8.88599 12.2375 9.08599 11.8789 9.22908 11.6307C9.37046 11.3807 9.44804 11.2376 9.44804 11.2376C9.49631 11.1462 9.61011 11.1135 9.70148 11.1617C9.79286 11.21 9.82562 11.3238 9.77734 11.4152C9.77389 11.4221 9.76871 11.4307 9.76354 11.4376C9.76354 11.4376 9.66699 11.5703 9.50148 11.8048C9.33943 12.041 9.09978 12.3738 8.82566 12.7806C8.54809 13.1858 8.23086 13.6634 7.89467 14.1771C7.55675 14.6891 7.20504 15.2409 6.85161 15.7926C6.50335 16.3477 6.15508 16.9011 5.83614 17.4253C5.51545 17.9494 5.22064 18.4407 4.97237 18.8631C4.72239 19.2855 4.52239 19.6442 4.3793 19.8923C4.23792 20.1424 4.16034 20.2854 4.16034 20.2854C4.11207 20.3768 3.99828 20.4097 3.9069 20.3613C3.81552 20.3131 3.78277 20.1993 3.83104 20.1079C3.8345 20.101 3.83967 20.0923 3.84484 20.0854Z" fill="white"/>
<path fill-rule="evenodd" clip-rule="evenodd" d="M0.401956 20.1269C0.401956 20.1269 0.436436 20.2683 0.505399 20.5149C0.576086 20.7597 0.669185 21.1131 0.793318 21.5321C0.915726 21.9527 1.064 22.4406 1.22951 22.9613C1.39157 23.4837 1.57604 24.0371 1.75707 24.5906C1.94499 25.1422 2.13119 25.6957 2.31394 26.2095C2.49669 26.7249 2.67082 27.2043 2.82427 27.6145C2.97598 28.0249 3.11391 28.3627 3.20528 28.6006C3.29838 28.8386 3.357 28.9731 3.357 28.9731C3.39666 29.068 3.35356 29.1783 3.25701 29.2179C3.16219 29.2576 3.05184 29.2145 3.01219 29.1179C3.00874 29.1093 3.00529 29.0989 3.00356 29.0903C3.00356 29.0903 2.96909 28.949 2.90013 28.7025C2.82944 28.4576 2.73634 28.1041 2.6122 27.6853C2.48979 27.2645 2.34153 26.7766 2.17602 26.2559C2.01395 25.7336 1.8312 25.1801 1.64846 24.6268C1.46054 24.075 1.27433 23.5217 1.09158 23.0079C0.910554 22.4923 0.7347 22.0131 0.581257 21.6027C0.42954 21.1923 0.291615 20.8545 0.20024 20.6166C0.107141 20.3786 0.0485224 20.2442 0.0485224 20.2442C0.00886887 20.1494 0.0519704 20.039 0.146794 19.9993C0.241617 19.9596 0.351957 20.0028 0.391611 20.0976C0.39506 20.1063 0.398507 20.1165 0.400232 20.1252L0.401956 20.1269Z" fill="white"/>
<path fill-rule="evenodd" clip-rule="evenodd" d="M2.99309 29.0161C2.99309 29.0161 3.01724 28.8782 3.05344 28.6386C3.0862 28.3973 3.14309 28.0541 3.19653 27.6404C3.25171 27.2265 3.31033 26.7438 3.36894 26.2266C3.42756 25.7094 3.48101 25.1559 3.53618 24.6043C3.58446 24.0508 3.63446 23.4975 3.67238 22.9785C3.71203 22.4595 3.74306 21.9734 3.76375 21.5579C3.7879 21.1424 3.79651 20.7941 3.80858 20.5511C3.8172 20.3079 3.81893 20.1682 3.81893 20.1682C3.81893 20.0648 3.90513 19.982 4.00858 19.9838C4.11201 19.9838 4.19478 20.0699 4.19305 20.1734C4.19305 20.1838 4.19305 20.1942 4.1896 20.2044C4.1896 20.2044 4.16546 20.3424 4.12926 20.582C4.0965 20.8234 4.03961 21.1665 3.98616 21.5803C3.93099 21.994 3.87237 22.4768 3.81375 22.9939C3.75514 23.5112 3.70169 24.0646 3.64652 24.6164C3.59824 25.1697 3.54825 25.7232 3.51032 26.2421C3.47066 26.7611 3.43963 27.2473 3.41895 27.6628C3.3948 28.0783 3.38619 28.4266 3.37412 28.6696C3.3655 28.9127 3.36377 29.0523 3.36377 29.0523C3.36377 29.1557 3.27757 29.2385 3.17413 29.2369C3.07068 29.2369 2.98792 29.1506 2.98965 29.0472C2.98965 29.0368 2.98965 29.0265 2.99309 29.0161Z" fill="white"/>
<path fill-rule="evenodd" clip-rule="evenodd" d="M35.9125 9.9411C35.9125 9.9411 35.7625 9.83248 35.5004 9.64284C35.2349 9.45835 34.8643 9.18595 34.4057 8.87389C33.9487 8.56356 33.4194 8.1929 32.8436 7.81015C32.2695 7.42397 31.6522 7.02053 31.0351 6.6171C30.4162 6.21712 29.7954 5.81714 29.211 5.44992C28.6266 5.08097 28.0748 4.74649 27.6042 4.45513C27.1335 4.16376 26.7336 3.93446 26.4577 3.76722C26.1784 3.60516 26.018 3.51206 26.018 3.51206C25.9284 3.46035 25.8991 3.34655 25.9508 3.25691C26.0025 3.16725 26.1163 3.13794 26.206 3.18966C26.2111 3.1931 26.2164 3.19656 26.2215 3.2C26.2215 3.2 26.3715 3.30862 26.6335 3.49655C26.8991 3.68102 27.2714 3.95342 27.7283 4.26548C28.1852 4.57581 28.7145 4.94649 29.2904 5.32922C29.8644 5.71542 30.4817 6.11884 31.0971 6.52228C31.7161 6.92226 32.3367 7.32225 32.9211 7.68947C33.5057 8.06015 34.0573 8.39288 34.528 8.68425C34.9988 8.97561 35.3987 9.20491 35.6746 9.37215C35.9538 9.53422 36.1141 9.62732 36.1141 9.62732C36.2038 9.67904 36.2331 9.79283 36.1814 9.88248C36.1297 9.97213 36.016 10.0014 35.9263 9.94971C35.921 9.94627 35.9159 9.94282 35.9108 9.93937L35.9125 9.9411Z" fill="white"/>
<path fill-rule="evenodd" clip-rule="evenodd" d="M26.1214 3.17069C26.1214 3.17069 26.3577 3.21379 26.7111 3.24482C26.8887 3.26206 27.0955 3.27585 27.3162 3.28446C27.537 3.29482 27.7731 3.29654 28.0093 3.29999C28.2455 3.29654 28.4816 3.29482 28.7024 3.28446C28.9231 3.27585 29.1299 3.26206 29.3075 3.24482C29.661 3.21379 29.8972 3.17069 29.8972 3.17069C30.0006 3.15171 30.0989 3.22068 30.1178 3.3224C30.1367 3.42584 30.0679 3.52412 29.9661 3.54308C29.9436 3.54652 29.9196 3.54652 29.8972 3.54308C29.8972 3.54308 29.661 3.49998 29.3075 3.46895C29.1299 3.4517 28.9231 3.43792 28.7024 3.42929C28.4816 3.41894 28.2455 3.4155 28.0093 3.41377C27.7731 3.4155 27.537 3.41723 27.3162 3.42929C27.0955 3.43792 26.8887 3.4517 26.7111 3.46895C26.3577 3.49998 26.1214 3.54308 26.1214 3.54308C26.018 3.56205 25.9198 3.4948 25.9008 3.39136C25.8819 3.28792 25.9491 3.18965 26.0525 3.17069C26.0766 3.16551 26.099 3.16723 26.1214 3.17069Z" fill="white"/>
<path fill-rule="evenodd" clip-rule="evenodd" d="M30.035 3.22758C30.035 3.22758 30.1229 3.3362 30.2799 3.52067C30.4385 3.70343 30.6609 3.97238 30.9368 4.28271C31.2109 4.59477 31.535 4.95682 31.8867 5.33956C32.2367 5.72402 32.6177 6.12746 32.9987 6.5309C33.3832 6.93088 33.766 7.33086 34.1331 7.69981C34.4987 8.07048 34.8418 8.41185 35.1417 8.70149C35.4382 8.99285 35.6952 9.22732 35.8693 9.39629C36.0468 9.5618 36.1504 9.6549 36.1504 9.6549C36.2279 9.72386 36.2348 9.8411 36.1658 9.91867C36.0969 9.99626 35.9797 10.0031 35.9021 9.93419C35.8952 9.9273 35.8865 9.91867 35.8814 9.91177C35.8814 9.91177 35.7935 9.80317 35.6366 9.61869C35.4779 9.43593 35.2555 9.1687 34.9797 8.85666C34.7055 8.5446 34.3815 8.18255 34.0297 7.7998C33.6797 7.41533 33.2988 7.01191 32.9195 6.60847C32.535 6.20849 32.1522 5.80851 31.7867 5.43956C31.4213 5.06889 31.0782 4.72752 30.7781 4.43788C30.4816 4.14651 30.2248 3.91204 30.0488 3.74308C29.8712 3.57757 29.7678 3.48447 29.7678 3.48447C29.6903 3.41551 29.6834 3.29827 29.7523 3.22068C29.8213 3.14311 29.9385 3.13621 30.0161 3.20517C30.023 3.21207 30.0317 3.22068 30.0368 3.22758H30.035Z" fill="white"/>
<path fill-rule="evenodd" clip-rule="evenodd" d="M3.83791 30.6747C3.83791 30.6747 3.82583 30.5575 3.77583 30.397C3.72756 30.2367 3.64481 30.0316 3.54136 29.8368C3.43964 29.6419 3.31551 29.4592 3.20861 29.3281C3.10345 29.1971 3.0138 29.1195 3.0138 29.1195C2.92931 29.0471 2.91897 28.9213 2.99139 28.8367C3.06379 28.7523 3.18966 28.7419 3.27413 28.8145C3.31379 28.8489 3.33792 28.8955 3.34309 28.9454C3.34309 28.9454 3.35688 29.0626 3.40688 29.2229C3.45516 29.3833 3.53792 29.5885 3.64135 29.7833C3.74307 29.9782 3.86721 30.1609 3.9741 30.2918C4.07926 30.423 4.16893 30.4988 4.16893 30.4988C4.2534 30.5712 4.26375 30.6971 4.19133 30.7816C4.11892 30.866 3.99307 30.8764 3.90858 30.804C3.86721 30.7695 3.84479 30.7212 3.83962 30.6729L3.83791 30.6747Z" fill="white"/>
<path fill-rule="evenodd" clip-rule="evenodd" d="M37.002 29.1212C37.002 29.1212 36.9124 29.1971 36.8072 29.3281C36.7002 29.4592 36.5779 29.6419 36.4744 29.8367C36.371 30.0298 36.2882 30.2367 36.2399 30.397C36.1899 30.5574 36.1762 30.6746 36.1762 30.6746C36.164 30.7849 36.0641 30.8642 35.9555 30.8522C35.8451 30.8402 35.7658 30.7401 35.7778 30.6315C35.7831 30.5798 35.8089 30.5332 35.8468 30.5004C35.8468 30.5004 35.9365 30.4229 36.0417 30.2918C36.1486 30.1608 36.271 29.9781 36.3744 29.7833C36.4778 29.5902 36.5606 29.3851 36.6089 29.2229C36.6589 29.0626 36.6709 28.9454 36.6709 28.9454C36.6831 28.8351 36.7812 28.7557 36.8916 28.7678C37.002 28.7798 37.0813 28.8782 37.0693 28.9885C37.064 29.0419 37.0365 29.0885 37.0003 29.1195L37.002 29.1212Z" fill="white"/>
<path fill-rule="evenodd" clip-rule="evenodd" d="M20.0373 28.8489C20.0373 28.8489 20.1907 28.8851 20.4579 28.9403C20.7269 28.9936 21.1095 29.0781 21.5699 29.1643C22.0302 29.254 22.5699 29.3523 23.1475 29.4523C23.725 29.554 24.344 29.6523 24.9611 29.7522C25.5801 29.8472 26.1991 29.942 26.78 30.0212C27.361 30.1022 27.9041 30.1746 28.3713 30.2298C28.8368 30.2884 29.2265 30.3264 29.4988 30.3574C29.7713 30.3868 29.9281 30.3988 29.9281 30.3988C30.0315 30.4074 30.1074 30.4971 30.0988 30.6005C30.0903 30.7039 30.0006 30.7798 29.8972 30.7712C29.8885 30.7712 29.8782 30.7694 29.8695 30.7677C29.8695 30.7677 29.7161 30.7315 29.4489 30.6764C29.1799 30.6229 28.7972 30.5384 28.3351 30.4522C27.8748 30.3626 27.3352 30.2643 26.7576 30.1644C26.18 30.0625 25.5612 29.9626 24.9439 29.8626C24.3249 29.7678 23.7061 29.673 23.125 29.5919C22.544 29.5092 22.0009 29.4386 21.5337 29.3833C21.0682 29.3247 20.6769 29.2868 20.4062 29.2557C20.1338 29.2264 19.9769 29.2144 19.9769 29.2144C19.8735 29.2058 19.7976 29.1161 19.8062 29.0127C19.8149 28.9092 19.9045 28.8333 20.008 28.842C20.0166 28.842 20.0269 28.8437 20.0355 28.8454L20.0373 28.8489Z" fill="white"/>
<path fill-rule="evenodd" clip-rule="evenodd" d="M29.7248 30.6505C29.7248 30.6505 29.6748 30.4851 29.5869 30.1955C29.4937 29.9074 29.3696 29.4919 29.2058 29.0007C29.0438 28.5075 28.8507 27.9334 28.6386 27.3214C28.4283 26.7076 28.1938 26.0577 27.9593 25.406C27.7214 24.7559 27.4817 24.1078 27.2507 23.5026C27.0214 22.8957 26.8008 22.332 26.6077 21.851C26.4163 21.3682 26.2473 20.9699 26.1336 20.6889C26.0146 20.4097 25.9474 20.251 25.9474 20.251C25.9077 20.1562 25.9507 20.0459 26.0457 20.0062C26.1405 19.9665 26.2508 20.0097 26.2905 20.1045C26.2921 20.1114 26.2956 20.1165 26.2974 20.1234C26.2974 20.1234 26.3473 20.2889 26.4352 20.5786C26.5284 20.8665 26.6543 21.2802 26.8163 21.7733C26.9783 22.2665 27.1714 22.8405 27.3834 23.4526C27.5938 24.0663 27.8282 24.7164 28.0628 25.368C28.3007 26.018 28.5386 26.6662 28.7713 27.2731C29.0007 27.8799 29.2214 28.4438 29.4144 28.9248C29.6058 29.4075 29.7747 29.8058 29.8885 30.0868C30.0075 30.3661 30.0748 30.5247 30.0748 30.5247C30.1145 30.6195 30.0712 30.7299 29.9765 30.7695C29.8817 30.8092 29.7713 30.7661 29.7316 30.6712C29.7299 30.6643 29.7265 30.6592 29.7248 30.6523V30.6505Z" fill="white"/>
<path fill-rule="evenodd" clip-rule="evenodd" d="M29.7404 30.492C29.7404 30.492 29.8438 30.3334 30.0248 30.0575C30.2007 29.7783 30.4627 29.3852 30.7593 28.9041C31.0559 28.4231 31.4092 27.8644 31.7748 27.2594C32.1419 26.6559 32.5264 26.006 32.9109 25.3577C33.2902 24.706 33.6712 24.0544 34.0194 23.4405C34.3712 22.8268 34.6866 22.2475 34.9625 21.7544C35.2384 21.2613 35.4556 20.8423 35.6143 20.5527C35.7677 20.2597 35.8556 20.0924 35.8556 20.0924C35.9039 20.0011 36.0159 19.9665 36.1073 20.0131C36.1987 20.0614 36.2331 20.1734 36.1866 20.2648C36.1832 20.2699 36.1814 20.2752 36.1781 20.2803C36.1781 20.2803 36.0746 20.439 35.8935 20.7149C35.7177 20.9941 35.4574 21.3872 35.1591 21.8682C34.8626 22.3492 34.5091 22.9078 34.1437 23.513C33.7764 24.1163 33.3919 24.7664 33.0075 25.4145C32.6282 26.0663 32.2471 26.7163 31.8989 27.3317C31.5471 27.9456 31.2317 28.5247 30.9558 29.0179C30.6799 29.511 30.4627 29.9299 30.3041 30.2213C30.1506 30.5145 30.0627 30.6816 30.0627 30.6816C30.0145 30.773 29.9024 30.8075 29.811 30.7609C29.7197 30.7127 29.6851 30.6006 29.7317 30.5092C29.7351 30.5041 29.7369 30.4989 29.7404 30.4937V30.492Z" fill="white"/>
<path fill-rule="evenodd" clip-rule="evenodd" d="M29.8593 30.4057C29.8593 30.4057 29.9696 30.3919 30.1627 30.3643C30.354 30.3333 30.6317 30.2953 30.9593 30.2367C31.2885 30.1799 31.6713 30.1091 32.0799 30.0264C32.4885 29.9453 32.9229 29.8505 33.3574 29.7558C33.7901 29.6557 34.2229 29.5574 34.6281 29.4557C35.0332 29.3558 35.409 29.2575 35.7297 29.1678C36.0521 29.0799 36.3176 28.9971 36.5056 28.9437C36.6918 28.8884 36.7986 28.8523 36.7986 28.8523C36.8969 28.8196 37.0039 28.873 37.0365 28.9712C37.0693 29.0695 37.0159 29.1765 36.9176 29.2091C36.9055 29.2127 36.8918 29.216 36.8796 29.2178C36.8796 29.2178 36.7693 29.2316 36.5762 29.2592C36.3849 29.2902 36.1072 29.3281 35.7796 29.3867C35.4504 29.4437 35.0676 29.5143 34.659 29.5971C34.2504 29.6781 33.816 29.7729 33.3816 29.8661C32.9488 29.966 32.516 30.0643 32.111 30.166C31.7057 30.266 31.3299 30.3643 31.0092 30.454C30.6868 30.5402 30.4213 30.6247 30.2335 30.678C30.0472 30.7333 29.9403 30.7694 29.9403 30.7694C29.842 30.8023 29.7352 30.7488 29.7024 30.6522C29.6697 30.5539 29.723 30.4471 29.8196 30.4143C29.8317 30.4108 29.8455 30.4074 29.8575 30.4057H29.8593Z" fill="white"/>
<path fill-rule="evenodd" clip-rule="evenodd" d="M3.22075 28.8523C3.22075 28.8523 3.32593 28.8886 3.51384 28.9437C3.70177 28.9972 3.96728 29.0817 4.28967 29.1679C4.61035 29.2575 4.98792 29.3558 5.39135 29.4557C5.79478 29.5574 6.22925 29.6557 6.66199 29.7558C7.09646 29.8506 7.53091 29.9454 7.93952 30.0246C8.34813 30.1074 8.73086 30.1782 9.05844 30.235C9.38601 30.2936 9.66359 30.3316 9.85495 30.3626C10.048 30.3919 10.1584 30.4039 10.1584 30.4039C10.2618 30.4161 10.3342 30.5091 10.3222 30.6126C10.3101 30.716 10.217 30.7885 10.1136 30.7764C10.1015 30.7764 10.0877 30.7712 10.0756 30.7677C10.0756 30.7677 9.97046 30.7315 9.78255 30.6764C9.59462 30.623 9.32911 30.5402 9.00672 30.4523C8.68432 30.3626 8.30847 30.2643 7.90503 30.1644C7.50161 30.0626 7.06714 29.9627 6.6344 29.8644C6.19993 29.7696 5.76547 29.6748 5.35687 29.5938C4.94827 29.511 4.56553 29.4402 4.23795 29.3834C3.91038 29.3248 3.63281 29.2868 3.44144 29.2558C3.24834 29.2265 3.13801 29.2144 3.13801 29.2144C3.03456 29.2023 2.96215 29.1093 2.97421 29.0058C2.98628 28.9024 3.07939 28.8299 3.18282 28.842C3.1949 28.842 3.20868 28.8472 3.22075 28.8507V28.8523Z" fill="white"/>
<path fill-rule="evenodd" clip-rule="evenodd" d="M9.95664 30.6815C9.95664 30.6815 9.86871 30.5142 9.71527 30.2212C9.55665 29.9316 9.34115 29.5126 9.06357 29.0178C8.78599 28.5247 8.47222 27.9438 8.12051 27.3317C7.77225 26.7162 7.39123 26.0663 7.01194 25.4145C6.62747 24.7663 6.24301 24.1163 5.87577 23.5129C5.51028 22.9077 5.15685 22.3491 4.8603 21.8681C4.56377 21.3871 4.30343 20.9923 4.12586 20.7147C3.94482 20.4389 3.84139 20.2803 3.84139 20.2803C3.78448 20.1941 3.80863 20.0785 3.89483 20.0217C3.98104 19.9648 4.09654 19.9889 4.15343 20.0751C4.15689 20.0803 4.16033 20.0854 4.16206 20.0907C4.16206 20.0907 4.24998 20.2578 4.40343 20.551C4.56204 20.8406 4.77927 21.2595 5.05513 21.7527C5.33097 22.2457 5.6482 22.8249 5.99819 23.4388C6.34644 24.0543 6.72746 24.7042 7.10676 25.3559C7.49122 26.0042 7.87397 26.6541 8.24292 27.2575C8.60843 27.8627 8.96185 28.4212 9.25839 28.9024C9.55494 29.3833 9.81526 29.7764 9.99285 30.0557C10.1739 30.3315 10.2773 30.4902 10.2773 30.4902C10.3342 30.5764 10.3101 30.6919 10.2239 30.7488C10.1377 30.8056 10.0221 30.7815 9.96526 30.6953C9.96182 30.6902 9.95836 30.6849 9.95664 30.6798V30.6815Z" fill="white"/>
<path fill-rule="evenodd" clip-rule="evenodd" d="M9.94115 30.5229C9.94115 30.5229 10.0084 30.3643 10.1273 30.0849C10.2411 29.8039 10.4118 29.4057 10.6015 28.923C10.7946 28.442 11.0135 27.8765 11.2445 27.2713C11.4756 26.6662 11.7135 26.0161 11.9531 25.3662C12.1859 24.7146 12.4203 24.0645 12.6324 23.4508C12.8445 22.8387 13.0393 22.2647 13.1996 21.7715C13.3634 21.2785 13.4893 20.8647 13.5807 20.5768C13.6686 20.2871 13.7186 20.1216 13.7186 20.1216C13.7479 20.0234 13.8531 19.9682 13.9514 19.9975C14.0495 20.0268 14.1048 20.132 14.0755 20.2303C14.0737 20.2372 14.072 20.2423 14.0686 20.2492C14.0686 20.2492 14.0013 20.4078 13.8824 20.6871C13.7685 20.9681 13.5996 21.3664 13.4082 21.8492C13.2151 22.3302 12.9962 22.8957 12.7652 23.5008C12.5341 24.106 12.2945 24.7559 12.0566 25.4042C11.8221 26.0558 11.5876 26.7059 11.3773 27.3196C11.1652 27.9316 10.9704 28.5057 10.8101 28.9989C10.6463 29.4919 10.5222 29.9056 10.4291 30.1936C10.3411 30.4833 10.2911 30.6487 10.2911 30.6487C10.2618 30.747 10.1567 30.804 10.0584 30.7729C9.9601 30.7436 9.90494 30.6384 9.93425 30.5401C9.93598 30.5332 9.93942 30.5281 9.94115 30.5212V30.5229Z" fill="white"/>
<path fill-rule="evenodd" clip-rule="evenodd" d="M10.0876 30.4024C10.0876 30.4024 10.2445 30.3902 10.5169 30.3609C10.7893 30.3299 11.1789 30.2919 11.6444 30.2333C12.1099 30.1765 12.653 30.1058 13.2357 30.0247C13.8168 29.9454 14.4357 29.8489 15.0547 29.7541C15.6719 29.654 16.2907 29.5558 16.8684 29.454C17.4459 29.3541 17.9855 29.2558 18.4459 29.1661C18.9079 29.0782 19.2906 28.9955 19.5596 28.942C19.8286 28.8851 19.9802 28.8507 19.9802 28.8507C20.0803 28.8265 20.182 28.8903 20.2044 28.9903C20.2286 29.0903 20.1648 29.1921 20.0648 29.2145C20.0561 29.2161 20.0459 29.2179 20.0372 29.2179C20.0372 29.2179 19.8803 29.2316 19.6079 29.2593C19.3355 29.2902 18.9459 29.3282 18.4803 29.3868C18.0148 29.4438 17.4717 29.5144 16.8891 29.5954C16.308 29.6748 15.689 29.7714 15.0702 29.8644C14.4529 29.9645 13.834 30.0626 13.2564 30.1644C12.6789 30.2644 12.1392 30.3627 11.6789 30.4523C11.2169 30.5402 10.8341 30.623 10.5669 30.6765C10.298 30.7333 10.1462 30.7678 10.1462 30.7678C10.0462 30.7919 9.94452 30.7282 9.92211 30.6281C9.89796 30.5282 9.96175 30.4264 10.0618 30.404C10.0704 30.4024 10.0807 30.4006 10.0893 30.4006L10.0876 30.4024Z" fill="white"/>
<path fill-rule="evenodd" clip-rule="evenodd" d="M4.138 30.4591C4.138 30.4591 4.22592 30.5677 4.38282 30.7521C4.54143 30.935 4.76384 31.204 5.03968 31.5143C5.31381 31.8263 5.63793 32.1883 5.98965 32.571C6.33963 32.9556 6.72065 33.3589 7.10167 33.7624C7.48613 34.1624 7.86887 34.5624 8.2361 34.9314C8.6016 35.3021 8.94469 35.6434 9.24468 35.9331C9.54122 36.2243 9.79811 36.4589 9.97223 36.6278C10.1498 36.7934 10.2533 36.8864 10.2533 36.8864C10.3308 36.9554 10.3377 37.0726 10.2688 37.1503C10.1998 37.2278 10.0826 37.2346 10.005 37.1658C9.99809 37.1589 9.98947 37.1503 9.9843 37.1434C9.9843 37.1434 9.89637 37.0347 9.73949 36.8502C9.58087 36.6675 9.35847 36.4003 9.08261 36.0882C8.80849 35.7762 8.48436 35.4141 8.13266 35.0313C7.78267 34.6469 7.40166 34.2434 7.02237 33.8401C6.6379 33.44 6.25515 33.04 5.88964 32.6711C5.52415 32.3004 5.18106 31.9591 4.88107 31.6694C4.58453 31.378 4.32764 31.1436 4.15179 30.9747C3.97421 30.8091 3.87077 30.716 3.87077 30.716C3.79318 30.6471 3.7863 30.5297 3.85526 30.4522C3.92422 30.3746 4.04146 30.3677 4.11903 30.4367C4.12593 30.4436 4.13456 30.4522 4.13973 30.4591H4.138Z" fill="white"/>
<path fill-rule="evenodd" clip-rule="evenodd" d="M9.97562 37.1381C9.97562 37.1381 9.8739 37.0071 9.69632 36.7778C9.51529 36.5519 9.26186 36.2243 8.94808 35.8417C8.63603 35.4572 8.26708 35.0107 7.86709 34.5366C7.46883 34.0625 7.0361 33.5625 6.60507 33.0607C6.16889 32.5642 5.73442 32.0659 5.31893 31.6056C4.90515 31.1436 4.51551 30.716 4.17759 30.3539C3.8414 29.9902 3.55349 29.6936 3.35522 29.4816C3.15351 29.2746 3.03799 29.1557 3.03799 29.1557C2.96558 29.0815 2.9673 28.9643 3.04144 28.8919C3.11558 28.8196 3.23281 28.8213 3.30522 28.8955C3.31039 28.9006 3.31384 28.9057 3.31902 28.9109C3.31902 28.9109 3.42074 29.042 3.59832 29.2695C3.77934 29.4954 4.03277 29.823 4.34656 30.2057C4.65861 30.5901 5.02755 31.0367 5.42755 31.5108C5.8258 31.9849 6.25854 32.4866 6.68956 32.9865C7.12574 33.4832 7.56021 33.9813 7.97398 34.4416C8.38776 34.9037 8.77739 35.3314 9.11531 35.6934C9.4515 36.0572 9.74115 36.3537 9.93769 36.5657C10.1394 36.7726 10.2549 36.8915 10.2549 36.8915C10.3273 36.9657 10.3256 37.083 10.2515 37.1554C10.1773 37.2278 10.0601 37.226 9.98769 37.1519C9.98252 37.1468 9.97735 37.1416 9.9739 37.1364L9.97562 37.1381Z" fill="white"/>
<path fill-rule="evenodd" clip-rule="evenodd" d="M10.1705 36.8365C10.1705 36.8365 10.3222 36.8934 10.5877 36.9883C10.8549 37.0796 11.2342 37.2176 11.6946 37.371C12.1532 37.5261 12.6911 37.7003 13.2669 37.883C13.8427 38.0675 14.4617 38.2537 15.0789 38.4399C15.6978 38.6226 16.3168 38.8054 16.8994 38.9675C17.4822 39.1313 18.0271 39.2795 18.4959 39.4019C18.9631 39.5261 19.3563 39.6191 19.6305 39.6899C19.9046 39.7571 20.0631 39.7933 20.0631 39.7933C20.1632 39.8157 20.2269 39.9157 20.2045 40.0157C20.1821 40.1157 20.0821 40.1795 19.9821 40.1571C19.9734 40.1554 19.9649 40.1518 19.9563 40.1502C19.9563 40.1502 19.8045 40.0932 19.5391 39.9984C19.2718 39.907 18.8925 39.7692 18.4322 39.6174C17.9736 39.4622 17.4356 39.2882 16.8599 39.1053C16.284 38.9209 15.6651 38.7347 15.0479 38.5485C14.4289 38.3658 13.81 38.1831 13.2272 38.0209C12.6445 37.8571 12.0997 37.7088 11.6308 37.5865C11.1635 37.4624 10.7704 37.3692 10.4963 37.2986C10.2222 37.2314 10.0636 37.1952 10.0636 37.1952C9.96359 37.1728 9.8998 37.0727 9.92221 36.9728C9.94463 36.8727 10.0446 36.809 10.1446 36.8314C10.1532 36.833 10.1619 36.8365 10.1705 36.8383V36.8365Z" fill="white"/>
<path fill-rule="evenodd" clip-rule="evenodd" d="M9.93073 37.0158C9.93073 37.0158 9.9428 36.9157 9.9566 36.7399C9.96695 36.5641 9.99107 36.3124 10.0066 36.0124C10.0238 35.7107 10.0376 35.359 10.0462 34.9832C10.0566 34.6072 10.0583 34.2039 10.0618 33.8022C10.0583 33.4004 10.0566 32.9987 10.0462 32.6212C10.0376 32.2452 10.0238 31.8936 10.0066 31.5918C9.99107 31.2902 9.96866 31.0402 9.9566 30.8643C9.9428 30.6885 9.93073 30.5885 9.93073 30.5885C9.91867 30.4851 9.9928 30.3919 10.0963 30.3815C10.1997 30.3695 10.2928 30.4436 10.3031 30.5471C10.3031 30.5608 10.3031 30.5764 10.3031 30.5902C10.3031 30.5902 10.2911 30.6902 10.2773 30.866C10.2669 31.042 10.2428 31.2937 10.229 31.5936C10.2118 31.8954 10.198 32.247 10.1893 32.6229C10.179 32.9987 10.1756 33.4022 10.1738 33.8038C10.1773 34.2055 10.1773 34.6072 10.1893 34.9848C10.198 35.3607 10.2118 35.7123 10.229 36.0141C10.2428 36.3158 10.2669 36.5657 10.279 36.7417C10.2928 36.9175 10.3049 37.0176 10.3049 37.0176C10.3169 37.121 10.2428 37.214 10.1394 37.2261C10.0359 37.2382 9.9428 37.1641 9.93073 37.0606C9.93073 37.0469 9.93073 37.0313 9.93073 37.0176V37.0158Z" fill="white"/>
<path fill-rule="evenodd" clip-rule="evenodd" d="M10.2188 30.4299C10.2188 30.4299 10.3688 30.5384 10.6308 30.7282C10.8963 30.9126 11.267 31.185 11.7256 31.497C12.1825 31.8073 12.7118 32.178 13.2876 32.5608C13.8618 32.947 14.479 33.3505 15.0961 33.7538C15.7151 34.1538 16.3357 34.5538 16.9202 34.9211C17.5047 35.29 18.0564 35.6244 18.527 35.9158C18.9977 36.2072 19.3977 36.4365 19.6735 36.6037C19.9528 36.7657 20.1115 36.8589 20.1115 36.8589C20.2011 36.9106 20.2304 37.0245 20.1787 37.1141C20.127 37.2038 20.0132 37.2331 19.9235 37.1814C19.9184 37.1778 19.9132 37.1743 19.908 37.171C19.908 37.171 19.7579 37.0624 19.496 36.8744C19.2305 36.69 18.8581 36.4175 18.4011 36.1054C17.9443 35.7951 17.415 35.4245 16.8392 35.0418C16.2651 34.6556 15.6478 34.2521 15.0323 33.8486C14.4134 33.4487 13.7927 33.0487 13.2083 32.6815C12.6238 32.3109 12.0721 31.978 11.6015 31.6868C11.1308 31.3954 10.7308 31.1661 10.455 30.9988C10.1757 30.8367 10.0153 30.7437 10.0153 30.7437C9.92567 30.692 9.89636 30.5781 9.94809 30.4885C9.99981 30.3988 10.1136 30.3695 10.2032 30.4212C10.2084 30.4247 10.2136 30.4281 10.2188 30.4316V30.4299Z" fill="white"/>
<path fill-rule="evenodd" clip-rule="evenodd" d="M19.8217 37.0159C19.8217 37.0159 19.8337 36.8916 19.8475 36.6727C19.8579 36.4537 19.8821 36.1434 19.8976 35.7694C19.9148 35.3952 19.9285 34.959 19.9372 34.4918C19.9476 34.0246 19.9493 33.5246 19.9527 33.0263C19.9493 32.5281 19.9476 32.0282 19.9372 31.561C19.9285 31.0936 19.9148 30.6575 19.8976 30.2834C19.8821 29.9092 19.8597 29.5972 19.8475 29.3799C19.8337 29.161 19.8217 29.0369 19.8217 29.0369C19.8131 28.9334 19.889 28.8421 19.9906 28.8334C20.0941 28.8248 20.1855 28.9007 20.1941 29.0024C20.1941 29.0128 20.1941 29.0265 20.1941 29.0369C20.1941 29.0369 20.182 29.161 20.1682 29.3799C20.1579 29.5989 20.1338 29.9092 20.12 30.2834C20.1027 30.6575 20.0889 31.0936 20.0803 31.561C20.0699 32.0282 20.0665 32.5281 20.0648 33.0263C20.0665 33.5246 20.0683 34.0246 20.0803 34.4918C20.0889 34.959 20.1027 35.3952 20.12 35.7694C20.1338 36.1434 20.1579 36.4555 20.17 36.6727C20.1837 36.8916 20.1958 37.0159 20.1958 37.0159C20.2062 37.1193 20.1303 37.2107 20.0268 37.2192C19.9234 37.2296 19.832 37.1537 19.8235 37.0503C19.8235 37.0383 19.8235 37.0261 19.8235 37.0159H19.8217Z" fill="white"/>
<path fill-rule="evenodd" clip-rule="evenodd" d="M20.1942 37.0158C20.1942 37.0158 20.1509 37.2003 20.12 37.4779C20.1027 37.6158 20.089 37.7778 20.0803 37.9502C20.0699 38.1227 20.0683 38.3089 20.0648 38.4933C20.0683 38.6778 20.0699 38.8623 20.0803 39.0364C20.089 39.2087 20.1027 39.3709 20.12 39.5088C20.1509 39.7864 20.1942 39.9709 20.1942 39.9709C20.2182 40.0743 20.1545 40.1777 20.051 40.2019C19.9476 40.2259 19.8442 40.1622 19.82 40.0588C19.8131 40.0295 19.8131 39.9984 19.82 39.9709C19.82 39.9709 19.8631 39.7864 19.8941 39.5088C19.9114 39.3709 19.9252 39.2087 19.9338 39.0364C19.9441 38.864 19.9476 38.6778 19.9493 38.4933C19.9476 38.3089 19.9458 38.1243 19.9338 37.9502C19.9252 37.7778 19.9114 37.6158 19.8941 37.4779C19.8631 37.2003 19.82 37.0158 19.82 37.0158C19.7958 36.9124 19.8597 36.8089 19.9614 36.7848C20.0648 36.7606 20.1682 36.8245 20.1924 36.9262C20.1993 36.9555 20.1993 36.9865 20.1924 37.0141L20.1942 37.0158Z" fill="white"/>
<path fill-rule="evenodd" clip-rule="evenodd" d="M19.9063 36.8589C19.9063 36.8589 20.0665 36.7659 20.3458 36.6037C20.6217 36.4365 21.0234 36.2072 21.4924 35.9158C21.9629 35.6244 22.5147 35.2917 23.0991 34.921C23.6853 34.5539 24.3043 34.1538 24.9233 33.7538C25.5405 33.3505 26.1576 32.947 26.73 32.5608C27.3059 32.1764 27.8351 31.8073 28.2921 31.497C28.7489 31.185 29.1213 30.9126 29.3868 30.7281C29.6489 30.5384 29.7989 30.4316 29.7989 30.4316C29.8817 30.3713 29.9989 30.3902 30.0592 30.4729C30.1196 30.5557 30.1005 30.6729 30.0178 30.7333C30.0126 30.7368 30.0075 30.7402 30.0024 30.7437C30.0024 30.7437 29.842 30.8367 29.5627 30.9987C29.2868 31.1661 28.8869 31.3953 28.4161 31.6867C27.9456 31.978 27.3938 32.3125 26.8094 32.6815C26.2232 33.0487 25.6042 33.4486 24.9852 33.8487C24.3681 34.2521 23.7509 34.6556 23.1767 35.0418C22.601 35.4244 22.0734 35.7951 21.6147 36.1055C21.1579 36.4158 20.7855 36.69 20.52 36.8744C20.2579 37.064 20.1079 37.1727 20.1079 37.1727C20.0251 37.2331 19.9079 37.214 19.8475 37.1313C19.7873 37.0485 19.8062 36.9313 19.889 36.8709C19.8941 36.8675 19.8992 36.864 19.9045 36.8606L19.9063 36.8589Z" fill="white"/>
<path fill-rule="evenodd" clip-rule="evenodd" d="M30.0868 30.5868C30.0868 30.5868 30.0748 30.6867 30.061 30.8627C30.0506 31.0385 30.0264 31.2902 30.0109 31.5902C29.9937 31.8919 29.98 32.2436 29.9713 32.6194C29.9609 32.9952 29.9592 33.3987 29.9558 33.8004C29.9592 34.2021 29.9609 34.6039 29.9713 34.9814C29.98 35.3572 29.9937 35.709 30.0109 36.0106C30.0264 36.3124 30.0488 36.5624 30.061 36.7382C30.0748 36.914 30.0868 37.0141 30.0868 37.0141C30.0989 37.1175 30.0248 37.2107 29.9212 37.2209C29.8178 37.2331 29.7247 37.1589 29.7144 37.0554C29.7144 37.0416 29.7144 37.0261 29.7144 37.0123C29.7144 37.0123 29.7265 36.9124 29.7403 36.7364C29.7505 36.5606 29.7747 36.3089 29.7885 36.0089C29.8058 35.7072 29.8195 35.3555 29.8282 34.9797C29.8386 34.6039 29.842 34.2004 29.8437 33.7987C29.842 33.3969 29.8402 32.9952 29.8282 32.6177C29.8195 32.2419 29.8058 31.8901 29.7885 31.5885C29.7747 31.2868 29.7505 31.0367 29.7385 30.8609C29.7247 30.6851 29.7127 30.585 29.7127 30.585C29.7006 30.4816 29.7747 30.3886 29.8781 30.3764C29.9816 30.3644 30.0748 30.4385 30.0868 30.5419C30.0868 30.5557 30.0868 30.5713 30.0868 30.585V30.5868Z" fill="white"/>
<path fill-rule="evenodd" clip-rule="evenodd" d="M29.7592 36.8933C29.7592 36.8933 29.8748 36.7743 30.0765 36.5675C30.2748 36.3571 30.5644 36.0606 30.9006 35.6952C31.2385 35.3314 31.6282 34.9055 32.0419 34.4434C32.4574 33.9831 32.8918 33.4848 33.3264 32.9883C33.7574 32.4884 34.1902 31.9866 34.5884 31.5125C34.9883 31.0384 35.3573 30.5936 35.6693 30.2074C35.9831 29.823 36.2366 29.497 36.4175 29.2713C36.5952 29.042 36.6969 28.9126 36.6969 28.9126C36.7606 28.8316 36.8779 28.8161 36.959 28.8799C37.04 28.9437 37.0556 29.0609 36.9917 29.1419C36.9883 29.1472 36.983 29.1523 36.9779 29.1574C36.9779 29.1574 36.8625 29.2764 36.6607 29.4833C36.4624 29.6936 36.1745 29.9902 35.8384 30.3557C35.5004 30.7195 35.1108 31.147 34.6969 31.6073C34.2814 32.0677 33.847 32.5659 33.4109 33.0624C32.9799 33.5625 32.5471 34.0625 32.1489 34.5382C31.7488 35.0124 31.3799 35.4572 31.0678 35.8434C30.754 36.2279 30.5007 36.5537 30.3196 36.7796C30.142 37.0089 30.0403 37.1399 30.0403 37.1399C29.9765 37.2209 29.8593 37.2364 29.7782 37.1727C29.6972 37.1088 29.6817 36.9916 29.7454 36.9106C29.7489 36.9055 29.7541 36.9002 29.7592 36.8951V36.8933Z" fill="white"/>
<path fill-rule="evenodd" clip-rule="evenodd" d="M29.9541 37.1934C29.9541 37.1934 29.7954 37.2278 29.5213 37.2968C29.2472 37.3675 28.8541 37.4589 28.3869 37.5847C27.9179 37.7072 27.3732 37.8555 26.7904 38.0193C26.2077 38.1813 25.5887 38.364 24.9697 38.5468C24.3525 38.7347 23.7354 38.9209 23.1577 39.1037C22.5802 39.2864 22.044 39.4605 21.5854 39.6158C21.1251 39.7691 20.7458 39.9054 20.4786 39.9967C20.2113 40.0915 20.0613 40.1485 20.0613 40.1485C19.9648 40.1846 19.8562 40.1363 19.82 40.0398C19.7838 39.9432 19.832 39.8346 19.9286 39.7984C19.9372 39.7949 19.9459 39.7933 19.9545 39.7916C19.9545 39.7916 20.1132 39.7571 20.3873 39.6881C20.6614 39.6174 21.0545 39.5243 21.5217 39.4002C21.9907 39.2778 22.5354 39.1295 23.1182 38.9657C23.7008 38.8037 24.3198 38.621 24.9387 38.4381C25.5559 38.2502 26.1731 38.0641 26.7507 37.8813C27.3284 37.7003 27.8644 37.5244 28.3231 37.3692C28.7835 37.2176 29.1628 37.0778 29.43 36.9865C29.6972 36.8916 29.8471 36.8348 29.8471 36.8348C29.9437 36.7986 30.0524 36.8469 30.0885 36.9435C30.1247 37.04 30.0764 37.1486 29.9798 37.1848C29.9713 37.1883 29.9627 37.1899 29.9541 37.1916V37.1934Z" fill="white"/>
<path fill-rule="evenodd" clip-rule="evenodd" d="M29.7661 36.8864C29.7661 36.8864 29.8697 36.7934 30.0473 36.6278C30.2231 36.4606 30.4783 36.2245 30.7764 35.9331C31.0747 35.6434 31.4196 35.3021 31.785 34.9314C32.1505 34.5623 32.535 34.1624 32.9178 33.7624C33.2988 33.3589 33.678 32.9556 34.028 32.5712C34.3798 32.1883 34.7039 31.8263 34.978 31.5143C35.2538 31.2022 35.4762 30.935 35.6349 30.7523C35.7918 30.5677 35.8797 30.4591 35.8797 30.4591C35.9452 30.3781 36.0624 30.3661 36.1434 30.4316C36.2245 30.4971 36.2366 30.6143 36.1711 30.6953C36.1642 30.7039 36.1573 30.7108 36.1503 30.7177C36.1503 30.7177 36.0469 30.8109 35.8693 30.9763C35.6935 31.1436 35.4383 31.3798 35.1418 31.6712C34.8436 31.9608 34.4987 32.3022 34.1332 32.6728C33.7677 33.0417 33.3832 33.4417 32.9988 33.8417C32.6177 34.2452 32.2384 34.6486 31.8868 35.0331C31.535 35.4158 31.211 35.7779 30.9369 36.09C30.661 36.402 30.4386 36.6693 30.2799 36.852C30.123 37.0364 30.0351 37.145 30.0351 37.145C29.9696 37.2261 29.8524 37.2382 29.7714 37.1744C29.6904 37.1088 29.6782 36.9916 29.7421 36.9106C29.749 36.9019 29.7559 36.895 29.7627 36.8881L29.7661 36.8864Z" fill="white"/>
<path fill-rule="evenodd" clip-rule="evenodd" d="M10.1169 36.8279C10.1169 36.8279 10.2721 36.84 10.5428 36.8538C10.8134 36.8641 11.1996 36.8882 11.6634 36.9038C12.1272 36.9211 12.6685 36.9348 13.2478 36.9435C13.8271 36.9537 14.4461 36.9555 15.0633 36.959C15.6822 36.9555 16.2994 36.9537 16.8787 36.9435C17.458 36.9348 17.9993 36.9211 18.4631 36.9038C18.9268 36.89 19.313 36.8658 19.5838 36.8556C19.8544 36.8417 20.0097 36.8296 20.0097 36.8296C20.1131 36.8227 20.2028 36.8986 20.2097 37.0021C20.2165 37.1055 20.1407 37.1952 20.0372 37.2021C20.0286 37.2021 20.0182 37.2021 20.0097 37.2021C20.0097 37.2021 19.8544 37.1899 19.5838 37.1761C19.313 37.1659 18.9268 37.1417 18.4631 37.1262C17.9993 37.1089 17.458 37.0951 16.8787 37.0865C16.2994 37.0762 15.6805 37.0727 15.0633 37.0709C14.4443 37.0727 13.8271 37.0745 13.2478 37.0865C12.6685 37.0951 12.1272 37.1089 11.6634 37.1262C11.1996 37.1399 10.8134 37.1641 10.5428 37.1761C10.2721 37.1899 10.1169 37.2021 10.1169 37.2021C10.0135 37.2089 9.92384 37.1331 9.91694 37.0296C9.91004 36.9262 9.9859 36.8365 10.0893 36.8296C10.098 36.8296 10.1083 36.8296 10.1169 36.8296V36.8279Z" fill="white"/>
<path fill-rule="evenodd" clip-rule="evenodd" d="M20.008 36.8279C20.008 36.8279 20.1632 36.84 20.4338 36.8538C20.7045 36.8641 21.0907 36.8882 21.5546 36.9038C22.0183 36.9211 22.5596 36.9348 23.1389 36.9435C23.7182 36.9537 24.3372 36.9555 24.9544 36.959C25.5733 36.9555 26.1905 36.9537 26.7698 36.9435C27.3491 36.9348 27.8904 36.9211 28.3543 36.9038C28.818 36.89 29.2042 36.8658 29.4749 36.8556C29.7455 36.8417 29.9007 36.8296 29.9007 36.8296C30.0041 36.8227 30.0937 36.8986 30.1006 37.0021C30.1075 37.1055 30.0318 37.1952 29.9283 37.2021C29.9197 37.2021 29.9093 37.2021 29.9007 37.2021C29.9007 37.2021 29.7455 37.1899 29.4749 37.1761C29.2042 37.1659 28.818 37.1417 28.3543 37.1262C27.8904 37.1089 27.3491 37.0951 26.7698 37.0865C26.1905 37.0762 25.5715 37.0727 24.9544 37.0709C24.3354 37.0727 23.7182 37.0745 23.1389 37.0865C22.5596 37.0951 22.0183 37.1089 21.5546 37.1262C21.0907 37.1399 20.7045 37.1641 20.4338 37.1761C20.1632 37.1899 20.008 37.2021 20.008 37.2021C19.9046 37.2089 19.8149 37.1331 19.8081 37.0296C19.8012 36.9262 19.8769 36.8365 19.9805 36.8296C19.989 36.8296 19.9994 36.8296 20.008 36.8296V36.8279Z" fill="white"/>
<path fill-rule="evenodd" clip-rule="evenodd" d="M13.8944 3.17071C13.8944 3.17071 14.0858 3.17934 14.4202 3.19658C14.7547 3.20693 15.2323 3.23278 15.8047 3.24484C16.3771 3.25692 17.0461 3.27933 17.7632 3.28623C18.4804 3.29657 19.2443 3.29829 20.008 3.30175C20.7718 3.29829 21.5355 3.29657 22.2527 3.28623C22.97 3.2776 23.6372 3.25692 24.2113 3.24484C24.7836 3.23278 25.2612 3.20693 25.5957 3.19658C25.9301 3.18105 26.1215 3.17071 26.1215 3.17071C26.2249 3.16554 26.3112 3.24484 26.3163 3.34829C26.3215 3.45174 26.2422 3.53794 26.1388 3.54312C26.1336 3.54312 26.1267 3.54312 26.1215 3.54312C26.1215 3.54312 25.9301 3.53449 25.5957 3.51726C25.2612 3.5069 24.7836 3.48104 24.2113 3.46898C23.6389 3.45691 22.97 3.43622 22.2527 3.4276C21.5355 3.41725 20.7718 3.41381 20.008 3.41208C19.2443 3.41381 18.4788 3.41554 17.7632 3.4276C17.0461 3.4345 16.3789 3.45691 15.8047 3.46898C15.2323 3.48104 14.7547 3.5069 14.4202 3.51726C14.0858 3.53277 13.8944 3.54312 13.8944 3.54312C13.791 3.54829 13.7048 3.46898 13.6996 3.36554C13.6944 3.26209 13.7737 3.17588 13.8773 3.17071C13.8824 3.17071 13.8893 3.17071 13.8944 3.17071Z" fill="white"/>
<path d="M49.005 28.2627L46.7309 31.8004H46.3671L45.5033 28.2627H45.8879L46.6309 31.3298L48.6119 28.2627H49.0067H49.005Z" fill="white"/>
<path d="M48.8688 30.573C48.8654 30.597 48.8636 30.6316 48.8636 30.6798C48.8636 30.9487 48.9395 31.1539 49.0929 31.297C49.2463 31.4401 49.474 31.5091 49.7774 31.5091C49.9532 31.5091 50.117 31.4797 50.2704 31.4211C50.4239 31.3625 50.5498 31.2797 50.6463 31.1763L50.8084 31.4332C50.6843 31.5573 50.5274 31.6539 50.3412 31.7229C50.1532 31.7918 49.9567 31.8263 49.7481 31.8263C49.3637 31.8263 49.0619 31.7246 48.8412 31.5229C48.6206 31.3212 48.5103 31.0453 48.5103 30.6935C48.5103 30.397 48.574 30.1298 48.6998 29.8902C48.8257 29.6505 49.0015 29.4626 49.2257 29.3265C49.4498 29.1902 49.7015 29.1212 49.9808 29.1212C50.3343 29.1212 50.6153 29.2213 50.8239 29.4213C51.0325 29.6212 51.1377 29.8971 51.1377 30.2471C51.1377 30.3453 51.1256 30.4522 51.1015 30.5712H48.8688V30.573ZM49.2878 29.6626C49.0998 29.8212 48.9706 30.035 48.9033 30.304H50.798C50.8015 30.2798 50.8032 30.2487 50.8032 30.2074C50.8032 29.9575 50.7273 29.766 50.5756 29.6281C50.4239 29.4919 50.2222 29.423 49.9687 29.423C49.7033 29.423 49.4757 29.5023 49.286 29.6609L49.2878 29.6626Z" fill="white"/>
<path d="M54.1117 29.3523C54.2788 29.5057 54.3616 29.7178 54.3616 29.9868C54.3616 30.0816 54.3514 30.1815 54.3306 30.2902L54.0271 31.8004H53.6686L53.9721 30.2849C53.9892 30.1901 53.9978 30.1091 53.9978 30.0419C53.9978 29.8505 53.9392 29.7023 53.8238 29.6006C53.7082 29.4988 53.5358 29.4471 53.31 29.4471C53.0237 29.4471 52.7875 29.5247 52.6031 29.6816C52.4186 29.8385 52.2928 30.0694 52.2289 30.3763L51.9463 31.8004H51.5876L52.1135 29.1419H52.4566L52.3703 29.566C52.6238 29.2695 52.9704 29.1212 53.4117 29.1212C53.7117 29.1212 53.9444 29.1971 54.1117 29.3505V29.3523Z" fill="white"/>
<path d="M55.584 30.9972C55.5703 31.0782 55.5634 31.1333 55.5634 31.1643C55.5634 31.4005 55.6908 31.5177 55.9478 31.5177C56.0995 31.5177 56.2357 31.473 56.3564 31.3816L56.4426 31.654C56.2909 31.7678 56.0943 31.8264 55.8513 31.8264C55.6529 31.8264 55.4944 31.7729 55.3788 31.6644C55.2633 31.5556 55.2047 31.4074 55.2047 31.2196C55.2047 31.1454 55.2116 31.0764 55.2254 31.0127L55.5339 29.4455H55.0634L55.1184 29.1421H55.5927L55.7081 28.561H56.0668L55.9512 29.1421H56.7598L56.6994 29.4455H55.8908L55.5823 30.9972H55.584Z" fill="white"/>
<path d="M59.9838 29.1421L59.4528 31.8005H59.1097L59.1959 31.3765C58.9459 31.6764 58.6046 31.8264 58.17 31.8264C57.8735 31.8264 57.6425 31.7505 57.4753 31.5971C57.308 31.4436 57.2253 31.2316 57.2253 30.9575C57.2253 30.8627 57.2356 30.7644 57.2563 30.6592L57.5598 29.1437H57.9183L57.6149 30.6592C57.5976 30.754 57.5891 30.8334 57.5891 30.8971C57.5891 31.092 57.646 31.242 57.758 31.347C57.8701 31.4522 58.0408 31.5039 58.2666 31.5039C58.5493 31.5039 58.7839 31.4247 58.9683 31.266C59.1528 31.1075 59.2786 30.8764 59.3424 30.573L59.6251 29.1437H59.9838V29.1421Z" fill="white"/>
<path d="M61.682 29.2453C61.8596 29.1627 62.0769 29.1212 62.3286 29.1212L62.2631 29.4695L62.1614 29.4643C61.8751 29.4643 61.6407 29.5471 61.4563 29.7127C61.2718 29.8781 61.1493 30.1229 61.0856 30.4505L60.8184 31.7988H60.4597L60.9855 29.1403H61.3287L61.2372 29.6246C61.3544 29.4523 61.5027 29.3265 61.682 29.2437V29.2453Z" fill="white"/>
<path d="M62.7544 30.573C62.7509 30.597 62.7493 30.6316 62.7493 30.6798C62.7493 30.9487 62.825 31.1539 62.9786 31.297C63.132 31.4401 63.3595 31.5091 63.6629 31.5091C63.8388 31.5091 64.0026 31.4797 64.156 31.4211C64.3094 31.3625 64.4353 31.2797 64.5318 31.1763L64.694 31.4332C64.5698 31.5573 64.4129 31.6539 64.2267 31.7229C64.0388 31.7918 63.8422 31.8263 63.6336 31.8263C63.2492 31.8263 62.9475 31.7246 62.7269 31.5229C62.5061 31.3212 62.3958 31.0453 62.3958 30.6935C62.3958 30.397 62.4596 30.1298 62.5855 29.8902C62.7113 29.6505 62.8871 29.4626 63.1113 29.3265C63.3354 29.1902 63.5871 29.1212 63.8664 29.1212C64.2198 29.1212 64.5009 29.2213 64.7094 29.4213C64.918 29.6212 65.0232 29.8971 65.0232 30.2471C65.0232 30.3453 65.0112 30.4522 64.987 30.5712H62.7544V30.573ZM63.1733 29.6626C62.9854 29.8212 62.8561 30.035 62.7888 30.304H64.6836C64.687 30.2798 64.6887 30.2487 64.6887 30.2074C64.6887 29.9575 64.6128 29.766 64.4612 29.6281C64.3094 29.4919 64.1078 29.423 63.8544 29.423C63.5888 29.423 63.3612 29.5023 63.1716 29.6609L63.1733 29.6626Z" fill="white"/>
<path d="M69.8781 30.2334C69.9764 30.3539 70.0246 30.5109 70.0246 30.7039C70.0246 31.0575 69.8901 31.3281 69.6229 31.5178C69.3557 31.7056 68.985 31.8004 68.5144 31.8004H66.8713L67.5782 28.2627H69.0886C69.4316 28.2627 69.6988 28.3264 69.8885 28.454C70.0781 28.5816 70.1746 28.7696 70.1746 29.0144C70.1746 29.2592 70.1092 29.4557 69.9782 29.623C69.8471 29.7902 69.673 29.9074 69.4575 29.9746C69.6402 30.0247 69.7798 30.1109 69.8764 30.2316L69.8781 30.2334ZM69.3678 31.2901C69.5592 31.1556 69.6557 30.9625 69.6557 30.7091C69.6557 30.5144 69.5867 30.3747 69.4506 30.2902C69.3143 30.2057 69.1075 30.1644 68.8316 30.1644H67.5678L67.3059 31.4936H68.5437C68.9006 31.4936 69.1747 31.4264 69.3678 31.2919V31.2901ZM67.8868 28.5712L67.63 29.8541H68.7575C69.0713 29.8541 69.3212 29.7868 69.511 29.6541C69.7005 29.5212 69.7937 29.3299 69.7937 29.0799C69.7937 28.9075 69.7265 28.7799 69.5936 28.6955C69.4609 28.6109 69.2695 28.5696 69.0196 28.5696H67.8868V28.5712Z" fill="white"/>
<path d="M73.5315 29.1421L73.0006 31.8005H72.6575L72.7436 31.3765C72.4937 31.6764 72.1523 31.8264 71.7178 31.8264C71.4212 31.8264 71.1903 31.7505 71.023 31.5971C70.8558 31.4436 70.7731 31.2316 70.7731 30.9575C70.7731 30.8627 70.7833 30.7644 70.8041 30.6592L71.1075 29.1437H71.4661L71.1626 30.6592C71.1455 30.754 71.1368 30.8334 71.1368 30.8971C71.1368 31.092 71.1937 31.242 71.3058 31.347C71.4179 31.4522 71.5885 31.5039 71.8143 31.5039C72.0971 31.5039 72.3316 31.4247 72.5161 31.266C72.7005 31.1075 72.8264 30.8764 72.8902 30.573L73.1729 29.1437H73.5315V29.1421Z" fill="white"/>
<path d="M74.5316 29.1419H74.8901L74.3643 31.8004H74.0056L74.5316 29.1419ZM74.6901 28.4902C74.6453 28.4438 74.6211 28.3885 74.6211 28.323C74.6211 28.2454 74.647 28.1799 74.6987 28.1282C74.7505 28.0765 74.8177 28.0505 74.8987 28.0505C74.9695 28.0505 75.0281 28.073 75.0763 28.1195C75.1229 28.1644 75.147 28.2178 75.147 28.2782C75.147 28.3592 75.1194 28.4265 75.066 28.4799C75.0125 28.5333 74.9453 28.561 74.8643 28.561C74.7935 28.561 74.7349 28.5368 74.6901 28.4902Z" fill="white"/>
<path d="M76.1124 28.0505H76.471L75.7228 31.8004H75.3641L76.1124 28.0505Z" fill="white"/>
<path d="M79.8968 28.0505L79.1486 31.8004H78.8055L78.8917 31.3815C78.7641 31.5229 78.6124 31.6332 78.4365 31.7091C78.2607 31.7866 78.0676 31.8246 77.8556 31.8246C77.6296 31.8246 77.4297 31.7797 77.2539 31.6883C77.0779 31.597 76.9418 31.4677 76.8452 31.297C76.7469 31.1263 76.6987 30.9281 76.6987 30.6988C76.6987 30.3988 76.7642 30.1298 76.8934 29.8902C77.0228 29.6505 77.2021 29.4626 77.4314 29.3265C77.6607 29.1902 77.9159 29.1212 78.1985 29.1212C78.4486 29.1212 78.6589 29.1713 78.8331 29.2695C79.0073 29.3695 79.1313 29.5109 79.2088 29.6971L79.5364 28.0505H79.8951H79.8968ZM78.5227 31.3469C78.6986 31.2401 78.8348 31.0936 78.9347 30.9022C79.0348 30.7126 79.083 30.4988 79.083 30.2626C79.083 30.0039 79.0072 29.8006 78.8537 29.654C78.7003 29.5074 78.4866 29.4333 78.2089 29.4333C77.99 29.4333 77.7934 29.4867 77.6176 29.5953C77.4417 29.704 77.3056 29.8523 77.2055 30.0419C77.1056 30.2316 77.0572 30.4453 77.0572 30.6815C77.0572 30.9419 77.1331 31.1436 77.2865 31.2883C77.4401 31.4332 77.6538 31.5056 77.9313 31.5056C78.1503 31.5056 78.3469 31.4521 78.5227 31.3469Z" fill="white"/>
<path d="M80.4829 30.573C80.4794 30.597 80.4778 30.6316 80.4778 30.6798C80.4778 30.9487 80.5535 31.1539 80.7071 31.297C80.8605 31.4401 81.088 31.5091 81.3914 31.5091C81.5674 31.5091 81.7312 31.4797 81.8846 31.4211C82.0379 31.3625 82.1638 31.2797 82.2603 31.1763L82.4225 31.4332C82.2983 31.5573 82.1414 31.6539 81.9553 31.7229C81.7673 31.7918 81.5707 31.8263 81.3621 31.8263C80.9777 31.8263 80.676 31.7246 80.4554 31.5229C80.2346 31.3212 80.1243 31.0453 80.1243 30.6935C80.1243 30.397 80.1881 30.1298 80.314 29.8902C80.4398 29.6505 80.6157 29.4626 80.8398 29.3265C81.064 29.1902 81.3157 29.1212 81.5949 29.1212C81.9483 29.1212 82.2294 29.2213 82.4381 29.4213C82.6465 29.6212 82.7517 29.8971 82.7517 30.2471C82.7517 30.3453 82.7397 30.4522 82.7155 30.5712H80.4829V30.573ZM80.9018 29.6626C80.714 29.8212 80.5846 30.035 80.5173 30.304H82.4121C82.4156 30.2798 82.4172 30.2487 82.4172 30.2074C82.4172 29.9575 82.3415 29.766 82.1897 29.6281C82.0379 29.4919 81.8363 29.423 81.5829 29.423C81.3173 29.423 81.0897 29.5023 80.9002 29.6609L80.9018 29.6626Z" fill="white"/>
<path d="M84.4241 29.2453C84.6017 29.1627 84.8189 29.1212 85.0706 29.1212L85.0051 29.4695L84.9033 29.4643C84.6172 29.4643 84.3828 29.5471 84.1982 29.7127C84.0137 29.8781 83.8914 30.1229 83.8275 30.4505L83.5603 31.7988H83.2018L83.7276 29.1403H84.0707L83.9793 29.6246C84.0965 29.4523 84.2448 29.3265 84.4241 29.2437V29.2453Z" fill="white"/>
</g>
</g>
<defs>
<clipPath id="clip0_93_179">
<rect width="86" height="41" fill="white"/>
</clipPath>
</defs>
</svg>
