<svg width="43" height="47" viewBox="0 0 43 47" fill="none" xmlns="http://www.w3.org/2000/svg">
<path fill-rule="evenodd" clip-rule="evenodd" d="M28.6104 43.3594C32.7162 42.2344 37.0149 41.6668 41.185 41.1469C42.0831 41.0379 42.917 41.6462 42.9812 42.5031C43.1095 43.3607 42.4676 44.1449 41.6336 44.2539C37.5918 44.7544 33.4222 45.29 29.5088 46.3731C28.6748 46.608 27.7762 46.1244 27.5196 45.2925C27.263 44.4613 27.7763 43.595 28.6104 43.3594Z" fill="#F19C1C"/>
<path fill-rule="evenodd" clip-rule="evenodd" d="M16.1645 27.4092C22.7724 20.8249 30.2143 15.0881 36.6939 8.32722C37.2713 7.69579 38.2978 7.66196 38.9393 8.25142C39.5809 8.84151 39.6448 9.83375 39.0032 10.4652C32.5236 17.2455 25.0817 23.001 18.4738 29.6047C17.8323 30.2211 16.8061 30.2299 16.1645 29.6235C15.5871 29.0178 15.523 28.0255 16.1645 27.4092Z" fill="#F19C1C"/>
<path fill-rule="evenodd" clip-rule="evenodd" d="M3.78256 2.0837C3.5901 5.85223 3.39801 9.62076 3.20555 13.3899C3.20555 14.2531 2.43532 14.9196 1.53716 14.8777C0.639 14.8351 -0.0021677 14.1003 -0.0021677 13.2364C0.190295 9.46165 0.382383 5.68748 0.574846 1.91332C0.639 1.05011 1.40898 0.387989 2.30714 0.434971C3.14114 0.481952 3.84672 1.22113 3.78256 2.0837Z" fill="#F19C1C"/>
</svg>
