<svg width="1920" height="980" viewBox="0 0 1920 980" fill="none" xmlns="http://www.w3.org/2000/svg">
<path opacity="0.0144928" d="M1627.23 1563.65C1636.29 1568.45 1647.43 1566.69 1654.55 1559.32L1880.89 1325.24C1885.1 1320.88 1887.42 1315.04 1887.35 1308.97L1881.73 842.909C1881.67 838.142 1880.14 833.511 1877.33 829.656L1637.19 499.549C1632.1 492.559 1623.53 489.011 1614.99 490.363L1334.54 534.782C1326 536.134 1318.94 542.159 1316.27 550.378L1189.88 938.537C1188.41 943.07 1188.37 947.95 1189.79 952.501L1328.47 1397.49C1330.28 1403.28 1334.29 1408.12 1339.65 1410.96L1627.23 1563.65Z" stroke="url(#paint0_linear_6_930)" stroke-width="4"/>
<path opacity="0.0289855" d="M1576.08 1562.16C1584.86 1567.4 1596.04 1566.23 1603.53 1559.27L1840.45 1339.33C1844.9 1335.2 1847.53 1329.47 1847.78 1323.41L1866.61 861.976C1866.8 857.198 1865.5 852.478 1862.89 848.473L1641.81 509.496C1637.09 502.265 1628.73 498.284 1620.14 499.187L1339.43 528.691C1330.84 529.593 1323.49 535.227 1320.38 543.28L1174.6 920.815C1172.88 925.276 1172.59 930.163 1173.78 934.795L1288.13 1382.23C1289.63 1388.11 1293.4 1393.16 1298.61 1396.27L1576.08 1562.16Z" stroke="url(#paint1_linear_6_930)" stroke-width="4"/>
<path opacity="0.0434783" d="M1525.32 1559.12C1533.8 1564.79 1544.99 1564.2 1552.83 1557.68L1799.47 1352.33C1804.14 1348.44 1807.09 1342.85 1807.65 1336.8L1850.43 881.271C1850.88 876.496 1849.82 871.7 1847.41 867.555L1645.66 520.788C1641.32 513.336 1633.19 508.935 1624.58 509.386L1344.39 524.07C1335.78 524.521 1328.15 529.749 1324.61 537.613L1160.21 903.569C1158.25 907.944 1157.7 912.824 1158.65 917.526L1248.8 1366.09C1250 1372.05 1253.51 1377.29 1258.56 1380.67L1525.32 1559.12Z" stroke="url(#paint2_linear_6_930)" stroke-width="4"/>
<path opacity="0.057971" d="M1475.04 1554.56C1483.19 1560.64 1494.37 1560.64 1502.52 1554.56L1758.02 1364.22C1762.9 1360.58 1766.15 1355.15 1767.03 1349.13L1833.19 900.737C1833.89 895.977 1833.09 891.117 1830.88 886.841L1648.67 533.37C1644.72 525.717 1636.83 520.909 1628.22 520.909L1349.34 520.909C1340.73 520.909 1332.84 525.717 1328.9 533.37L1146.68 886.841C1144.48 891.117 1143.67 895.977 1144.37 900.737L1210.53 1349.13C1211.42 1355.15 1214.66 1360.58 1219.54 1364.22L1475.04 1554.56Z" stroke="url(#paint3_linear_6_930)" stroke-width="4"/>
<path opacity="0.0724638" d="M1425.31 1548.54C1433.13 1555 1444.25 1555.58 1452.7 1549.97L1716.16 1374.99C1721.24 1371.62 1724.77 1366.36 1725.98 1360.39L1814.89 920.313C1815.84 915.582 1815.29 910.671 1813.3 906.274L1650.77 547.184C1647.22 539.351 1639.6 534.149 1631.02 533.699L1354.2 519.192C1345.62 518.742 1337.5 523.119 1333.15 530.538L1133.97 870.672C1131.54 874.837 1130.47 879.663 1130.92 884.468L1173.35 1331.42C1173.92 1337.49 1176.89 1343.09 1181.58 1346.97L1425.31 1548.54Z" stroke="url(#paint4_linear_6_930)" stroke-width="4"/>
<path opacity="0.0869565" d="M1376.22 1541.08C1383.67 1547.91 1394.71 1549.07 1403.43 1543.94L1673.95 1384.63C1679.22 1381.53 1683.03 1376.47 1684.55 1370.55L1795.53 939.941C1796.73 935.253 1796.43 930.303 1794.66 925.796L1651.9 562.169C1648.76 554.177 1641.43 548.597 1632.89 547.7L1358.9 518.902C1350.36 518.004 1342.03 521.938 1337.3 529.103L1122.05 855.102C1119.39 859.143 1118.06 863.922 1118.27 868.759L1137.29 1313.03C1137.55 1319.13 1140.22 1324.88 1144.73 1329.01L1376.22 1541.08Z" stroke="url(#paint5_linear_6_930)" stroke-width="4"/>
<path opacity="0.101449" d="M1327.83 1532.24C1334.91 1539.42 1345.83 1541.15 1354.78 1536.51L1631.46 1393.13C1636.89 1390.32 1640.98 1385.45 1642.81 1379.62L1775.1 959.564C1776.56 954.931 1776.52 949.955 1774.97 945.35L1652.01 578.26C1649.29 570.13 1642.27 564.19 1633.8 562.848L1363.35 520.013C1354.88 518.672 1346.37 522.152 1341.26 529.043L1110.88 840.168C1107.99 844.071 1106.41 848.79 1106.37 853.647L1102.38 1294.02C1102.32 1300.14 1104.71 1306.03 1109 1310.38L1327.83 1532.24Z" stroke="url(#paint6_linear_6_930)" stroke-width="4"/>
<path opacity="0.115942" d="M1280.21 1522.08C1286.89 1529.59 1297.68 1531.88 1306.84 1527.74L1588.74 1400.49C1594.33 1397.96 1598.67 1393.32 1600.82 1387.58L1753.63 979.123C1755.34 974.559 1755.55 969.57 1754.24 964.877L1651.04 595.391C1648.74 587.145 1642.05 580.861 1633.67 579.08L1367.48 522.5C1359.11 520.72 1350.44 523.738 1344.98 530.335L1100.42 825.903C1097.32 829.658 1095.48 834.302 1095.18 839.166L1068.65 1274.46C1068.28 1280.58 1070.36 1286.59 1074.43 1291.17L1280.21 1522.08Z" stroke="url(#paint7_linear_6_930)" stroke-width="4"/>
<path opacity="0.130435" d="M1233.42 1510.65C1239.7 1518.46 1250.32 1521.3 1259.66 1517.68L1545.87 1406.7C1551.59 1404.48 1556.19 1400.06 1558.64 1394.44L1731.12 998.562C1733.07 994.079 1733.55 989.091 1732.47 984.321L1648.96 613.492C1647.08 605.152 1640.73 598.542 1632.47 596.329L1371.23 526.33C1362.97 524.118 1354.17 526.668 1348.37 532.951L1090.63 812.341C1087.32 815.935 1085.23 820.492 1084.68 825.35L1036.12 1254.43C1035.43 1260.53 1037.2 1266.65 1041.05 1271.43L1233.42 1510.65Z" stroke="url(#paint8_linear_6_930)" stroke-width="4"/>
<path opacity="0.144928" d="M1187.54 1498C1193.4 1506.09 1203.81 1509.47 1213.31 1506.37L1502.89 1411.76C1508.74 1409.85 1513.57 1405.69 1516.32 1400.19L1707.58 1017.82C1709.78 1013.44 1710.51 1008.46 1709.68 1003.63L1645.7 632.493C1644.25 624.081 1638.26 617.164 1630.14 614.526L1374.52 531.471C1366.41 528.833 1357.49 530.908 1351.38 536.862L1081.47 799.511C1077.96 802.933 1075.63 807.389 1074.82 812.228L1004.81 1233.99C1003.8 1240.05 1005.26 1246.27 1008.87 1251.24L1187.54 1498Z" stroke="url(#paint9_linear_6_930)" stroke-width="4"/>
<path opacity="0.15942" d="M1142.61 1484.2C1148.04 1492.55 1158.22 1496.46 1167.84 1493.88L1459.89 1415.69C1465.83 1414.1 1470.89 1410.19 1473.93 1404.84L1683.03 1036.86C1685.47 1032.58 1686.46 1027.63 1685.87 1022.74L1641.24 652.32C1640.22 643.858 1634.6 636.653 1626.65 633.599L1377.3 537.882C1369.34 534.828 1360.34 536.424 1353.92 542.03L1072.89 787.441C1069.19 790.679 1066.62 795.021 1065.56 799.829L974.721 1213.21C973.4 1219.22 974.544 1225.51 977.898 1230.68L1142.61 1484.2Z" stroke="url(#paint10_linear_6_930)" stroke-width="4"/>
<path opacity="0.173913" d="M1098.69 1469.31C1103.68 1477.9 1113.61 1482.32 1123.32 1480.27L1416.9 1418.5C1422.94 1417.23 1428.21 1413.59 1431.53 1408.4L1657.5 1055.6C1660.16 1051.44 1661.42 1046.54 1661.07 1041.61L1635.53 672.898C1634.95 664.408 1629.72 656.937 1621.94 653.475L1379.48 545.524C1371.71 542.062 1362.66 543.176 1355.95 548.42L1064.86 776.155C1060.97 779.199 1058.16 783.415 1056.85 788.178L945.875 1192.17C944.241 1198.11 945.064 1204.47 948.158 1209.8L1098.69 1469.31Z" stroke="url(#paint11_linear_6_930)" stroke-width="4"/>
<path opacity="0.188406" d="M1055.84 1453.4C1060.36 1462.2 1070.02 1467.12 1079.8 1465.61L1374 1420.19C1380.11 1419.24 1385.58 1415.89 1389.18 1410.87L1630.99 1074.01C1633.88 1069.98 1635.4 1065.13 1635.3 1060.18L1628.56 694.15C1628.4 685.655 1623.57 677.938 1616 674.081L1381.02 554.35C1373.45 550.493 1364.37 551.123 1357.4 555.99L1057.32 765.677C1053.25 768.516 1050.22 772.592 1048.66 777.298L918.271 1170.93C916.329 1176.79 916.826 1183.19 919.652 1188.68L1055.84 1453.4Z" stroke="url(#paint12_linear_6_930)" stroke-width="4"/>
<path opacity="0.202899" d="M1014.09 1436.54C1018.15 1445.52 1027.5 1450.92 1037.32 1449.95L1331.25 1420.78C1337.4 1420.17 1343.05 1417.1 1346.92 1412.27L1603.55 1092.03C1606.66 1088.15 1608.43 1083.37 1608.59 1078.39L1620.29 716C1620.56 707.522 1616.14 699.581 1608.8 695.34L1381.86 564.315C1374.51 560.073 1365.42 560.22 1358.22 564.696L1050.23 756.024C1046 758.65 1042.74 762.574 1040.93 767.209L891.911 1149.57C889.664 1155.34 889.835 1161.76 892.384 1167.4L1014.09 1436.54Z" stroke="url(#paint13_linear_6_930)" stroke-width="4"/>
<path opacity="0.217391" d="M973.487 1418.79C977.081 1427.95 986.097 1433.8 995.921 1433.36L1288.69 1420.29C1294.88 1420.01 1300.7 1417.25 1304.82 1412.62L1575.19 1109.62C1578.51 1105.9 1580.53 1101.19 1580.94 1096.21L1610.69 738.37C1611.39 729.93 1607.4 721.788 1600.3 717.175L1381.93 575.366C1374.83 570.754 1365.77 570.418 1358.34 574.492L1043.54 747.216C1039.16 749.618 1035.68 753.379 1033.63 757.931L866.791 1128.16C864.245 1133.81 864.087 1140.25 866.353 1146.02L973.487 1418.79Z" stroke="url(#paint14_linear_6_930)" stroke-width="4"/>
<path opacity="0.231884" d="M934.07 1400.24C937.189 1409.53 945.852 1415.83 955.652 1415.92L1246.39 1418.73C1252.59 1418.79 1258.56 1416.34 1262.94 1411.94L1545.94 1126.72C1549.47 1123.17 1551.74 1118.55 1552.41 1113.59L1599.77 761.18C1600.89 752.801 1597.33 744.479 1590.49 739.51L1381.2 587.453C1374.36 582.483 1365.35 581.667 1357.72 585.327L1037.2 739.266C1032.68 741.435 1029 745.021 1026.7 749.477L842.905 1106.77C840.065 1112.29 839.578 1118.72 841.553 1124.61L934.07 1400.24Z" stroke="url(#paint15_linear_6_930)" stroke-width="4"/>
<path opacity="0.246377" d="M895.872 1380.96C898.509 1390.36 906.799 1397.07 916.546 1397.7L1204.39 1416.15C1210.6 1416.55 1216.7 1414.41 1221.31 1410.24L1515.84 1143.3C1519.57 1139.92 1522.09 1135.42 1523.01 1130.47L1587.49 784.352C1589.04 776.055 1585.91 767.577 1579.35 762.266L1379.61 600.519C1373.05 595.207 1364.11 593.915 1356.32 597.152L1031.17 732.185C1026.52 734.115 1022.64 737.514 1020.11 741.862L820.241 1085.46C817.114 1090.83 816.297 1097.25 817.977 1103.24L895.872 1380.96Z" stroke="url(#paint16_linear_6_930)" stroke-width="4"/>
<path opacity="0.26087" d="M858.919 1361.01C861.072 1370.5 868.967 1377.61 878.632 1378.76L1162.76 1412.55C1168.94 1413.29 1175.16 1411.49 1180 1407.55L1484.93 1159.3C1488.85 1156.12 1491.6 1151.73 1492.78 1146.82L1573.86 807.807C1575.82 799.613 1573.14 791.003 1566.88 785.365L1377.12 614.507C1370.86 608.869 1362.02 607.106 1354.07 609.912L1025.4 725.984C1020.63 727.666 1016.56 730.867 1013.8 735.095L798.784 1064.31C795.377 1069.52 794.232 1075.9 795.611 1081.97L858.919 1361.01Z" stroke="url(#paint17_linear_6_930)" stroke-width="4"/>
<path opacity="0.275362" d="M823.235 1340.48C824.902 1350.04 832.384 1357.52 841.938 1359.19L1121.53 1407.98C1127.68 1409.05 1134 1407.58 1139.04 1403.9L1453.24 1174.7C1457.33 1171.71 1460.32 1167.45 1461.75 1162.59L1558.87 831.466C1561.24 823.395 1559.01 814.676 1553.06 808.729L1373.69 629.357C1367.74 623.41 1359.02 621.184 1350.95 623.551L1019.83 720.669C1014.97 722.095 1010.71 725.089 1007.72 729.184L778.515 1043.38C774.837 1048.42 773.366 1054.74 774.439 1060.89L823.235 1340.48Z" stroke="url(#paint18_linear_6_930)" stroke-width="4"/>
<path opacity="0.289855" d="M788.839 1319.45C790.02 1329.04 797.07 1336.87 806.486 1339.05L1080.77 1402.46C1086.86 1403.87 1093.26 1402.74 1098.5 1399.33L1420.8 1189.44C1425.07 1186.66 1428.29 1182.55 1429.97 1177.74L1542.52 855.25C1545.29 847.324 1543.52 838.52 1537.9 832.281L1369.28 645.011C1363.66 638.772 1355.09 636.089 1346.92 638.012L1014.43 716.243C1009.47 717.408 1005.05 720.184 1001.84 724.134L759.413 1022.73C755.472 1027.59 753.677 1033.83 754.441 1040.04L788.839 1319.45Z" stroke="url(#paint19_linear_6_930)" stroke-width="4"/>
<path opacity="0.304348" d="M755.746 1297.98C756.441 1307.59 763.044 1315.74 772.293 1318.42L1040.5 1396.03C1046.52 1397.77 1052.99 1396.98 1058.41 1393.85L1387.67 1203.49C1392.09 1200.94 1395.54 1196.98 1397.46 1192.25L1524.83 879.082C1527.98 871.32 1526.67 862.455 1521.4 855.943L1363.86 661.403C1358.59 654.891 1350.19 651.762 1341.94 653.236L1009.14 712.708C1004.11 713.606 999.522 716.154 996.101 719.949L741.451 1002.44C737.258 1007.09 735.143 1013.25 735.595 1019.5L755.746 1297.98Z" stroke="url(#paint20_linear_6_930)" stroke-width="4"/>
<path opacity="0.318841" d="M723.966 1276.17C724.177 1285.76 730.318 1294.21 739.374 1297.37L1000.79 1388.72C1006.71 1390.79 1013.22 1390.35 1018.81 1387.5L1353.88 1216.83C1358.45 1214.5 1362.11 1210.71 1364.28 1206.06L1505.79 902.886C1509.33 895.307 1508.47 886.405 1503.56 879.639L1357.4 678.473C1352.48 671.706 1344.28 668.142 1335.98 669.164L1003.91 710.062C998.822 710.689 994.086 713 990.459 716.628L724.601 982.551C720.164 986.988 717.734 993.046 717.872 999.319L723.966 1276.17Z" stroke="url(#paint21_linear_6_930)" stroke-width="4"/>
<path opacity="0.333333" d="M693.505 1254.07C693.235 1263.63 698.901 1272.35 707.736 1275.99L961.659 1380.57C967.471 1382.97 974.01 1382.88 979.755 1380.33L1319.47 1229.41C1324.18 1227.32 1328.05 1223.71 1330.46 1219.16L1485.43 926.585C1489.34 919.208 1488.94 910.294 1484.39 903.293L1349.87 696.154C1345.33 689.153 1337.35 685.165 1329.02 685.734L998.705 708.302C993.566 708.653 988.694 710.719 984.869 714.169L708.829 963.136C704.161 967.346 701.42 973.284 701.243 979.567L693.505 1254.07Z" stroke="url(#paint22_linear_6_930)" stroke-width="4"/>
<path opacity="0.347826" d="M664.363 1231.78C663.618 1241.27 668.795 1250.24 677.386 1254.34L923.155 1371.63C928.839 1374.34 935.386 1374.6 941.27 1372.36L1284.5 1241.22C1289.33 1239.37 1293.4 1235.95 1296.05 1231.51L1463.76 950.107C1468.02 942.95 1468.09 934.047 1463.92 926.832L1341.26 714.381C1337.1 707.166 1329.36 702.768 1321.02 702.883L993.468 707.421C988.296 707.492 983.299 709.305 979.284 712.567L694.101 944.248C689.213 948.219 686.167 954.021 685.674 960.299L664.363 1231.78Z" stroke="url(#paint23_linear_6_930)" stroke-width="4"/>
<path opacity="0.362319" d="M636.537 1209.37C635.322 1218.77 640.002 1227.96 648.323 1232.5L885.312 1361.93C890.85 1364.95 897.387 1365.57 903.393 1363.63L1249.01 1252.22C1253.96 1250.63 1258.21 1247.41 1261.1 1243.08L1440.81 973.378C1445.42 966.459 1445.93 957.591 1442.16 950.183L1331.54 733.089C1327.77 725.681 1320.29 720.887 1311.98 720.55L988.155 707.41C982.965 707.199 977.856 708.752 973.661 711.815L680.378 925.941C675.282 929.661 671.938 935.312 671.129 941.57L636.537 1209.37Z" stroke="url(#paint24_linear_6_930)" stroke-width="4"/>
<path opacity="0.376812" d="M610.019 1186.91C608.342 1196.2 612.515 1205.58 620.544 1210.55L848.164 1351.51C853.538 1354.84 860.046 1355.81 866.158 1354.2L1213.05 1262.39C1218.09 1261.06 1222.53 1258.05 1225.64 1253.86L1416.6 996.33C1421.54 989.665 1422.51 980.855 1419.13 973.276L1320.71 752.211C1317.33 744.632 1310.14 739.457 1301.88 738.67L982.722 708.258C977.528 707.763 972.32 709.049 967.954 711.904L667.617 908.267C662.326 911.727 658.692 917.211 657.569 923.433L610.019 1186.91Z" stroke="url(#paint25_linear_6_930)" stroke-width="4"/>
<path opacity="0.391304" d="M584.798 1164.48C582.667 1173.64 586.327 1183.17 594.04 1188.55L811.74 1340.43C816.935 1344.06 823.394 1345.38 829.595 1344.09L1176.66 1271.72C1181.79 1270.65 1186.4 1267.86 1189.73 1263.81L1391.16 1018.89C1396.42 1012.5 1397.84 1003.77 1394.87 996.041L1308.75 771.682C1305.78 763.953 1298.89 758.414 1290.7 757.181L977.123 709.952C971.941 709.172 966.648 710.184 962.121 712.822L655.777 891.276C650.304 894.464 646.388 899.768 644.952 905.937L584.798 1164.48Z" stroke="url(#paint26_linear_6_930)" stroke-width="4"/>
<path opacity="0.405797" d="M560.859 1142.14C558.283 1151.15 561.424 1160.81 568.8 1166.58L776.068 1328.73C781.067 1332.64 787.459 1334.31 793.732 1333.35L1139.9 1280.18C1145.1 1279.38 1149.88 1276.82 1153.42 1272.93L1364.53 1041C1370.09 1034.89 1371.95 1026.27 1369.4 1018.41L1295.65 791.435C1293.1 783.578 1286.53 777.693 1278.43 776.019L971.316 712.476C966.162 711.409 960.797 712.143 956.119 714.555L644.809 875.013C639.168 877.921 634.979 883.03 633.234 889.132L560.859 1142.14Z" stroke="url(#paint27_linear_6_930)" stroke-width="4"/>
<path opacity="0.42029" d="M538.18 1119.98C535.171 1128.8 537.789 1138.57 544.808 1144.71L741.174 1316.46C745.96 1320.64 752.266 1322.66 758.594 1322.03L1102.82 1287.76C1108.08 1287.24 1113 1284.92 1116.75 1281.19L1336.75 1062.59C1342.6 1056.78 1344.89 1048.29 1342.76 1040.33L1281.42 811.404C1279.28 803.442 1273.05 797.23 1265.08 795.122L965.259 715.811C960.147 714.459 954.725 714.909 949.907 717.086L634.666 859.522C628.871 862.141 624.419 867.041 622.366 873.06L538.18 1119.98Z" stroke="url(#paint28_linear_6_930)" stroke-width="4"/>
<path opacity="0.434783" d="M516.739 1098.05C513.308 1106.68 515.4 1116.52 522.044 1123.01L707.078 1303.65C711.637 1308.1 717.838 1310.46 724.203 1310.17L1065.46 1294.45C1070.77 1294.21 1075.83 1292.13 1079.78 1288.58L1307.86 1083.61C1313.97 1078.11 1316.69 1069.76 1314.98 1061.72L1266.05 831.525C1264.34 823.48 1258.46 816.96 1250.64 814.426L958.91 719.937C953.857 718.3 948.392 718.463 943.445 720.399L625.295 844.844C619.362 847.165 614.656 851.843 612.302 857.764L516.739 1098.05Z" stroke="url(#paint29_linear_6_930)" stroke-width="4"/>
<path opacity="0.449275" d="M496.507 1076.43C492.667 1084.84 494.233 1094.73 500.484 1101.54L673.8 1290.37C678.117 1295.07 684.195 1297.77 690.579 1297.82L1027.89 1300.24C1033.23 1300.28 1038.41 1298.46 1042.55 1295.1L1277.89 1103.99C1284.26 1098.81 1287.39 1090.64 1286.11 1082.53L1249.55 851.732C1248.27 843.627 1242.77 836.821 1235.11 833.869L952.231 724.833C947.251 722.914 941.759 722.786 936.695 724.471L616.645 831.015C610.588 833.031 605.641 837.475 602.989 843.282L496.507 1076.43Z" stroke="url(#paint30_linear_6_930)" stroke-width="4"/>
<path opacity="0.463768" d="M477.454 1055.18C473.219 1063.35 474.26 1073.26 480.101 1080.37L641.357 1276.66C645.418 1281.6 651.354 1284.63 657.739 1285.02L990.143 1305.13C995.496 1305.46 1000.79 1303.9 1005.12 1300.73L1246.91 1123.67C1253.51 1118.84 1257.05 1110.85 1256.19 1102.71L1231.94 871.963C1231.08 863.822 1225.96 856.748 1218.5 853.391L945.184 730.474C940.293 728.274 934.787 727.853 929.619 729.283L608.661 818.068C602.495 819.774 597.318 823.97 594.374 829.65L477.454 1055.18Z" stroke="url(#paint31_linear_6_930)" stroke-width="4"/>
<path opacity="0.478261" d="M459.545 1034.36C454.93 1042.27 455.448 1052.17 460.865 1059.56L609.76 1262.57C613.552 1267.74 619.328 1271.09 625.697 1271.82L952.279 1309.11C957.633 1309.72 963.032 1308.43 967.534 1305.47L1214.95 1142.62C1221.77 1138.13 1225.7 1130.36 1225.27 1122.21L1213.22 892.155C1212.79 884 1208.07 876.683 1200.81 872.93L937.733 736.834C932.946 734.358 927.442 733.641 922.181 734.809L601.287 806.035C595.028 807.424 589.634 811.362 586.404 816.899L459.545 1034.36Z" stroke="url(#paint32_linear_6_930)" stroke-width="4"/>
<path opacity="0.492754" d="M442.742 1014.04C437.763 1021.68 437.763 1031.53 442.742 1039.17L579.022 1248.15C582.531 1253.53 588.13 1257.2 594.465 1258.27L914.348 1312.18C919.689 1313.08 925.176 1312.07 929.842 1309.32L1182.07 1160.78C1189.09 1156.64 1193.4 1149.11 1193.4 1140.96L1193.4 912.247C1193.4 904.101 1189.09 896.563 1182.07 892.429L929.842 743.886C925.176 741.138 919.689 740.124 914.348 741.025L594.465 794.942C588.13 796.01 582.531 799.678 579.022 805.059L442.742 1014.04Z" stroke="url(#paint33_linear_6_930)" stroke-width="4"/>
<path opacity="0.507246" d="M427.004 994.267C421.677 1001.61 421.164 1011.4 425.694 1019.26L549.149 1233.45C552.363 1239.03 557.768 1243 564.05 1244.41L876.401 1314.35C881.713 1315.54 887.274 1314.81 892.096 1312.28L1148.33 1178.1C1155.53 1174.33 1160.2 1167.04 1160.63 1158.93L1172.51 932.181C1172.94 924.066 1169.05 916.33 1162.29 911.828L921.48 751.6C916.949 748.585 911.494 747.274 906.087 747.902L588.136 784.812C581.742 785.555 575.951 788.943 572.171 794.154L427.004 994.267Z" stroke="url(#paint34_linear_6_930)" stroke-width="4"/>
<path opacity="0.521739" d="M412.288 975.097C406.631 982.132 405.612 991.825 409.683 999.882L520.146 1218.52C523.055 1224.28 528.248 1228.55 534.459 1230.29L838.487 1315.62C843.755 1317.1 849.378 1316.65 854.345 1314.36L1113.78 1194.55C1121.14 1191.15 1126.17 1184.13 1127.01 1176.07L1150.58 951.898C1151.42 943.838 1147.97 935.927 1141.48 931.074L912.616 759.946C908.234 756.669 902.828 755.062 897.368 755.413L582.242 775.666C575.805 776.08 569.837 779.179 565.794 784.206L412.288 975.097Z" stroke="url(#paint35_linear_6_930)" stroke-width="4"/>
<path opacity="0.536232" d="M398.547 956.583C392.578 963.294 391.062 972.866 394.665 981.093L492.015 1203.41C494.608 1209.33 499.574 1213.89 505.696 1215.96L800.657 1316C805.866 1317.76 811.536 1317.61 816.638 1315.55L1078.49 1210.09C1085.98 1207.07 1091.34 1200.33 1092.61 1192.35L1127.61 971.342C1128.88 963.359 1125.86 955.298 1119.66 950.11L903.22 768.891C899.003 765.36 893.66 763.457 888.16 763.528L576.723 767.52C570.258 767.603 564.127 770.402 559.831 775.233L398.547 956.583Z" stroke="url(#paint36_linear_6_930)" stroke-width="4"/>
<path opacity="0.550725" d="M385.732 938.771C379.47 945.145 377.467 954.57 380.595 962.94L464.755 1188.16C467.023 1194.23 471.746 1199.06 477.761 1201.47L762.96 1315.5C768.094 1317.55 773.796 1317.69 779.022 1315.88L1042.5 1224.68C1050.12 1222.04 1055.8 1215.61 1057.47 1207.72L1103.65 990.462C1105.33 982.577 1102.76 974.391 1096.87 968.884L893.266 778.402C889.228 774.624 883.964 772.427 878.438 772.214L571.516 760.386C565.042 760.136 558.763 762.629 554.223 767.251L385.732 938.771Z" stroke="url(#paint37_linear_6_930)" stroke-width="4"/>
<path opacity="0.565217" d="M373.792 921.707C367.256 927.731 364.778 936.982 367.425 945.468L438.363 1172.84C440.297 1179.03 444.761 1184.13 450.653 1186.85L725.442 1314.13C730.487 1316.47 736.208 1316.9 741.545 1315.35L1005.89 1238.29C1013.6 1236.04 1019.59 1229.93 1021.67 1222.16L1078.73 1009.2C1080.81 1001.44 1078.69 993.153 1073.13 987.346L882.728 788.443C878.884 784.427 873.714 781.939 868.177 781.441L566.563 754.273C560.096 753.691 553.684 755.869 548.91 760.27L373.792 921.707Z" stroke="url(#paint38_linear_6_930)" stroke-width="4"/>
<path opacity="0.57971" d="M362.673 905.431C355.884 911.094 352.943 920.148 355.106 928.72L412.833 1157.47C414.425 1163.78 418.616 1169.12 424.366 1172.17L688.151 1311.92C693.092 1314.54 698.816 1315.27 704.254 1313.97L968.713 1250.9C976.51 1249.04 982.776 1243.26 985.252 1235.64L1052.87 1027.52C1055.35 1019.9 1053.68 1011.53 1048.47 1005.45L871.584 798.981C867.947 794.735 862.888 791.96 857.353 791.173L561.801 749.187C555.358 748.272 548.829 750.129 543.832 754.298L362.673 905.431Z" stroke="url(#paint39_linear_6_930)" stroke-width="4"/>
<path opacity="0.594203" d="M352.32 889.981C345.298 895.272 341.908 904.104 343.585 912.735L388.155 1142.12C389.399 1148.52 393.303 1154.09 398.895 1157.45L651.133 1308.88C655.953 1311.77 661.667 1312.8 667.194 1311.77L931.039 1262.49C938.895 1261.03 945.425 1255.59 948.289 1248.13L1026.12 1045.36C1028.99 1037.9 1027.77 1029.49 1022.92 1023.14L859.814 809.977C856.397 805.512 851.463 802.453 845.944 801.378L557.17 745.131C550.768 743.884 544.138 745.413 538.93 749.339L352.32 889.981Z" stroke="url(#paint40_linear_6_930)" stroke-width="4"/>
<path opacity="0.608696" d="M342.676 875.39C335.443 880.301 331.619 888.889 332.81 897.55L364.319 1126.82C365.209 1133.3 368.813 1139.09 374.23 1142.75L614.431 1305.03C619.117 1308.2 624.805 1309.52 630.408 1308.76L892.931 1273.04C900.825 1271.97 907.601 1266.88 910.841 1259.6L998.513 1062.69C1001.75 1055.41 1001 1046.98 996.513 1040.39L847.397 821.395C844.215 816.721 839.421 813.383 833.933 812.019L552.609 742.101C546.265 740.525 539.55 741.722 534.142 745.394L342.676 875.39Z" stroke="url(#paint41_linear_6_930)" stroke-width="4"/>
<path opacity="0.623188" d="M333.683 861.69C326.259 866.212 322.02 874.533 322.725 883.197L341.311 1111.63C341.842 1118.16 345.134 1124.15 350.358 1128.1L578.088 1300.4C582.624 1303.83 588.272 1305.46 593.939 1304.97L854.453 1282.53C862.366 1281.85 869.367 1277.13 872.973 1270.06L970.088 1079.46C973.693 1072.38 973.393 1063.95 969.293 1057.14L834.319 833.196C831.383 828.324 826.745 824.713 821.302 823.061L548.059 740.094C541.789 738.191 535.006 739.051 529.411 742.46L333.683 861.69Z" stroke="url(#paint42_linear_6_930)" stroke-width="4"/>
<path opacity="0.637681" d="M325.282 848.906C317.689 853.032 313.051 861.067 313.273 869.706L319.115 1096.57C319.284 1103.14 322.251 1109.32 327.268 1113.55L542.146 1295C546.518 1298.69 552.109 1300.62 557.828 1300.41L815.672 1290.96C823.584 1290.67 830.79 1286.33 834.748 1279.47L940.888 1095.63C944.846 1088.78 945 1080.37 941.296 1073.37L820.564 845.342C817.887 840.284 813.42 836.407 808.037 834.467L543.459 739.101C537.281 736.874 530.446 737.395 524.677 740.531L325.282 848.906Z" stroke="url(#paint43_linear_6_930)" stroke-width="4"/>
<path opacity="0.652174" d="M317.412 837.061C309.672 840.786 304.654 848.514 304.398 857.1L297.712 1081.71C297.516 1088.29 300.149 1094.64 304.943 1099.14L506.643 1288.88C510.837 1292.83 516.357 1295.05 522.114 1295.13L776.653 1298.31C784.543 1298.41 791.933 1294.46 796.23 1287.84L910.958 1111.17C915.255 1104.56 915.86 1096.2 912.561 1089.03L806.122 857.793C803.714 852.563 799.433 848.426 794.123 846.2L538.752 739.11C532.682 736.564 525.813 736.741 519.882 739.596L317.412 837.061Z" stroke="url(#paint44_linear_6_930)" stroke-width="4"/>
<path opacity="0.666667" d="M310.012 826.173C302.147 829.494 296.768 836.897 296.041 845.403L277.083 1067.07C276.52 1073.64 278.808 1080.14 283.364 1084.91L471.617 1282.06C475.618 1286.25 481.053 1288.77 486.835 1289.13L737.462 1304.59C745.311 1305.07 752.863 1301.51 757.485 1295.15L880.343 1126.05C884.965 1119.69 886.017 1111.41 883.131 1104.09L790.981 870.51C788.855 865.121 784.773 860.733 779.552 858.222L533.881 740.105C527.935 737.246 521.048 737.079 514.97 739.645L310.012 826.173Z" stroke="url(#paint45_linear_6_930)" stroke-width="4"/>
<path opacity="0.681159" d="M303.02 816.26C295.052 819.171 289.334 826.232 288.142 834.631L257.204 1052.69C256.275 1059.24 258.209 1065.87 262.513 1070.89L437.104 1274.57C440.898 1279 446.232 1281.82 452.027 1282.46L698.162 1309.8C705.951 1310.66 713.644 1307.5 718.575 1301.41L849.092 1140.24C854.023 1134.15 855.515 1125.97 853.049 1118.53L775.135 883.454C773.3 877.92 769.433 873.289 764.314 870.498L528.79 742.069C522.984 738.903 516.096 738.389 509.884 740.659L303.02 816.26Z" stroke="url(#paint46_linear_6_930)" stroke-width="4"/>
<path opacity="0.695652" d="M296.374 807.33C288.326 809.831 282.29 816.535 280.643 824.8L238.051 1038.62C236.756 1045.12 238.33 1051.87 242.368 1057.12L403.136 1266.44C406.711 1271.1 411.929 1274.21 417.723 1275.14L658.819 1313.94C666.528 1315.18 674.34 1312.42 679.565 1306.62L817.251 1153.7C822.476 1147.9 824.4 1139.84 822.36 1132.31L758.578 896.585C757.045 890.92 753.405 886.056 748.402 882.987L523.424 744.979C517.773 741.513 510.902 740.653 504.571 742.621L296.374 807.33Z" stroke="url(#paint47_linear_6_930)" stroke-width="4"/>
<path opacity="0.710145" d="M290.013 799.392C281.906 801.483 275.575 807.814 273.484 815.921L219.6 1024.89C217.94 1031.32 219.145 1038.16 222.904 1043.64L369.747 1257.72C373.088 1262.59 378.176 1265.99 383.956 1267.21L619.496 1317.02C627.107 1318.63 635.016 1316.28 640.517 1310.78L784.871 1166.42C790.372 1160.92 792.719 1153.01 791.11 1145.4L741.306 909.863C740.084 904.084 736.685 898.996 731.814 895.654L517.731 748.812C512.251 745.053 505.413 743.848 498.978 745.508L290.013 799.392Z" stroke="url(#paint48_linear_6_930)" stroke-width="4"/>
<path opacity="0.724638" d="M283.874 792.45C275.73 794.13 269.127 800.076 266.605 807.999L201.82 1011.52C199.8 1017.87 200.63 1024.78 204.098 1030.47L336.963 1248.44C340.059 1253.52 345.001 1257.2 350.754 1258.71L580.254 1319.05C587.75 1321.02 595.733 1319.09 601.493 1313.9L752.001 1178.38C757.76 1173.2 760.521 1165.46 759.344 1157.8L723.32 923.249C722.417 917.371 719.272 912.07 714.545 908.461L511.659 753.539C506.365 749.497 499.578 747.948 493.054 749.294L283.874 792.45Z" stroke="url(#paint49_linear_6_930)" stroke-width="4"/>
<path opacity="0.73913" d="M277.897 786.504C269.738 787.775 262.887 793.323 259.947 801.04L184.684 998.559C182.306 1004.8 182.758 1011.77 185.922 1017.65L304.814 1238.63C307.651 1243.9 312.434 1247.86 318.145 1249.67L541.156 1320.06C548.517 1322.39 556.554 1320.86 562.553 1316L718.692 1189.56C724.691 1184.71 727.853 1177.16 727.111 1169.48L704.62 936.704C704.044 930.743 701.165 925.242 696.597 921.37L505.161 759.132C500.066 754.814 493.347 752.924 486.748 753.952L277.897 786.504Z" stroke="url(#paint50_linear_6_930)" stroke-width="4"/>
<path opacity="0.753623" d="M272.021 781.549C263.868 782.415 256.793 787.556 253.45 795.042L168.161 986.028C165.431 992.141 165.5 999.14 168.349 1005.2L273.322 1228.34C275.889 1233.8 280.498 1238.03 286.154 1240.12L502.259 1320.06C509.471 1322.73 517.538 1321.62 523.758 1317.1L684.995 1199.95C691.215 1195.43 694.766 1188.1 694.457 1180.42L685.209 950.19C684.967 944.163 682.367 938.473 677.97 934.345L498.188 765.556C493.307 760.973 486.673 758.745 480.015 759.452L272.021 781.549Z" stroke="url(#paint51_linear_6_930)" stroke-width="4"/>
<path opacity="0.768116" d="M266.186 777.579C258.06 778.044 250.786 782.768 247.056 790.002L152.217 973.956C149.142 979.921 148.825 986.932 151.351 993.15L242.51 1217.6C244.796 1223.23 249.216 1227.73 254.805 1230.11L463.623 1319.07C470.667 1322.08 478.743 1321.37 485.164 1317.2L650.961 1209.53C657.383 1205.36 661.308 1198.27 661.431 1190.62L665.092 963.666C665.19 957.592 662.881 951.726 658.669 947.348L490.697 772.776C486.044 767.94 479.51 765.377 472.81 765.76L266.186 777.579Z" stroke="url(#paint52_linear_6_930)" stroke-width="4"/>
<path opacity="0.782609" d="M260.332 774.584C252.255 774.652 244.806 778.953 240.708 785.914L136.821 962.367C133.408 968.165 132.704 975.167 134.896 981.528L212.399 1206.47C214.392 1212.26 218.61 1217.01 224.118 1219.68L425.302 1317.13C432.163 1320.45 440.226 1320.16 446.829 1316.35L616.642 1218.31C623.245 1214.49 627.529 1207.66 628.081 1200.05L644.278 977.098C644.721 970.994 642.714 964.965 638.699 960.345L482.645 780.755C478.232 775.676 471.816 772.784 465.088 772.841L260.332 774.584Z" stroke="url(#paint53_linear_6_930)" stroke-width="4"/>
<path opacity="0.797101" d="M254.404 772.548C246.395 772.227 238.797 776.098 234.349 782.766L121.938 951.284C118.195 956.896 117.104 963.867 118.954 970.354L183.005 1194.98C184.695 1200.91 188.697 1205.91 194.11 1208.86L387.351 1314.26C394.014 1317.89 402.042 1318 408.805 1314.56L582.088 1226.26C588.851 1222.82 593.479 1216.26 594.455 1208.73L622.774 990.447C623.568 984.332 621.872 978.154 618.069 973.301L473.994 789.452C469.833 784.143 463.551 780.928 456.811 780.658L254.404 772.548Z" stroke="url(#paint54_linear_6_930)" stroke-width="4"/>
<path opacity="0.811594" d="M248.343 771.454C240.423 770.751 232.701 774.189 227.924 780.545L107.533 940.729C103.47 946.135 101.992 953.055 103.492 959.649L154.342 1183.17C155.721 1189.23 159.492 1194.47 164.798 1197.71L349.82 1310.48C356.271 1314.42 364.243 1314.93 371.146 1311.86L547.351 1233.41C554.253 1230.33 559.206 1224.06 560.601 1216.64L600.594 1003.68C601.741 997.57 600.367 991.258 596.787 986.18L464.705 798.827C460.808 793.3 454.676 789.768 447.94 789.17L248.343 771.454Z" stroke="url(#paint55_linear_6_930)" stroke-width="4"/>
<path opacity="0.826087" d="M242.097 771.282C234.285 770.205 226.465 773.207 221.379 779.235L93.5701 930.719C89.1978 935.901 87.3349 942.748 88.4789 949.431L126.424 1171.09C127.481 1177.26 131.009 1182.74 136.195 1186.25L312.759 1305.85C318.985 1310.07 326.88 1310.98 333.9 1308.28L512.48 1239.73C519.501 1237.04 524.76 1231.08 526.565 1223.78L577.748 1016.75C579.252 1010.67 578.21 1004.24 574.865 998.949L454.745 808.835C451.123 803.103 445.157 799.261 438.44 798.335L242.097 771.282Z" stroke="url(#paint56_linear_6_930)" stroke-width="4"/>
<path opacity="0.84058" d="M235.613 772.007C227.926 770.567 220.034 773.131 214.662 778.815L80.0127 921.27C75.3431 926.21 73.0982 932.963 73.8805 939.716L99.259 1158.78C99.9857 1165.05 103.259 1170.75 108.311 1174.54L276.214 1300.4C282.202 1304.89 289.999 1306.18 297.117 1303.87L477.525 1245.25C484.642 1242.94 490.189 1237.31 492.395 1230.16L554.253 1029.64C556.115 1023.61 555.414 1017.08 552.315 1011.58L444.083 819.43C440.746 813.507 434.961 809.363 428.279 808.111L235.613 772.007Z" stroke="url(#paint57_linear_6_930)" stroke-width="4"/>
<path opacity="0.855072" d="M228.839 773.604C221.296 771.81 213.357 773.938 207.722 779.263L66.8242 912.397C61.8702 917.078 59.2475 923.715 59.6634 930.518L72.8551 1146.29C73.2436 1152.65 76.2487 1158.56 81.1549 1162.61L240.229 1294.16C245.967 1298.91 253.647 1300.58 260.839 1298.65L442.533 1249.97C449.726 1248.04 455.54 1242.75 458.137 1235.77L530.125 1042.31C532.346 1036.35 531.993 1029.73 529.153 1024.03L432.689 830.566C429.648 824.466 424.058 820.03 417.428 818.453L228.839 773.604Z" stroke="url(#paint58_linear_6_930)" stroke-width="4"/>
<path opacity="0.869565" d="M221.729 776.042C214.347 773.907 206.386 775.599 200.511 780.552L53.9672 904.11C48.7428 908.515 45.7477 915.015 45.7936 921.849L47.2165 1133.67C47.2596 1140.09 49.9845 1146.2 54.7321 1150.52L204.845 1287.18C210.322 1292.17 217.865 1294.21 225.111 1292.67L407.554 1253.89C414.799 1252.35 420.859 1247.42 423.835 1240.64L505.382 1054.73C507.962 1048.85 507.966 1042.16 505.394 1036.28L420.54 842.194C417.802 835.932 412.422 831.213 405.858 829.313L221.729 776.042Z" stroke="url(#paint59_linear_6_930)" stroke-width="4"/>
<path opacity="0.884058" d="M214.234 779.29C207.029 776.825 199.072 778.085 192.982 782.656L41.4045 896.419C35.9245 900.532 32.5635 906.874 32.2369 913.718L22.3451 1120.94C22.0363 1127.41 24.4691 1133.71 29.046 1138.3L170.099 1279.51C175.306 1284.72 182.694 1287.13 189.97 1285.98L372.632 1257.04C379.909 1255.89 386.193 1251.32 389.533 1244.76L480.044 1066.86C482.981 1061.09 483.349 1054.35 481.056 1048.29L407.612 854.265C405.186 847.857 400.03 842.864 393.547 840.646L214.234 779.29Z" stroke="url(#paint60_linear_6_930)" stroke-width="4"/>
<path opacity="0.898551" d="M206.312 783.312C199.3 780.531 191.371 781.364 185.09 785.543L29.0985 889.331C23.3788 893.137 19.6598 899.3 18.959 906.134L-1.75981 1108.17C-2.42637 1114.67 -0.296745 1121.15 4.09722 1125.99L136.027 1271.19C140.954 1276.62 148.168 1279.37 155.454 1278.6L337.813 1259.43C345.099 1258.67 351.584 1254.48 355.276 1248.15L454.133 1078.69C457.425 1073.04 458.162 1066.27 456.158 1060.05L393.885 866.728C391.779 860.189 386.86 854.933 380.474 852.4L206.312 783.312Z" stroke="url(#paint61_linear_6_930)" stroke-width="4"/>
<path opacity="0.913043" d="M197.922 788.072C191.118 784.988 183.24 785.401 176.795 789.179L17.0119 882.851C11.0695 886.334 7.00133 892.298 5.92591 899.102L-25.1012 1095.4C-26.1306 1101.91 -24.3152 1108.55 -20.1159 1113.64L102.66 1262.27C107.299 1267.89 114.323 1270.98 121.597 1270.6L303.139 1261.08C310.413 1260.7 317.076 1256.9 321.102 1250.83L427.669 1090.17C431.314 1084.68 432.426 1077.88 430.721 1071.51L379.345 879.531C377.564 872.877 372.895 867.372 366.621 864.528L197.922 788.072Z" stroke="url(#paint62_linear_6_930)" stroke-width="4"/>
<path opacity="0.927536" d="M189.025 793.53C182.442 790.159 174.64 790.159 168.057 793.53L5.10768 876.98C-1.03972 880.128 -5.44694 885.872 -6.89628 892.625L-47.6845 1082.66C-49.0812 1089.17 -47.5904 1095.96 -43.5974 1101.29L70.0273 1252.81C74.3709 1258.6 81.1883 1262.01 88.4281 1262.01L268.653 1262.01C275.893 1262.01 282.711 1258.6 287.054 1252.81L400.679 1101.29C404.672 1095.96 406.163 1089.17 404.766 1082.66L363.978 892.625C362.528 885.872 358.121 880.128 351.974 876.98L189.025 793.53Z" stroke="url(#paint63_linear_6_930)" stroke-width="4"/>
<path opacity="0.942029" d="M179.585 799.646C173.237 796.003 165.533 795.599 158.838 798.559L-6.65097 871.718C-12.9848 874.518 -17.7197 880.023 -19.5413 886.704L-69.5179 1070.01C-71.2854 1076.49 -70.1295 1083.42 -66.3539 1088.98L38.1531 1242.84C42.1957 1248.79 48.7905 1252.51 55.9755 1252.89L234.394 1262.24C241.579 1262.61 248.526 1259.61 253.169 1254.11L373.186 1112.02C377.522 1106.88 379.396 1100.11 378.316 1093.48L347.774 905.955C346.66 899.12 342.527 893.15 336.52 889.703L179.585 799.646Z" stroke="url(#paint64_linear_6_930)" stroke-width="4"/>
<path opacity="0.956522" d="M169.571 806.376C163.468 802.477 155.885 801.68 149.105 804.225L-18.3002 867.065C-24.801 869.505 -29.8514 874.752 -32.0423 881.341L-90.6117 1057.48C-92.7529 1063.92 -91.9413 1070.97 -88.3942 1076.76L7.05957 1232.43C10.7962 1238.52 17.1538 1242.53 24.2629 1243.28L200.4 1261.79C207.509 1262.54 214.561 1259.94 219.483 1254.76L345.217 1122.33C349.89 1117.41 352.15 1110.68 351.395 1103.93L330.726 919.469C329.953 912.569 326.104 906.387 320.253 902.648L169.571 806.376Z" stroke="url(#paint65_linear_6_930)" stroke-width="4"/>
<path opacity="0.971014" d="M158.952 813.677C153.106 809.538 145.665 808.359 138.826 810.489L-29.876 863.016C-36.5235 865.085 -41.8757 870.055 -44.432 876.531L-110.979 1045.11C-113.495 1051.49 -113.037 1058.65 -109.729 1064.66L-23.235 1221.63C-19.8084 1227.85 -13.7016 1232.13 -6.68875 1233.24L166.706 1260.71C173.719 1261.82 180.851 1259.63 186.032 1254.77L316.8 1132.21C321.801 1127.53 324.451 1120.85 324.027 1114.01L312.832 933.116C312.402 926.167 308.848 919.787 303.165 915.764L158.952 813.677Z" stroke="url(#paint66_linear_6_930)" stroke-width="4"/>
<path opacity="0.985507" d="M147.702 821.501C142.122 817.14 134.844 815.593 127.972 817.307L-41.4127 859.564C-48.186 861.253 -53.8253 865.928 -56.7419 872.27L-130.634 1032.95C-133.527 1039.24 -133.431 1046.51 -130.373 1052.72L-52.7154 1210.49C-49.6016 1216.81 -43.7584 1221.36 -36.8618 1222.83L133.346 1259.01C140.243 1260.47 147.431 1258.69 152.848 1254.18L287.961 1141.64C293.283 1137.21 296.324 1130.61 296.24 1123.69L294.091 946.842C294.007 939.862 290.756 933.298 285.256 928.999L147.702 821.501Z" stroke="url(#paint67_linear_6_930)" stroke-width="4"/>
<path d="M135.797 829.803C130.492 825.237 123.396 823.336 116.519 824.637L-52.9451 856.702C-59.8225 858.003 -65.7332 862.365 -69.0038 868.553L-149.594 1021.04C-152.864 1027.23 -153.139 1034.57 -150.34 1040.98L-81.3705 1199.06C-78.5715 1205.48 -73.0034 1210.27 -66.2424 1212.08L100.351 1256.72C107.112 1258.53 114.33 1257.17 119.962 1253.01L258.732 1150.59C264.363 1146.44 267.796 1139.94 268.058 1132.95L274.506 960.597C274.768 953.602 271.831 946.869 266.525 942.303L135.797 829.803Z" stroke="url(#paint68_linear_6_930)" stroke-width="4"/>
<defs>
<linearGradient id="paint0_linear_6_930" x1="1642.91" y1="1574.24" x2="1459.03" y2="413.222" gradientUnits="userSpaceOnUse">
<stop stop-color="#FF9700" stop-opacity="0.24"/>
<stop offset="1" stop-color="#281802"/>
</linearGradient>
<linearGradient id="paint1_linear_6_930" x1="1591.15" y1="1573.5" x2="1469.36" y2="414.766" gradientUnits="userSpaceOnUse">
<stop stop-color="#FF9700" stop-opacity="0.24"/>
<stop offset="1" stop-color="#281802"/>
</linearGradient>
<linearGradient id="paint2_linear_6_930" x1="1539.74" y1="1571.17" x2="1479.31" y2="418.015" gradientUnits="userSpaceOnUse">
<stop stop-color="#FF9700" stop-opacity="0.24"/>
<stop offset="1" stop-color="#281802"/>
</linearGradient>
<linearGradient id="paint3_linear_6_930" x1="1488.78" y1="1567.29" x2="1488.78" y2="422.93" gradientUnits="userSpaceOnUse">
<stop stop-color="#FF9700" stop-opacity="0.24"/>
<stop offset="1" stop-color="#281802"/>
</linearGradient>
<linearGradient id="paint4_linear_6_930" x1="1438.34" y1="1561.9" x2="1497.69" y2="429.471" gradientUnits="userSpaceOnUse">
<stop stop-color="#FF9700" stop-opacity="0.24"/>
<stop offset="1" stop-color="#281802"/>
</linearGradient>
<linearGradient id="paint5_linear_6_930" x1="1388.51" y1="1555.05" x2="1505.95" y2="437.59" gradientUnits="userSpaceOnUse">
<stop stop-color="#FF9700" stop-opacity="0.24"/>
<stop offset="1" stop-color="#281802"/>
</linearGradient>
<linearGradient id="paint6_linear_6_930" x1="1339.34" y1="1546.77" x2="1513.49" y2="447.237" gradientUnits="userSpaceOnUse">
<stop stop-color="#FF9700" stop-opacity="0.24"/>
<stop offset="1" stop-color="#281802"/>
</linearGradient>
<linearGradient id="paint7_linear_6_930" x1="1290.93" y1="1537.12" x2="1520.23" y2="458.358" gradientUnits="userSpaceOnUse">
<stop stop-color="#FF9700" stop-opacity="0.24"/>
<stop offset="1" stop-color="#281802"/>
</linearGradient>
<linearGradient id="paint8_linear_6_930" x1="1243.33" y1="1526.15" x2="1526.08" y2="470.893" gradientUnits="userSpaceOnUse">
<stop stop-color="#FF9700" stop-opacity="0.24"/>
<stop offset="1" stop-color="#281802"/>
</linearGradient>
<linearGradient id="paint9_linear_6_930" x1="1196.61" y1="1513.93" x2="1531" y2="484.781" gradientUnits="userSpaceOnUse">
<stop stop-color="#FF9700" stop-opacity="0.24"/>
<stop offset="1" stop-color="#281802"/>
</linearGradient>
<linearGradient id="paint10_linear_6_930" x1="1150.82" y1="1500.51" x2="1534.9" y2="499.957" gradientUnits="userSpaceOnUse">
<stop stop-color="#FF9700" stop-opacity="0.24"/>
<stop offset="1" stop-color="#281802"/>
</linearGradient>
<linearGradient id="paint11_linear_6_930" x1="1106.04" y1="1485.95" x2="1537.73" y2="516.351" gradientUnits="userSpaceOnUse">
<stop stop-color="#FF9700" stop-opacity="0.24"/>
<stop offset="1" stop-color="#281802"/>
</linearGradient>
<linearGradient id="paint12_linear_6_930" x1="1062.3" y1="1470.33" x2="1539.44" y2="533.894" gradientUnits="userSpaceOnUse">
<stop stop-color="#FF9700" stop-opacity="0.24"/>
<stop offset="1" stop-color="#281802"/>
</linearGradient>
<linearGradient id="paint13_linear_6_930" x1="1019.66" y1="1453.71" x2="1539.96" y2="552.511" gradientUnits="userSpaceOnUse">
<stop stop-color="#FF9700" stop-opacity="0.24"/>
<stop offset="1" stop-color="#281802"/>
</linearGradient>
<linearGradient id="paint14_linear_6_930" x1="978.158" y1="1436.16" x2="1539.27" y2="572.127" gradientUnits="userSpaceOnUse">
<stop stop-color="#FF9700" stop-opacity="0.24"/>
<stop offset="1" stop-color="#281802"/>
</linearGradient>
<linearGradient id="paint15_linear_6_930" x1="937.837" y1="1417.75" x2="1537.3" y2="592.663" gradientUnits="userSpaceOnUse">
<stop stop-color="#FF9700" stop-opacity="0.24"/>
<stop offset="1" stop-color="#281802"/>
</linearGradient>
<linearGradient id="paint16_linear_6_930" x1="898.732" y1="1398.56" x2="1534.02" y2="614.04" gradientUnits="userSpaceOnUse">
<stop stop-color="#FF9700" stop-opacity="0.24"/>
<stop offset="1" stop-color="#281802"/>
</linearGradient>
<linearGradient id="paint17_linear_6_930" x1="860.873" y1="1378.66" x2="1529.41" y2="636.177" gradientUnits="userSpaceOnUse">
<stop stop-color="#FF9700" stop-opacity="0.24"/>
<stop offset="1" stop-color="#281802"/>
</linearGradient>
<linearGradient id="paint18_linear_6_930" x1="824.285" y1="1358.13" x2="1523.43" y2="658.992" gradientUnits="userSpaceOnUse">
<stop stop-color="#FF9700" stop-opacity="0.24"/>
<stop offset="1" stop-color="#281802"/>
</linearGradient>
<linearGradient id="paint19_linear_6_930" x1="788.991" y1="1337.05" x2="1516.06" y2="682.401" gradientUnits="userSpaceOnUse">
<stop stop-color="#FF9700" stop-opacity="0.24"/>
<stop offset="1" stop-color="#281802"/>
</linearGradient>
<linearGradient id="paint20_linear_6_930" x1="755.009" y1="1315.5" x2="1507.28" y2="706.323" gradientUnits="userSpaceOnUse">
<stop stop-color="#FF9700" stop-opacity="0.24"/>
<stop offset="1" stop-color="#281802"/>
</linearGradient>
<linearGradient id="paint21_linear_6_930" x1="722.348" y1="1293.54" x2="1497.07" y2="730.672" gradientUnits="userSpaceOnUse">
<stop stop-color="#FF9700" stop-opacity="0.24"/>
<stop offset="1" stop-color="#281802"/>
</linearGradient>
<linearGradient id="paint22_linear_6_930" x1="691.019" y1="1271.27" x2="1485.44" y2="755.365" gradientUnits="userSpaceOnUse">
<stop stop-color="#FF9700" stop-opacity="0.24"/>
<stop offset="1" stop-color="#281802"/>
</linearGradient>
<linearGradient id="paint23_linear_6_930" x1="661.025" y1="1248.75" x2="1472.37" y2="780.319" gradientUnits="userSpaceOnUse">
<stop stop-color="#FF9700" stop-opacity="0.24"/>
<stop offset="1" stop-color="#281802"/>
</linearGradient>
<linearGradient id="paint24_linear_6_930" x1="632.363" y1="1226.07" x2="1457.87" y2="805.451" gradientUnits="userSpaceOnUse">
<stop stop-color="#FF9700" stop-opacity="0.24"/>
<stop offset="1" stop-color="#281802"/>
</linearGradient>
<linearGradient id="paint25_linear_6_930" x1="605.03" y1="1203.29" x2="1441.94" y2="830.679" gradientUnits="userSpaceOnUse">
<stop stop-color="#FF9700" stop-opacity="0.24"/>
<stop offset="1" stop-color="#281802"/>
</linearGradient>
<linearGradient id="paint26_linear_6_930" x1="579.015" y1="1180.51" x2="1424.59" y2="855.922" gradientUnits="userSpaceOnUse">
<stop stop-color="#FF9700" stop-opacity="0.24"/>
<stop offset="1" stop-color="#281802"/>
</linearGradient>
<linearGradient id="paint27_linear_6_930" x1="554.305" y1="1157.78" x2="1405.84" y2="881.1" gradientUnits="userSpaceOnUse">
<stop stop-color="#FF9700" stop-opacity="0.24"/>
<stop offset="1" stop-color="#281802"/>
</linearGradient>
<linearGradient id="paint28_linear_6_930" x1="530.881" y1="1135.19" x2="1385.71" y2="906.137" gradientUnits="userSpaceOnUse">
<stop stop-color="#FF9700" stop-opacity="0.24"/>
<stop offset="1" stop-color="#281802"/>
</linearGradient>
<linearGradient id="paint29_linear_6_930" x1="508.722" y1="1112.8" x2="1364.22" y2="930.955" gradientUnits="userSpaceOnUse">
<stop stop-color="#FF9700" stop-opacity="0.24"/>
<stop offset="1" stop-color="#281802"/>
</linearGradient>
<linearGradient id="paint30_linear_6_930" x1="487.801" y1="1090.68" x2="1341.4" y2="955.481" gradientUnits="userSpaceOnUse">
<stop stop-color="#FF9700" stop-opacity="0.24"/>
<stop offset="1" stop-color="#281802"/>
</linearGradient>
<linearGradient id="paint31_linear_6_930" x1="468.09" y1="1068.9" x2="1317.28" y2="979.643" gradientUnits="userSpaceOnUse">
<stop stop-color="#FF9700" stop-opacity="0.24"/>
<stop offset="1" stop-color="#281802"/>
</linearGradient>
<linearGradient id="paint32_linear_6_930" x1="449.556" y1="1047.52" x2="1291.89" y2="1003.37" gradientUnits="userSpaceOnUse">
<stop stop-color="#FF9700" stop-opacity="0.24"/>
<stop offset="1" stop-color="#281802"/>
</linearGradient>
<linearGradient id="paint33_linear_6_930" x1="432.161" y1="1026.6" x2="1265.27" y2="1026.6" gradientUnits="userSpaceOnUse">
<stop stop-color="#FF9700" stop-opacity="0.24"/>
<stop offset="1" stop-color="#281802"/>
</linearGradient>
<linearGradient id="paint34_linear_6_930" x1="415.867" y1="1006.21" x2="1237.48" y2="1049.27" gradientUnits="userSpaceOnUse">
<stop stop-color="#FF9700" stop-opacity="0.24"/>
<stop offset="1" stop-color="#281802"/>
</linearGradient>
<linearGradient id="paint35_linear_6_930" x1="400.631" y1="986.401" x2="1208.54" y2="1071.32" gradientUnits="userSpaceOnUse">
<stop stop-color="#FF9700" stop-opacity="0.24"/>
<stop offset="1" stop-color="#281802"/>
</linearGradient>
<linearGradient id="paint36_linear_6_930" x1="386.408" y1="967.223" x2="1178.52" y2="1092.68" gradientUnits="userSpaceOnUse">
<stop stop-color="#FF9700" stop-opacity="0.24"/>
<stop offset="1" stop-color="#281802"/>
</linearGradient>
<linearGradient id="paint37_linear_6_930" x1="373.149" y1="948.727" x2="1147.46" y2="1113.31" gradientUnits="userSpaceOnUse">
<stop stop-color="#FF9700" stop-opacity="0.24"/>
<stop offset="1" stop-color="#281802"/>
</linearGradient>
<linearGradient id="paint38_linear_6_930" x1="360.804" y1="930.96" x2="1115.42" y2="1133.16" gradientUnits="userSpaceOnUse">
<stop stop-color="#FF9700" stop-opacity="0.24"/>
<stop offset="1" stop-color="#281802"/>
</linearGradient>
<linearGradient id="paint39_linear_6_930" x1="349.32" y1="913.966" x2="1082.45" y2="1152.18" gradientUnits="userSpaceOnUse">
<stop stop-color="#FF9700" stop-opacity="0.24"/>
<stop offset="1" stop-color="#281802"/>
</linearGradient>
<linearGradient id="paint40_linear_6_930" x1="338.643" y1="897.784" x2="1048.62" y2="1170.32" gradientUnits="userSpaceOnUse">
<stop stop-color="#FF9700" stop-opacity="0.24"/>
<stop offset="1" stop-color="#281802"/>
</linearGradient>
<linearGradient id="paint41_linear_6_930" x1="328.716" y1="882.451" x2="1013.98" y2="1187.55" gradientUnits="userSpaceOnUse">
<stop stop-color="#FF9700" stop-opacity="0.24"/>
<stop offset="1" stop-color="#281802"/>
</linearGradient>
<linearGradient id="paint42_linear_6_930" x1="319.481" y1="867.999" x2="978.592" y2="1203.83" gradientUnits="userSpaceOnUse">
<stop stop-color="#FF9700" stop-opacity="0.24"/>
<stop offset="1" stop-color="#281802"/>
</linearGradient>
<linearGradient id="paint43_linear_6_930" x1="310.88" y1="854.457" x2="942.526" y2="1219.14" gradientUnits="userSpaceOnUse">
<stop stop-color="#FF9700" stop-opacity="0.24"/>
<stop offset="1" stop-color="#281802"/>
</linearGradient>
<linearGradient id="paint44_linear_6_930" x1="302.851" y1="841.85" x2="905.845" y2="1233.44" gradientUnits="userSpaceOnUse">
<stop stop-color="#FF9700" stop-opacity="0.24"/>
<stop offset="1" stop-color="#281802"/>
</linearGradient>
<linearGradient id="paint45_linear_6_930" x1="295.334" y1="830.199" x2="868.613" y2="1246.71" gradientUnits="userSpaceOnUse">
<stop stop-color="#FF9700" stop-opacity="0.24"/>
<stop offset="1" stop-color="#281802"/>
</linearGradient>
<linearGradient id="paint46_linear_6_930" x1="288.266" y1="819.522" x2="830.899" y2="1258.94" gradientUnits="userSpaceOnUse">
<stop stop-color="#FF9700" stop-opacity="0.24"/>
<stop offset="1" stop-color="#281802"/>
</linearGradient>
<linearGradient id="paint47_linear_6_930" x1="281.586" y1="809.832" x2="792.767" y2="1270.1" gradientUnits="userSpaceOnUse">
<stop stop-color="#FF9700" stop-opacity="0.24"/>
<stop offset="1" stop-color="#281802"/>
</linearGradient>
<linearGradient id="paint48_linear_6_930" x1="275.231" y1="801.139" x2="754.287" y2="1280.19" gradientUnits="userSpaceOnUse">
<stop stop-color="#FF9700" stop-opacity="0.24"/>
<stop offset="1" stop-color="#281802"/>
</linearGradient>
<linearGradient id="paint49_linear_6_930" x1="269.138" y1="793.448" x2="715.524" y2="1289.21" gradientUnits="userSpaceOnUse">
<stop stop-color="#FF9700" stop-opacity="0.24"/>
<stop offset="1" stop-color="#281802"/>
</linearGradient>
<linearGradient id="paint50_linear_6_930" x1="263.246" y1="786.763" x2="676.545" y2="1297.14" gradientUnits="userSpaceOnUse">
<stop stop-color="#FF9700" stop-opacity="0.24"/>
<stop offset="1" stop-color="#281802"/>
</linearGradient>
<linearGradient id="paint51_linear_6_930" x1="257.494" y1="781.081" x2="637.416" y2="1304" gradientUnits="userSpaceOnUse">
<stop stop-color="#FF9700" stop-opacity="0.24"/>
<stop offset="1" stop-color="#281802"/>
</linearGradient>
<linearGradient id="paint52_linear_6_930" x1="251.82" y1="776.398" x2="598.203" y2="1309.78" gradientUnits="userSpaceOnUse">
<stop stop-color="#FF9700" stop-opacity="0.24"/>
<stop offset="1" stop-color="#281802"/>
</linearGradient>
<linearGradient id="paint53_linear_6_930" x1="246.164" y1="772.704" x2="558.97" y2="1314.5" gradientUnits="userSpaceOnUse">
<stop stop-color="#FF9700" stop-opacity="0.24"/>
<stop offset="1" stop-color="#281802"/>
</linearGradient>
<linearGradient id="paint54_linear_6_930" x1="240.469" y1="769.988" x2="519.781" y2="1318.17" gradientUnits="userSpaceOnUse">
<stop stop-color="#FF9700" stop-opacity="0.24"/>
<stop offset="1" stop-color="#281802"/>
</linearGradient>
<linearGradient id="paint55_linear_6_930" x1="234.676" y1="768.233" x2="480.696" y2="1320.8" gradientUnits="userSpaceOnUse">
<stop stop-color="#FF9700" stop-opacity="0.24"/>
<stop offset="1" stop-color="#281802"/>
</linearGradient>
<linearGradient id="paint56_linear_6_930" x1="228.73" y1="767.421" x2="441.775" y2="1322.42" gradientUnits="userSpaceOnUse">
<stop stop-color="#FF9700" stop-opacity="0.24"/>
<stop offset="1" stop-color="#281802"/>
</linearGradient>
<linearGradient id="paint57_linear_6_930" x1="222.577" y1="767.53" x2="403.077" y2="1323.05" gradientUnits="userSpaceOnUse">
<stop stop-color="#FF9700" stop-opacity="0.24"/>
<stop offset="1" stop-color="#281802"/>
</linearGradient>
<linearGradient id="paint58_linear_6_930" x1="216.164" y1="768.534" x2="364.658" y2="1322.72" gradientUnits="userSpaceOnUse">
<stop stop-color="#FF9700" stop-opacity="0.24"/>
<stop offset="1" stop-color="#281802"/>
</linearGradient>
<linearGradient id="paint59_linear_6_930" x1="209.442" y1="770.406" x2="326.572" y2="1321.46" gradientUnits="userSpaceOnUse">
<stop stop-color="#FF9700" stop-opacity="0.24"/>
<stop offset="1" stop-color="#281802"/>
</linearGradient>
<linearGradient id="paint60_linear_6_930" x1="202.363" y1="773.114" x2="288.869" y2="1319.29" gradientUnits="userSpaceOnUse">
<stop stop-color="#FF9700" stop-opacity="0.24"/>
<stop offset="1" stop-color="#281802"/>
</linearGradient>
<linearGradient id="paint61_linear_6_930" x1="194.881" y1="776.626" x2="251.6" y2="1316.27" gradientUnits="userSpaceOnUse">
<stop stop-color="#FF9700" stop-opacity="0.24"/>
<stop offset="1" stop-color="#281802"/>
</linearGradient>
<linearGradient id="paint62_linear_6_930" x1="186.954" y1="780.905" x2="214.809" y2="1312.41" gradientUnits="userSpaceOnUse">
<stop stop-color="#FF9700" stop-opacity="0.24"/>
<stop offset="1" stop-color="#281802"/>
</linearGradient>
<linearGradient id="paint63_linear_6_930" x1="178.541" y1="785.914" x2="178.541" y2="1307.78" gradientUnits="userSpaceOnUse">
<stop stop-color="#FF9700" stop-opacity="0.24"/>
<stop offset="1" stop-color="#281802"/>
</linearGradient>
<linearGradient id="paint64_linear_6_930" x1="169.604" y1="791.612" x2="142.835" y2="1302.4" gradientUnits="userSpaceOnUse">
<stop stop-color="#FF9700" stop-opacity="0.24"/>
<stop offset="1" stop-color="#281802"/>
</linearGradient>
<linearGradient id="paint65_linear_6_930" x1="160.11" y1="797.958" x2="107.729" y2="1296.33" gradientUnits="userSpaceOnUse">
<stop stop-color="#FF9700" stop-opacity="0.24"/>
<stop offset="1" stop-color="#281802"/>
</linearGradient>
<linearGradient id="paint66_linear_6_930" x1="150.025" y1="804.907" x2="73.257" y2="1289.6" gradientUnits="userSpaceOnUse">
<stop stop-color="#FF9700" stop-opacity="0.24"/>
<stop offset="1" stop-color="#281802"/>
</linearGradient>
<linearGradient id="paint67_linear_6_930" x1="139.323" y1="812.414" x2="39.4499" y2="1282.28" gradientUnits="userSpaceOnUse">
<stop stop-color="#FF9700" stop-opacity="0.24"/>
<stop offset="1" stop-color="#281802"/>
</linearGradient>
<linearGradient id="paint68_linear_6_930" x1="127.976" y1="820.434" x2="6.33468" y2="1274.41" gradientUnits="userSpaceOnUse">
<stop stop-color="#FF9700" stop-opacity="0.24"/>
<stop offset="1" stop-color="#281802"/>
</linearGradient>
</defs>
</svg>
